<svg width="24" height="24" viewBox="0 0 24 24" fill="none" xmlns="http://www.w3.org/2000/svg">
<path d="M7.18497 19.605L7.45283 19.1828C7.3259 19.1023 7.16947 19.0831 7.02685 19.1307L7.18497 19.605ZM3 21L2.52566 20.8419C2.46577 21.0216 2.51253 21.2196 2.64645 21.3536C2.78036 21.4875 2.97845 21.5342 3.15811 21.4743L3 21ZM4.39499 16.815L4.86933 16.9731C4.91687 16.8305 4.89772 16.6741 4.81718 16.5472L4.39499 16.815ZM12 21.5C17.2467 21.5 21.5 17.2467 21.5 12H20.5C20.5 16.6944 16.6944 20.5 12 20.5V21.5ZM6.9171 20.0272C8.38722 20.9599 10.1313 21.5 12 21.5V20.5C10.3266 20.5 8.7675 20.0169 7.45283 19.1828L6.9171 20.0272ZM7.02685 19.1307L2.84189 20.5257L3.15811 21.4743L7.34308 20.0794L7.02685 19.1307ZM3.47434 21.1581L4.86933 16.9731L3.92065 16.6569L2.52566 20.8419L3.47434 21.1581ZM2.5 12C2.5 13.8687 3.04005 15.6128 3.9728 17.0829L4.81718 16.5472C3.98307 15.2325 3.5 13.6734 3.5 12H2.5ZM12 2.5C6.75329 2.5 2.5 6.75329 2.5 12H3.5C3.5 7.30558 7.30558 3.5 12 3.5V2.5ZM21.5 12C21.5 6.75329 17.2467 2.5 12 2.5V3.5C16.6944 3.5 20.5 7.30558 20.5 12H21.5Z" fill="#FFFAE5"/>
<path d="M16 12H16.002V12.002H16V12Z" stroke="#FFFAE5" stroke-width="2" stroke-linecap="round" stroke-linejoin="round"/>
<path d="M12 12H12.002V12.002H12V12Z" stroke="#FFFAE5" stroke-width="2" stroke-linecap="round" stroke-linejoin="round"/>
<path d="M8 12H8.002V12.002H8V12Z" stroke="#FFFAE5" stroke-width="2" stroke-linecap="round" stroke-linejoin="round"/>
</svg>
