<svg width="24" height="24" viewBox="0 0 24 24" fill="none" xmlns="http://www.w3.org/2000/svg">
<path fill-rule="evenodd" clip-rule="evenodd" d="M8.57951 8.04575C8.57951 6.18056 10.0726 4.6875 11.9378 4.6875C13.803 4.6875 15.296 6.18056 15.296 8.04575C15.296 9.91194 13.8029 11.4049 11.9378 11.4049C10.0726 11.4049 8.57951 9.91194 8.57951 8.04575ZM11.9378 3.6875C9.52029 3.6875 7.57951 5.62827 7.57951 8.04575C7.57951 10.4641 9.52021 12.4049 11.9378 12.4049C14.3553 12.4049 16.296 10.4641 16.296 8.04575C16.296 5.62827 14.3552 3.6875 11.9378 3.6875ZM6.4171 17.1845C6.4171 16.8239 6.53816 16.5464 6.76041 16.3135C6.99418 16.0685 7.35863 15.8549 7.86394 15.6831C8.87981 15.3377 10.3166 15.2095 11.9378 15.2095C13.5506 15.2095 14.9879 15.3334 16.0067 15.675C16.5136 15.845 16.8795 16.0569 17.1142 16.3005C17.3371 16.5318 17.4584 16.8076 17.4584 17.1671C17.4584 17.5275 17.3374 17.8049 17.1151 18.0378C16.8814 18.2828 16.5169 18.4964 16.0115 18.6682C14.9957 19.0137 13.5589 19.1421 11.9378 19.1421C10.3245 19.1421 8.88716 19.0182 7.8685 18.6766C7.3617 18.5067 6.99587 18.2948 6.76122 18.0512C6.53843 17.8199 6.4171 17.5441 6.4171 17.1845ZM11.9378 14.2095C10.2938 14.2095 8.72022 14.3357 7.54205 14.7363C6.95034 14.9375 6.42184 15.2197 6.03692 15.6231C5.64048 16.0386 5.4171 16.5621 5.4171 17.1845C5.4171 17.8081 5.64238 18.3311 6.041 18.7449C6.42777 19.1464 6.95815 19.4261 7.55055 19.6247C8.73028 20.0203 10.3033 20.1421 11.9378 20.1421C13.5818 20.1421 15.1554 20.0157 16.3335 19.615C16.9252 19.4138 17.4537 19.1315 17.8386 18.7282C18.235 18.3128 18.4584 17.7894 18.4584 17.1671C18.4584 16.5435 18.2331 16.0205 17.8344 15.6067C17.4475 15.2052 16.9171 14.9256 16.3246 14.7269C15.1448 14.3313 13.5718 14.2095 11.9378 14.2095Z" fill="#FFFAE5"/>
</svg>
