<svg width="24" height="24" viewBox="0 0 24 24" fill="none" xmlns="http://www.w3.org/2000/svg">
<path fill-rule="evenodd" clip-rule="evenodd" d="M10.5976 3.43299C11.2574 2.85567 12.2426 2.85567 12.9024 3.43299L19.9024 9.55799C20.2822 9.8903 20.5 10.3704 20.5 10.875V19.7474C20.5 20.7139 19.7165 21.4974 18.75 21.4974H14.75C13.7835 21.4974 13 20.7139 13 19.7474V15.7474C13 15.6094 12.8881 15.4974 12.75 15.4974H10.75C10.6119 15.4974 10.5 15.6094 10.5 15.7474V19.7474C10.5 20.7139 9.7165 21.4974 8.75 21.4974H4.75C3.7835 21.4974 3 20.7139 3 19.7474V10.875C3 10.3704 3.21784 9.8903 3.59762 9.55799L10.5976 3.43299ZM11.9146 4.56186C11.8204 4.47938 11.6796 4.47938 11.5854 4.56186L4.58537 10.6869C4.53112 10.7343 4.5 10.8029 4.5 10.875V19.7474C4.5 19.8855 4.61193 19.9974 4.75 19.9974H8.75C8.88807 19.9974 9 19.8855 9 19.7474V15.7474C9 14.7809 9.7835 13.9974 10.75 13.9974H12.75C13.7165 13.9974 14.5 14.7809 14.5 15.7474V19.7474C14.5 19.8855 14.6119 19.9974 14.75 19.9974H18.75C18.8881 19.9974 19 19.8855 19 19.7474V10.875C19 10.8029 18.9689 10.7343 18.9146 10.6869L11.9146 4.56186Z" fill="#FFCC00"/>
</svg>
