<svg width="24" height="23" viewBox="0 0 24 23" fill="none" xmlns="http://www.w3.org/2000/svg">
<path fill-rule="evenodd" clip-rule="evenodd" d="M3.50083 12.8185V12.6149C3.53295 12.0125 3.7406 11.4289 4.10236 10.9241C4.7045 10.3178 5.1167 9.5748 5.29571 8.77306C5.29571 8.1534 5.29571 7.5249 5.35393 6.90525C5.65469 3.92206 8.82728 1.8595 11.9611 1.8595H12.0387C15.1725 1.8595 18.345 3.92206 18.6555 6.90525C18.7137 7.5249 18.6555 8.1534 18.704 8.77306C18.8854 9.57666 19.2972 10.322 19.8974 10.933C20.2618 11.4333 20.4698 12.0148 20.4989 12.6149V12.8097C20.5206 13.6189 20.2208 14.4081 19.6548 15.0316C18.907 15.7606 17.8921 16.2141 16.8024 16.3063C13.607 16.625 10.383 16.625 7.18762 16.3063C6.09914 16.2101 5.08576 15.7572 4.33521 15.0316C3.778 14.4076 3.48224 13.6232 3.50083 12.8185Z" stroke="#0E0B00" stroke-width="1.5" stroke-linecap="round" stroke-linejoin="round"/>
<path d="M9.55493 19.3868C10.0542 19.9695 10.7874 20.3466 11.5922 20.4346C12.3971 20.5227 13.2072 20.3144 13.8433 19.856C14.0389 19.7204 14.2149 19.5628 14.3672 19.3868" stroke="#0E0B00" stroke-width="1.5" stroke-linecap="round" stroke-linejoin="round"/>
</svg>
