<svg width="19" height="20" viewBox="0 0 19 20" fill="none" xmlns="http://www.w3.org/2000/svg">
<path d="M7.125 14.4584V13.4584C6.57272 13.4584 6.125 13.9061 6.125 14.4584H7.125ZM11.875 14.4584H12.875C12.875 13.9061 12.4273 13.4584 11.875 13.4584V14.4584ZM7.125 15.4584H11.875V13.4584H7.125V15.4584ZM10.875 14.4584V15.25H12.875V14.4584H10.875ZM8.125 15.25V14.4584H6.125V15.25H8.125ZM9.5 16.625C8.74061 16.625 8.125 16.0094 8.125 15.25H6.125C6.125 17.114 7.63604 18.625 9.5 18.625V16.625ZM10.875 15.25C10.875 16.0094 10.2594 16.625 9.5 16.625V18.625C11.364 18.625 12.875 17.114 12.875 15.25H10.875Z" fill="black"/>
<path d="M3.3985 12.6431L2.69139 11.936L2.69139 11.936L3.3985 12.6431ZM3.8029 12.2387L4.51001 12.9458L4.51001 12.9458L3.8029 12.2387ZM15.197 12.2387L15.9041 11.5316L15.9041 11.5316L15.197 12.2387ZM15.6014 12.6431L16.3085 11.936L16.3085 11.936L15.6014 12.6431ZM9.49995 3.375L9.49995 4.375L9.49995 3.375ZM15.0416 13.4583H3.95829V15.4583H15.0416V13.4583ZM4.16663 13.6667V13.2029H2.16663V13.6667H4.16663ZM4.10561 13.3502L4.51001 12.9458L3.0958 11.5316L2.69139 11.936L4.10561 13.3502ZM4.95829 11.8636V8.91667H2.95829V11.8636H4.95829ZM14.0416 8.91667V11.8636H16.0416V8.91667H14.0416ZM14.4899 12.9458L14.8943 13.3502L16.3085 11.936L15.9041 11.5316L14.4899 12.9458ZM14.8333 13.2029V13.6667H16.8333V13.2029H14.8333ZM14.8943 13.3502C14.8552 13.3112 14.8333 13.2582 14.8333 13.2029H16.8333C16.8333 12.7278 16.6445 12.272 16.3085 11.936L14.8943 13.3502ZM14.0416 11.8636C14.0416 12.2695 14.2029 12.6588 14.4899 12.9458L15.9041 11.5316C15.9922 11.6197 16.0416 11.7391 16.0416 11.8636H14.0416ZM16.0416 8.91667C16.0416 5.3038 13.1128 2.37499 9.49994 2.375L9.49995 4.375C12.0082 4.37499 14.0416 6.40837 14.0416 8.91667H16.0416ZM4.95829 8.91667C4.95829 6.40838 6.99166 4.37501 9.49995 4.375L9.49994 2.375C5.88709 2.37501 2.95829 5.30381 2.95829 8.91667H4.95829ZM4.51001 12.9458C4.79704 12.6588 4.95829 12.2695 4.95829 11.8636H2.95829C2.95829 11.7391 3.00775 11.6197 3.09579 11.5316L4.51001 12.9458ZM4.16663 13.2029C4.16663 13.2582 4.14468 13.3112 4.10561 13.3502L2.69139 11.936C2.35539 12.272 2.16663 12.7278 2.16663 13.2029H4.16663ZM3.95829 13.4583C4.07335 13.4583 4.16663 13.5516 4.16663 13.6667H2.16663C2.16663 14.6562 2.96878 15.4583 3.95829 15.4583V13.4583ZM15.0416 15.4583C16.0311 15.4583 16.8333 14.6562 16.8333 13.6667H14.8333C14.8333 13.5516 14.9266 13.4583 15.0416 13.4583V15.4583Z" fill="black"/>
<circle cx="13.5" cy="4.5" r="4.5" fill="#FF8181"/>
</svg>
