<svg width="33" height="33" viewBox="0 0 33 33" fill="none" xmlns="http://www.w3.org/2000/svg">
<path d="M26.9517 26.9515L26.9517 25.9515H26.9517L26.9517 26.9515ZM5.39054 26.9515L5.39054 27.9515H5.39054L5.39054 26.9515ZM4.04297 25.6039L5.04297 25.6039L5.04297 25.6039L4.04297 25.6039ZM4.04297 8.08545L4.04297 7.08545C3.77775 7.08545 3.5234 7.19081 3.33586 7.37834C3.14833 7.56588 3.04297 7.82023 3.04297 8.08545L4.04297 8.08545ZM26.9517 8.08545L26.9517 7.08545L26.9517 7.08545L26.9517 8.08545ZM28.2993 9.43302L29.2993 9.43302L29.2993 9.43302L28.2993 9.43302ZM28.2993 25.6039L27.2993 25.6039L27.2993 25.6039L28.2993 25.6039ZM26.9517 25.9515L5.39054 25.9515L5.39054 27.9515L26.9517 27.9515L26.9517 25.9515ZM5.04297 25.6039L5.04297 8.08545L3.04297 8.08545L3.04297 25.6039L5.04297 25.6039ZM4.04297 9.08545L26.9517 9.08545L26.9517 7.08545L4.04297 7.08545L4.04297 9.08545ZM26.9517 9.08545C27.1437 9.08545 27.2993 9.24106 27.2993 9.43302L29.2993 9.43302C29.2993 8.1365 28.2483 7.08545 26.9517 7.08545L26.9517 9.08545ZM5.39054 25.9515C5.19858 25.9515 5.04297 25.7959 5.04297 25.6039L3.04297 25.6039C3.04297 26.9004 4.09402 27.9515 5.39054 27.9515L5.39054 25.9515ZM26.9517 27.9515C28.2483 27.9515 29.2993 26.9004 29.2993 25.6039L27.2993 25.6039C27.2993 25.7959 27.1437 25.9515 26.9517 25.9515L26.9517 27.9515ZM27.2993 9.43302L27.2993 25.6039L29.2993 25.6039L29.2993 9.43302L27.2993 9.43302Z" fill="#B3B3B3"/>
<path d="M16.1711 8.08553L13.8707 5.78508C13.618 5.53236 13.2752 5.39038 12.9178 5.39038H5.39054C4.6463 5.39038 4.04297 5.99371 4.04297 6.73795V8.08553" stroke="#B3B3B3" stroke-width="2" stroke-linecap="round" stroke-linejoin="round"/>
</svg>
