<svg width="24" height="24" viewBox="0 0 24 24" fill="none" xmlns="http://www.w3.org/2000/svg">
<path fill-rule="evenodd" clip-rule="evenodd" d="M8.57951 8.04575C8.57951 6.18056 10.0726 4.6875 11.9378 4.6875C13.803 4.6875 15.296 6.18056 15.296 8.04575C15.296 9.91194 13.8029 11.4049 11.9378 11.4049C10.0726 11.4049 8.57951 9.91194 8.57951 8.04575ZM11.9378 3.6875C9.52029 3.6875 7.57951 5.62827 7.57951 8.04575C7.57951 10.4641 9.52021 12.4049 11.9378 12.4049C14.3553 12.4049 16.296 10.4641 16.296 8.04575C16.296 5.62827 14.3552 3.6875 11.9378 3.6875ZM6.28998 5.62939C4.96359 5.62939 3.88782 6.70466 3.88782 8.03064C3.88782 9.35663 4.96359 10.4319 6.28998 10.4319C6.56613 10.4319 6.78998 10.6558 6.78998 10.9319C6.78998 11.208 6.56613 11.4319 6.28998 11.4319C4.41171 11.4319 2.88782 9.90933 2.88782 8.03064C2.88782 6.15196 4.41171 4.62939 6.28998 4.62939C6.56613 4.62939 6.78998 4.85325 6.78998 5.12939C6.78998 5.40554 6.56613 5.62939 6.28998 5.62939ZM17.5949 4.62939C17.3187 4.62939 17.0949 4.85325 17.0949 5.12939C17.0949 5.40554 17.3187 5.62939 17.5949 5.62939C18.9213 5.62939 19.997 6.70466 19.997 8.03064C19.997 9.35663 18.9213 10.4319 17.5949 10.4319C17.3187 10.4319 17.0949 10.6558 17.0949 10.9319C17.0949 11.208 17.3187 11.4319 17.5949 11.4319C19.4731 11.4319 20.997 9.90933 20.997 8.03064C20.997 6.15196 19.4731 4.62939 17.5949 4.62939ZM18.9635 13.586C18.688 13.567 18.4493 13.7749 18.4303 14.0504C18.4113 14.3259 18.6192 14.5646 18.8947 14.5836C19.349 14.6149 19.7995 14.6792 20.242 14.7788L20.2419 14.779L20.2557 14.7817C20.5587 14.841 20.8685 14.9287 21.1243 15.0563C21.3829 15.1854 21.5398 15.3316 21.6127 15.4842C21.7257 15.722 21.7259 15.9997 21.6124 16.239C21.54 16.3909 21.3836 16.5369 21.124 16.6669C20.8674 16.7954 20.5564 16.8845 20.251 16.9473C19.9806 17.0029 19.8064 17.2673 19.862 17.5377C19.9176 17.8082 20.182 17.9824 20.4525 17.9268C20.7979 17.8557 21.2042 17.745 21.5716 17.5611C21.9358 17.3788 22.3102 17.1001 22.5156 16.6682L22.5158 16.6677C22.7579 16.1574 22.7581 15.5644 22.5156 15.0544L22.5153 15.0538C22.3095 14.6225 21.9356 14.3435 21.5707 14.1615C21.2051 13.9791 20.801 13.8699 20.4547 13.8017C19.9626 13.6913 19.4639 13.6205 18.9635 13.586ZM4.99018 14.5836C5.26567 14.5646 5.4736 14.3259 5.4546 14.0504C5.4356 13.7749 5.19687 13.567 4.92138 13.586C4.42098 13.6205 3.92227 13.6913 3.43013 13.8017C3.0839 13.8699 2.67978 13.9791 2.31422 14.1615C1.94951 14.3435 1.57575 14.6225 1.37039 15.0539C1.12666 15.5642 1.12687 16.1575 1.37014 16.6681C1.57512 17.1001 1.94931 17.3788 2.31329 17.5611C2.68059 17.745 3.08699 17.8558 3.43241 17.9268C3.70289 17.9824 3.96725 17.8082 4.02287 17.5377C4.07849 17.2673 3.90431 17.0029 3.63383 16.9473C3.32841 16.8845 3.01752 16.7954 2.76103 16.6669C2.50135 16.5369 2.3454 16.3909 2.2735 16.2392L2.27303 16.2383C2.15909 15.9993 2.15932 15.7222 2.27282 15.4847L2.27322 15.4839C2.34565 15.3316 2.50206 15.1854 2.76078 15.0563C3.01634 14.9287 3.32611 14.841 3.62918 14.7817L3.62922 14.7819L3.6429 14.7788C4.08539 14.6792 4.53589 14.6149 4.99018 14.5836ZM6.76041 16.3135C6.53816 16.5464 6.4171 16.8239 6.4171 17.1845C6.4171 17.5441 6.53843 17.8199 6.76122 18.0512C6.99587 18.2948 7.3617 18.5067 7.8685 18.6766C8.88716 19.0182 10.3245 19.1421 11.9378 19.1421C13.5589 19.1421 14.9957 19.0137 16.0115 18.6682C16.5169 18.4964 16.8814 18.2828 17.1151 18.0378C17.3374 17.8049 17.4584 17.5275 17.4584 17.1671C17.4584 16.8076 17.3371 16.5318 17.1142 16.3005C16.8795 16.0569 16.5136 15.845 16.0067 15.675C14.9879 15.3334 13.5506 15.2095 11.9378 15.2095C10.3166 15.2095 8.87981 15.3377 7.86394 15.6831C7.35863 15.8549 6.99418 16.0685 6.76041 16.3135ZM7.54205 14.7363C8.72022 14.3357 10.2938 14.2095 11.9378 14.2095C13.5718 14.2095 15.1448 14.3313 16.3246 14.7269C16.9171 14.9256 17.4475 15.2052 17.8344 15.6067C18.2331 16.0205 18.4584 16.5435 18.4584 17.1671C18.4584 17.7894 18.235 18.3128 17.8386 18.7282C17.4537 19.1315 16.9252 19.4138 16.3335 19.615C15.1554 20.0157 13.5818 20.1421 11.9378 20.1421C10.3033 20.1421 8.73028 20.0203 7.55055 19.6247C6.95815 19.4261 6.42777 19.1464 6.041 18.7449C5.64238 18.3311 5.4171 17.8081 5.4171 17.1845C5.4171 16.5621 5.64048 16.0386 6.03692 15.6231C6.42184 15.2197 6.95034 14.9375 7.54205 14.7363Z" fill="#FFFAE5"/>
</svg>
