<svg width="18" height="21" viewBox="0 0 18 21" fill="none" xmlns="http://www.w3.org/2000/svg">
<path fill-rule="evenodd" clip-rule="evenodd" d="M13.1194 0.884399C13.1194 0.470186 12.7836 0.134399 12.3694 0.134399C11.9552 0.134399 11.6194 0.470186 11.6194 0.884399V1.62228H6.38792V0.884399C6.38792 0.470186 6.05214 0.134399 5.63792 0.134399C5.22371 0.134399 4.88792 0.470186 4.88792 0.884399V1.64991C3.74899 1.75944 2.75628 2.19607 2.0211 2.98621C1.1684 3.90267 0.75 5.2002 0.75 6.74683V15.2732C0.75 16.8392 1.16674 18.1545 2.01619 19.0853C2.87372 20.025 4.08573 20.4779 5.4758 20.4779H12.5242C13.9136 20.4779 15.1248 20.0346 15.9829 19.1083C16.8341 18.1895 17.25 16.8901 17.25 15.3445V6.7478C17.254 5.20221 16.8403 3.90423 15.9892 2.98698C15.2549 2.19549 14.2611 1.75895 13.1194 1.64974V0.884399ZM11.6194 3.12228V3.9849C11.6194 4.39911 11.9552 4.7349 12.3694 4.7349C12.7836 4.7349 13.1194 4.39911 13.1194 3.9849V3.1587C13.8898 3.25871 14.4748 3.56014 14.8896 4.00722C15.4106 4.56874 15.7535 5.45764 15.75 6.74479L15.75 6.74683V7.11052H2.25V6.74683C2.25 5.46025 2.59588 4.57051 3.11927 4.00799C3.53568 3.56045 4.12085 3.25925 4.88792 3.15899V3.9849C4.88792 4.39911 5.22371 4.7349 5.63792 4.7349C6.05214 4.7349 6.38792 4.39911 6.38792 3.9849V3.12228H11.6194ZM2.25 8.61052V15.2732C2.25 16.585 2.59754 17.4971 3.12418 18.0742C3.64274 18.6424 4.41864 18.9779 5.4758 18.9779H12.5242C13.5897 18.9779 14.3664 18.6461 14.8825 18.089C15.4055 17.5244 15.75 16.6321 15.75 15.3445V8.61052H2.25ZM12.7015 10.7901C12.2873 10.7901 11.9515 11.1259 11.9515 11.5401C11.9515 11.9544 12.2873 12.2901 12.7015 12.2901H12.7092C13.1234 12.2901 13.4592 11.9544 13.4592 11.5401C13.4592 11.1259 13.1234 10.7901 12.7092 10.7901H12.7015ZM8.25421 11.5401C8.25421 11.1259 8.59 10.7901 9.00421 10.7901H9.01193C9.42614 10.7901 9.76193 11.1259 9.76193 11.5401C9.76193 11.9544 9.42614 12.2901 9.01193 12.2901H9.00421C8.59 12.2901 8.25421 11.9544 8.25421 11.5401ZM5.29824 10.7901C4.88403 10.7901 4.54824 11.1259 4.54824 11.5401C4.54824 11.9543 4.88403 12.2901 5.29824 12.2901H5.30596C5.72018 12.2901 6.05596 11.9543 6.05596 11.5401C6.05596 11.1259 5.72018 10.7901 5.30596 10.7901H5.29824ZM11.9515 15.2019C11.9515 14.7877 12.2873 14.4519 12.7015 14.4519H12.7092C13.1234 14.4519 13.4592 14.7877 13.4592 15.2019C13.4592 15.6162 13.1234 15.9519 12.7092 15.9519H12.7015C12.2873 15.9519 11.9515 15.6162 11.9515 15.2019ZM9.00421 14.4519C8.59 14.4519 8.25421 14.7877 8.25421 15.2019C8.25421 15.6162 8.59 15.9519 9.00421 15.9519H9.01193C9.42614 15.9519 9.76193 15.6162 9.76193 15.2019C9.76193 14.7877 9.42614 14.4519 9.01193 14.4519H9.00421ZM4.54824 15.2019C4.54824 14.7877 4.88403 14.4519 5.29824 14.4519H5.30596C5.72018 14.4519 6.05596 14.7877 6.05596 15.2019C6.05596 15.6161 5.72018 15.9519 5.30596 15.9519H5.29824C4.88403 15.9519 4.54824 15.6161 4.54824 15.2019Z" fill="#200E32"/>
</svg>
