<svg width="30" height="30" viewBox="0 0 30 30" fill="none" xmlns="http://www.w3.org/2000/svg">
<path d="M9.375 7.5L9.61754 6.52986C9.08174 6.39591 8.53881 6.72167 8.40486 7.25746L9.375 7.5ZM9.375 22.5L8.40486 22.7425C8.53881 23.2783 9.08174 23.6041 9.61754 23.4701L9.375 22.5ZM21.875 15L22.7071 15.5547C22.931 15.2188 22.931 14.7812 22.7071 14.4453L21.875 15ZM9.375 22.5C10.3451 22.2575 10.3452 22.2577 10.3452 22.2579C10.3453 22.2579 10.3453 22.2581 10.3453 22.2582C10.3454 22.2585 10.3454 22.2586 10.3455 22.2588C10.3455 22.2591 10.3456 22.2592 10.3456 22.2592C10.3456 22.2592 10.3454 22.2585 10.3451 22.2573C10.3445 22.2548 10.3433 22.2499 10.3416 22.2425C10.3381 22.2278 10.3325 22.2033 10.325 22.1691C10.3101 22.1007 10.2877 21.9933 10.2602 21.847C10.2053 21.5543 10.1304 21.1056 10.0548 20.501C9.90363 19.2918 9.75 17.4582 9.75 15H7.75C7.75 17.5418 7.90887 19.4582 8.07022 20.749C8.15089 21.3944 8.23217 21.8832 8.29447 22.2155C8.32562 22.3817 8.35203 22.5087 8.37124 22.5965C8.38085 22.6404 8.38866 22.6746 8.39436 22.6989C8.39722 22.7111 8.39954 22.7208 8.4013 22.7281C8.40219 22.7317 8.40292 22.7347 8.40352 22.7371C8.40382 22.7383 8.40408 22.7394 8.4043 22.7403C8.40441 22.7407 8.40451 22.7412 8.40461 22.7415C8.40465 22.7417 8.40472 22.742 8.40474 22.7421C8.4048 22.7423 8.40486 22.7425 9.375 22.5ZM9.75 15C9.75 12.5418 9.90363 10.7082 10.0548 9.49903C10.1304 8.8944 10.2053 8.44575 10.2602 8.15304C10.2877 8.00668 10.3101 7.8993 10.325 7.83088C10.3325 7.79668 10.3381 7.77221 10.3416 7.75749C10.3433 7.75013 10.3445 7.7452 10.3451 7.74271C10.3454 7.74146 10.3456 7.74082 10.3456 7.7408C10.3456 7.74078 10.3455 7.74092 10.3455 7.74121C10.3454 7.74135 10.3454 7.74154 10.3453 7.74176C10.3453 7.74187 10.3453 7.74206 10.3452 7.74212C10.3452 7.74232 10.3451 7.74254 9.375 7.5C8.40486 7.25746 8.4048 7.2577 8.40474 7.25794C8.40472 7.25803 8.40465 7.25828 8.40461 7.25847C8.40451 7.25884 8.40441 7.25926 8.4043 7.25971C8.40408 7.26061 8.40382 7.26166 8.40352 7.26287C8.40292 7.26528 8.40219 7.2683 8.4013 7.27194C8.39954 7.27922 8.39722 7.28894 8.39436 7.30111C8.38866 7.32544 8.38085 7.35957 8.37124 7.40349C8.35203 7.49133 8.32562 7.61832 8.29447 7.78446C8.23217 8.11675 8.15089 8.6056 8.07022 9.25097C7.90887 10.5418 7.75 12.4582 7.75 15H9.75ZM9.375 7.5C9.13246 8.47014 9.13222 8.47008 9.13199 8.47002C9.13193 8.47001 9.1317 8.46995 9.13158 8.46992C9.13132 8.46985 9.1311 8.4698 9.13092 8.46975C9.13055 8.46966 9.13034 8.46961 9.13028 8.46959C9.13016 8.46956 9.13065 8.46969 9.13174 8.46997C9.13392 8.47053 9.13853 8.47174 9.14553 8.47361C9.15955 8.47736 9.18317 8.48381 9.21625 8.49326C9.2824 8.51216 9.38638 8.54307 9.52698 8.58843C9.80817 8.67913 10.2359 8.82765 10.8005 9.05348C11.9295 9.50509 13.6066 10.2662 15.7539 11.4932L16.7461 9.75676C14.5184 8.48378 12.758 7.68241 11.5433 7.19652C10.936 6.9536 10.4653 6.78962 10.141 6.68501C9.97885 6.63271 9.85335 6.59526 9.76569 6.57021C9.72186 6.55769 9.6875 6.54827 9.66275 6.54165C9.65038 6.53834 9.64041 6.53572 9.63287 6.53377C9.6291 6.53279 9.62594 6.53198 9.62338 6.53133C9.6221 6.53101 9.62097 6.53072 9.62 6.53048C9.61951 6.53035 9.61906 6.53024 9.61865 6.53014C9.61845 6.53009 9.61817 6.53002 9.61807 6.52999C9.6178 6.52992 9.61754 6.52986 9.375 7.5ZM15.7539 11.4932C17.8833 12.7101 19.2294 13.7617 20.0305 14.4899C20.4311 14.8541 20.6958 15.1379 20.8545 15.3216C20.9339 15.4135 20.9868 15.4804 21.0169 15.5201C21.032 15.5399 21.0414 15.5529 21.0456 15.5588C21.0477 15.5617 21.0485 15.5628 21.048 15.5622C21.0478 15.5618 21.0472 15.5611 21.0464 15.5598C21.046 15.5592 21.0455 15.5585 21.0449 15.5576C21.0446 15.5572 21.0443 15.5567 21.044 15.5562C21.0438 15.556 21.0436 15.5556 21.0435 15.5555C21.0432 15.5551 21.0429 15.5547 21.875 15C22.7071 14.4453 22.7068 14.4449 22.7065 14.4445C22.7064 14.4443 22.7061 14.4439 22.7059 14.4436C22.7055 14.443 22.7051 14.4424 22.7046 14.4417C22.7038 14.4404 22.7028 14.439 22.7018 14.4374C22.6997 14.4344 22.6973 14.4309 22.6946 14.4269C22.6891 14.419 22.6823 14.4093 22.6742 14.3979C22.6579 14.3751 22.6362 14.3454 22.6086 14.309C22.5533 14.2363 22.4743 14.1373 22.3682 14.0143C22.1557 13.7684 21.8346 13.4271 21.3758 13.0101C20.4581 12.1758 18.9917 11.0399 16.7461 9.75676L15.7539 11.4932ZM21.875 15C21.0429 14.4453 21.0432 14.4449 21.0435 14.4445C21.0436 14.4444 21.0438 14.444 21.044 14.4438C21.0443 14.4433 21.0446 14.4428 21.0449 14.4424C21.0455 14.4415 21.046 14.4408 21.0464 14.4402C21.0472 14.4389 21.0478 14.4382 21.048 14.4378C21.0485 14.4372 21.0477 14.4383 21.0456 14.4412C21.0414 14.4471 21.032 14.4601 21.0169 14.4799C20.9868 14.5196 20.9339 14.5865 20.8545 14.6784C20.6958 14.8621 20.4311 15.1459 20.0305 15.5101C19.2294 16.2383 17.8833 17.2899 15.7539 18.5068L16.7461 20.2432C18.9917 18.9601 20.4581 17.8242 21.3758 16.9899C21.8346 16.5729 22.1557 16.2316 22.3682 15.9857C22.4743 15.8627 22.5533 15.7637 22.6086 15.691C22.6362 15.6546 22.6579 15.6249 22.6742 15.6021C22.6823 15.5907 22.6891 15.581 22.6946 15.5731C22.6973 15.5691 22.6997 15.5656 22.7018 15.5626C22.7028 15.561 22.7038 15.5596 22.7046 15.5583C22.7051 15.5576 22.7055 15.557 22.7059 15.5564C22.7061 15.5561 22.7064 15.5557 22.7065 15.5555C22.7068 15.5551 22.7071 15.5547 21.875 15ZM15.7539 18.5068C13.6066 19.7338 11.9295 20.4949 10.8005 20.9465C10.2359 21.1724 9.80817 21.3209 9.52698 21.4116C9.38638 21.4569 9.2824 21.4878 9.21625 21.5067C9.18317 21.5162 9.15955 21.5226 9.14553 21.5264C9.13853 21.5283 9.13392 21.5295 9.13174 21.53C9.13065 21.5303 9.13016 21.5304 9.13028 21.5304C9.13034 21.5304 9.13055 21.5303 9.13092 21.5302C9.1311 21.5302 9.13132 21.5301 9.13158 21.5301C9.1317 21.53 9.13193 21.53 9.13199 21.53C9.13222 21.5299 9.13246 21.5299 9.375 22.5C9.61754 23.4701 9.6178 23.4701 9.61807 23.47C9.61817 23.47 9.61845 23.4699 9.61865 23.4699C9.61906 23.4698 9.61951 23.4696 9.62 23.4695C9.62097 23.4693 9.6221 23.469 9.62338 23.4687C9.62594 23.468 9.6291 23.4672 9.63287 23.4662C9.64041 23.4643 9.65038 23.4617 9.66275 23.4584C9.6875 23.4517 9.72186 23.4423 9.76569 23.4298C9.85335 23.4047 9.97885 23.3673 10.141 23.315C10.4653 23.2104 10.936 23.0464 11.5433 22.8035C12.758 22.3176 14.5184 21.5162 16.7461 20.2432L15.7539 18.5068Z" fill="#B3B3B3"/>
</svg>
