<svg width="25" height="25" viewBox="0 0 25 25" fill="none" xmlns="http://www.w3.org/2000/svg">
<path fill-rule="evenodd" clip-rule="evenodd" d="M12.0205 0.62132C12.8489 0.62132 13.5205 1.29289 13.5205 2.12132L13.5205 10.5208L21.92 10.5208C22.7484 10.5208 23.42 11.1924 23.42 12.0208C23.42 12.8492 22.7484 13.5208 21.92 13.5208L13.5205 13.5208L13.5205 21.9203C13.5205 22.7487 12.8489 23.4203 12.0205 23.4203C11.1921 23.4203 10.5205 22.7487 10.5205 21.9203L10.5205 13.5208L2.12101 13.5208C1.29259 13.5208 0.621014 12.8492 0.621014 12.0208C0.621014 11.1924 1.29259 10.5208 2.12101 10.5208L10.5205 10.5208L10.5205 2.12132C10.5205 1.29289 11.1921 0.62132 12.0205 0.62132Z" fill="#CCCCCC"/>
</svg>
