<svg width="24" height="24" viewBox="0 0 24 24" fill="none" xmlns="http://www.w3.org/2000/svg">
<path fill-rule="evenodd" clip-rule="evenodd" d="M10.3661 4C7.98211 4 6.06775 5.91408 6.06775 8.29839C6.06775 10.6822 7.98237 12.5968 10.3661 12.5968C12.7505 12.5968 14.6645 10.6824 14.6645 8.29839C14.6645 5.91382 12.7507 4 10.3661 4ZM10.3666 5.21242C12.0816 5.21242 13.4526 6.58342 13.4526 8.29841C13.4526 10.0129 12.0813 11.3844 10.3666 11.3844C8.65244 11.3844 7.28063 10.0126 7.28063 8.29841C7.28063 6.58372 8.65214 5.21242 10.3666 5.21242ZM10.3667 14.0681C6.30105 14.0681 3.99991 14.8395 3.99991 17.0255C3.99991 19.2139 6.31126 20 10.3667 20L10.8868 19.9955C14.6271 19.9302 16.7334 19.1329 16.7334 17.0425C16.7334 14.9017 14.5215 14.1029 10.6287 14.0692L10.3667 14.0681ZM10.3672 15.2805C13.7631 15.2805 15.5215 15.8785 15.5215 17.0426C15.5215 18.1994 13.7674 18.7876 10.3672 18.7876C6.97125 18.7876 5.21282 18.1896 5.21282 17.0256C5.21282 15.8996 6.8725 15.3127 10.095 15.2818L10.3672 15.2805ZM17.9057 8.78435C18.2126 8.78435 18.4662 9.01241 18.5063 9.3083L18.5119 9.39056V10.4048H19.5585C19.8933 10.4048 20.1647 10.6762 20.1647 11.011C20.1647 11.3179 19.9367 11.5715 19.6408 11.6116L19.5585 11.6172H18.5119V12.6317C18.5119 12.9665 18.2405 13.2379 17.9057 13.2379C17.5988 13.2379 17.3451 13.0099 17.305 12.714L17.2995 12.6317V11.6172H16.2527C15.9179 11.6172 15.6465 11.3458 15.6465 11.011C15.6465 10.7041 15.8745 10.4504 16.1704 10.4103L16.2527 10.4048H17.2995V9.39056C17.2995 9.05576 17.5709 8.78435 17.9057 8.78435Z" fill="#FFFAE5"/>
</svg>
