<svg width="24" height="24" viewBox="0 0 24 24" fill="none" xmlns="http://www.w3.org/2000/svg">
<path fill-rule="evenodd" clip-rule="evenodd" d="M10.7507 3.76956C11.4371 3.08004 12.5525 3.0772 13.2416 3.76316C13.2476 3.76915 13.2537 3.77498 13.26 3.78065L13.9697 4.49036L13.9706 4.4912C14.4875 5.00569 15.1874 5.29381 15.9163 5.29381H16.9443C17.9172 5.29381 18.7063 6.08295 18.7063 7.05581V8.08281C18.7063 8.81289 18.9946 9.5115 19.5085 10.0291L19.5097 10.0304L20.2297 10.7504L20.2306 10.7512C20.9202 11.4377 20.9238 12.5523 20.2377 13.2423L20.2298 13.2502L20.2297 13.2503L19.5097 13.9703L19.5093 13.9707C18.9943 14.4869 18.7063 15.1882 18.7063 15.9158V16.9448C18.7063 17.9174 17.9174 18.7058 16.9443 18.7058H15.9163C15.1869 18.7058 14.4871 18.9953 13.9706 19.5094L13.97 19.51L13.25 20.229L13.2485 20.2305C12.5634 20.9202 11.4482 20.9237 10.7579 20.2373L10.7543 20.2337L10.7499 20.2293L10.0309 19.5103L10.0296 19.509C9.5124 18.9955 8.81295 18.7058 8.0843 18.7058H7.0553C6.0833 18.7058 5.2943 17.9175 5.2943 16.9448V15.9158C5.2943 15.1876 5.00492 14.4865 4.49027 13.9707L4.4901 13.9705L3.7711 13.2505L3.76985 13.2493C3.07957 12.5629 3.07673 11.4476 3.76266 10.7586L3.77085 10.7504L3.7711 10.7501L4.4901 10.0301L4.49111 10.0291C5.00465 9.51191 5.2943 8.81346 5.2943 8.08281V7.05581C5.2943 6.08281 6.08359 5.29381 7.0553 5.29381H8.0843C8.81238 5.29381 9.512 5.00555 10.0296 4.49161L10.0311 4.49011L10.7501 3.77011L10.7507 3.76956ZM7.0553 4.29381C5.53102 4.29381 4.2943 5.53081 4.2943 7.05581V8.08281C4.2943 8.54792 4.11015 8.99325 3.782 9.324L3.7815 9.32451L3.06375 10.0433L3.0635 10.0435L3.05475 10.0522L3.05395 10.0531C1.97811 11.1338 1.98303 12.882 3.06404 13.9577L3.06475 13.9584L3.78233 14.6769C4.10968 15.0051 4.2943 15.452 4.2943 15.9158V16.9448C4.2943 18.4701 5.5313 19.7058 7.0553 19.7058H8.0843C8.54738 19.7058 8.99369 19.8899 9.32444 20.218L9.32501 20.2186L10.0427 20.9364L10.0473 20.9409L10.0517 20.9454L10.0528 20.9464C11.1341 22.0217 12.8822 22.0174 13.9572 20.936L13.9581 20.9352L14.676 20.2182L14.6763 20.2179C15.0058 19.8902 15.4519 19.7058 15.9163 19.7058H16.9443C18.4692 19.7058 19.7063 18.4702 19.7063 16.9448V15.9158C19.7063 15.4514 19.8903 15.0047 20.2173 14.6769L20.9368 13.9574L20.9369 13.9574L20.9458 13.9484L20.9469 13.9474C22.0226 12.8655 22.0164 11.1186 20.9367 10.0431L20.9361 10.0425L20.2181 9.32451L20.2175 9.32394C19.8898 8.9936 19.7063 8.54846 19.7063 8.08281V7.05581C19.7063 5.53066 18.4694 4.29381 16.9443 4.29381H15.9163C15.4514 4.29381 15.0055 4.11011 14.6765 3.7829L14.676 3.78242L13.9569 3.06325C13.9503 3.05667 13.9435 3.05027 13.9366 3.04406C12.8549 1.97852 11.1143 1.98706 10.0421 3.06387L10.0419 3.06406L9.32501 3.782L9.32431 3.78269C8.99398 4.11032 8.54789 4.29381 8.0843 4.29381H7.0553ZM14.9236 9.78306C15.1188 9.5878 15.1188 9.27121 14.9236 9.07595C14.7283 8.88069 14.4117 8.88069 14.2165 9.07595L9.07645 14.216C8.88119 14.4112 8.88119 14.7278 9.07645 14.9231C9.27172 15.1183 9.5883 15.1183 9.78356 14.9231L14.9236 9.78306ZM14.5667 15.3224C14.3667 15.3224 14.1767 15.2424 14.0367 15.1024C13.9667 15.0324 13.9167 14.9424 13.8767 14.8524C13.8367 14.7624 13.8167 14.6734 13.8167 14.5724C13.8167 14.4724 13.8367 14.3724 13.8767 14.2824C13.9167 14.1924 13.9667 14.1124 14.0367 14.0424C14.3167 13.7624 14.8167 13.7624 15.0967 14.0424C15.1667 14.1124 15.2267 14.1924 15.2667 14.2824C15.2967 14.3724 15.3167 14.4724 15.3167 14.5724C15.3167 14.6734 15.2967 14.7624 15.2667 14.8524C15.2267 14.9424 15.1667 15.0324 15.0967 15.1024C14.9567 15.2424 14.7667 15.3224 14.5667 15.3224ZM9.14661 10.1218C9.23661 10.1618 9.32661 10.1828 9.42661 10.1828C9.52661 10.1828 9.62661 10.1618 9.71661 10.1218C9.80661 10.0818 9.88661 10.0328 9.9566 9.96283C10.0266 9.88283 10.0866 9.80283 10.1266 9.71283C10.1666 9.62183 10.1766 9.53283 10.1766 9.43283C10.1766 9.23283 10.0966 9.04183 9.9566 8.90283C9.67661 8.62183 9.18661 8.62183 8.89661 8.90283C8.82661 8.96283 8.77661 9.05283 8.73661 9.14283C8.69661 9.23283 8.67661 9.33183 8.67661 9.43283C8.67661 9.53283 8.69661 9.62183 8.73661 9.71283C8.77661 9.80283 8.82661 9.88283 8.89661 9.96283C8.96661 10.0328 9.05661 10.0818 9.14661 10.1218Z" fill="#FFFAE5"/>
</svg>
