<svg width="24" height="24" viewBox="0 0 24 24" fill="none" xmlns="http://www.w3.org/2000/svg">
<path fill-rule="evenodd" clip-rule="evenodd" d="M5.29892 3.5C3.20783 3.5 1.50115 5.17522 1.50104 7.25666L1.50104 7.25686L1.5 9.93466C1.49995 10.0673 1.5526 10.1945 1.64638 10.2883C1.74015 10.3821 1.86736 10.4349 2 10.4349C2.96195 10.4349 3.67668 11.1178 3.67668 12.001C3.67668 12.9097 2.93545 13.6506 2 13.6506C1.72386 13.6506 1.5 13.8745 1.5 14.1506V16.7431C1.5 18.8246 3.20558 20.5 5.29787 20.5H18.7021C20.7944 20.5 22.5 18.8246 22.5 16.7431V14.1506C22.5 13.8745 22.2761 13.6506 22 13.6506C21.0646 13.6506 20.3233 12.9097 20.3233 12.001C20.3233 11.0921 21.0649 10.3504 22 10.3504C22.1326 10.3504 22.2599 10.2977 22.3536 10.2039C22.4474 10.1101 22.5001 9.98283 22.5 9.85019L22.499 7.25686V7.25665C22.4988 5.17521 20.7922 3.5 18.7011 3.5H5.29892ZM2.50104 7.25686C2.50104 5.73957 3.74801 4.5 5.29892 4.5H13.3497V6.67031C13.3497 6.94645 13.5736 7.17031 13.8497 7.17031C14.1258 7.17031 14.3497 6.94645 14.3497 6.67031V4.5H18.7011C20.252 4.5 21.499 5.73957 21.499 7.25686V7.25706L21.4998 9.3964C20.2619 9.62715 19.3233 10.6991 19.3233 12.001C19.3233 13.3033 20.2622 14.3742 21.5 14.6047V16.7431C21.5 18.2605 20.254 19.5 18.7021 19.5H14.3497V17.7601C14.3497 17.484 14.1258 17.2601 13.8497 17.2601C13.5736 17.2601 13.3497 17.484 13.3497 17.7601V19.5H5.29787C3.74603 19.5 2.5 18.2605 2.5 16.7431V14.6047C3.73778 14.3742 4.67668 13.3033 4.67668 12.001C4.67668 10.6789 3.72092 9.69183 2.50018 9.47807L2.50104 7.25705V7.25686ZM13.8497 9.00361C14.1258 9.00361 14.3497 9.22746 14.3497 9.50361V14.3246C14.3497 14.6007 14.1258 14.8246 13.8497 14.8246C13.5736 14.8246 13.3497 14.6007 13.3497 14.3246V9.50361C13.3497 9.22746 13.5736 9.00361 13.8497 9.00361Z" fill="#FFFAE5"/>
</svg>
