<svg width="0" height="0" class="hidden">
  <symbol fill="none" xmlns="http://www.w3.org/2000/svg" viewBox="0 0 12 9" id="check">
    <path fill-rule="evenodd" clip-rule="evenodd" d="M11.3962 1.432L4.54425 8.11265L0 3.682L1.3962 2.25L4.54425 5.31935L10 0L11.3962 1.432Z" fill="black"></path>
  </symbol>
  <symbol xmlns="http://www.w3.org/2000/svg" viewBox="0 0 24 24" id="client">
    <path fill-rule="evenodd" clip-rule="evenodd" d="M11.9378 14.7095C15.1846 14.7095 17.9584 15.2009 17.9584 17.1671C17.9584 19.1325 15.2029 19.6421 11.9378 19.6421C8.69002 19.6421 5.9171 19.1508 5.9171 17.1845C5.9171 15.2183 8.6726 14.7095 11.9378 14.7095Z" stroke-linecap="round" stroke-linejoin="round"></path>
    <path fill-rule="evenodd" clip-rule="evenodd" d="M11.9378 11.9049C9.79643 11.9049 8.07951 10.188 8.07951 8.04575C8.07951 5.90442 9.79643 4.1875 11.9378 4.1875C14.0791 4.1875 15.796 5.90442 15.796 8.04575C15.796 10.188 14.0791 11.9049 11.9378 11.9049Z" stroke-linecap="round" stroke-linejoin="round"></path>
  </symbol>
  <symbol xmlns="http://www.w3.org/2000/svg" viewBox="0 0 15 15" id="close">
    <path fill-rule="evenodd" clip-rule="evenodd" d="M5.83574 7.24995L0.292847 1.70706L1.70706 0.292847L7.24995 5.83574L12.7928 0.292847L14.2071 1.70706L8.66417 7.24995L14.2071 12.7928L12.7928 14.2071L7.24995 8.66417L1.70706 14.2071L0.292847 12.7928L5.83574 7.24995Z"></path>
  </symbol>
  <symbol fill="none" xmlns="http://www.w3.org/2000/svg" viewBox="0 0 11 7" id="drop">
    <path fill-rule="evenodd" clip-rule="evenodd" d="M0.292969 1.70708L1.70718 0.292864L5.50008 4.08576L9.29297 0.292864L10.7072 1.70708L5.50008 6.91418L0.292969 1.70708Z" fill="black"></path>
  </symbol>
  <symbol xmlns="http://www.w3.org/2000/svg" viewBox="0 0 24 24" id="feedback">
    <path fill-rule="evenodd" clip-rule="evenodd" d="M12.7141 3.44083L15.0301 8.09983C15.1461 8.33483 15.3701 8.49883 15.6301 8.53683L20.8151 9.28583C21.0251 9.31383 21.2141 9.42383 21.3431 9.59183C21.5851 9.90683 21.5481 10.3528 21.2581 10.6238L17.5001 14.2578C17.3091 14.4378 17.2241 14.7018 17.2741 14.9588L18.1741 20.0868C18.2371 20.5118 17.9471 20.9098 17.5221 20.9788C17.3461 21.0058 17.1661 20.9778 17.0061 20.8988L12.3881 18.4778C12.1561 18.3518 11.8781 18.3518 11.6461 18.4778L6.99413 20.9118C6.60513 21.1098 6.12913 20.9628 5.91713 20.5818C5.83613 20.4278 5.80813 20.2528 5.83613 20.0818L6.73613 14.9538C6.78113 14.6978 6.69613 14.4348 6.51013 14.2538L2.73213 10.6208C2.42413 10.3148 2.42213 9.81683 2.72913 9.50883C2.73013 9.50783 2.73113 9.50583 2.73213 9.50483C2.85913 9.38983 3.01513 9.31283 3.18413 9.28283L8.37013 8.53383C8.62913 8.49283 8.85213 8.33083 8.97013 8.09583L11.2841 3.44083C11.3771 3.25183 11.5421 3.10683 11.7421 3.04083C11.9431 2.97383 12.1631 2.98983 12.3521 3.08483C12.5071 3.16183 12.6341 3.28683 12.7141 3.44083Z" stroke-linecap="round" stroke-linejoin="round"></path>
  </symbol>
  <symbol xmlns="http://www.w3.org/2000/svg" viewBox="0 0 24 24" id="home">
    <path d="M19.6585 9.37487L12.6585 3.24987C12.2815 2.91997 11.7185 2.91997 11.3415 3.24986L4.3415 9.37487C4.12448 9.56475 4 9.83908 4 10.1274V18.9999C4 19.5522 4.44772 19.9999 5 19.9999H9C9.55228 19.9999 10 19.5522 10 18.9999V14.9999C10 14.4476 10.4477 13.9999 11 13.9999H13C13.5523 13.9999 14 14.4476 14 14.9999V18.9999C14 19.5522 14.4477 19.9999 15 19.9999H19C19.5523 19.9999 20 19.5522 20 18.9999V10.1274C20 9.83908 19.8755 9.56475 19.6585 9.37487Z" stroke-width="1.5" stroke-linecap="round" stroke-linejoin="round"></path>
  </symbol>
  <symbol xmlns="http://www.w3.org/2000/svg" viewBox="0 0 24 24" id="math">
    <path d="M7.37142 10.2017V17.0619" stroke-linecap="round" stroke-linejoin="round"></path>
    <path d="M12.0381 6.91913V17.0618" stroke-linecap="round" stroke-linejoin="round"></path>
    <path d="M16.6286 13.8268V17.0619" stroke-linecap="round" stroke-linejoin="round"></path>
    <path fill-rule="evenodd" clip-rule="evenodd" d="M16.6857 2H7.31429C4.04762 2 2 4.31208 2 7.58516V16.4148C2 19.6879 4.0381 22 7.31429 22H16.6857C19.9619 22 22 19.6879 22 16.4148V7.58516C22 4.31208 19.9619 2 16.6857 2Z" stroke-linecap="round" stroke-linejoin="round"></path>
  </symbol>
  <symbol fill="none" xmlns="http://www.w3.org/2000/svg" viewBox="0 0 24 23" id="mess">
    <path fill-rule="evenodd" clip-rule="evenodd" d="M3.50083 12.8185V12.6149C3.53295 12.0125 3.7406 11.4289 4.10236 10.9241C4.7045 10.3178 5.1167 9.5748 5.29571 8.77306C5.29571 8.1534 5.29571 7.5249 5.35393 6.90525C5.65469 3.92206 8.82728 1.8595 11.9611 1.8595H12.0387C15.1725 1.8595 18.345 3.92206 18.6555 6.90525C18.7137 7.5249 18.6555 8.1534 18.704 8.77306C18.8854 9.57666 19.2972 10.322 19.8974 10.933C20.2618 11.4333 20.4698 12.0148 20.4989 12.6149V12.8097C20.5206 13.6189 20.2208 14.4081 19.6548 15.0316C18.907 15.7606 17.8921 16.2141 16.8024 16.3063C13.607 16.625 10.383 16.625 7.18762 16.3063C6.09914 16.2101 5.08576 15.7572 4.33521 15.0316C3.778 14.4076 3.48224 13.6232 3.50083 12.8185Z" stroke="#0E0B00" stroke-width="1.5" stroke-linecap="round" stroke-linejoin="round"></path>
    <path d="M9.55493 19.3868C10.0542 19.9695 10.7874 20.3466 11.5922 20.4346C12.3971 20.5227 13.2072 20.3144 13.8433 19.856C14.0389 19.7204 14.2149 19.5628 14.3672 19.3868" stroke="#0E0B00" stroke-width="1.5" stroke-linecap="round" stroke-linejoin="round"></path>
  </symbol>
  <symbol fill="none" xmlns="http://www.w3.org/2000/svg" viewBox="0 0 19 20" id="messpc">
    <path d="M7.125 14.4584V13.4584C6.57272 13.4584 6.125 13.9061 6.125 14.4584H7.125ZM11.875 14.4584H12.875C12.875 13.9061 12.4273 13.4584 11.875 13.4584V14.4584ZM7.125 15.4584H11.875V13.4584H7.125V15.4584ZM10.875 14.4584V15.25H12.875V14.4584H10.875ZM8.125 15.25V14.4584H6.125V15.25H8.125ZM9.5 16.625C8.74061 16.625 8.125 16.0094 8.125 15.25H6.125C6.125 17.114 7.63604 18.625 9.5 18.625V16.625ZM10.875 15.25C10.875 16.0094 10.2594 16.625 9.5 16.625V18.625C11.364 18.625 12.875 17.114 12.875 15.25H10.875Z" fill="black"></path>
    <path d="M3.3985 12.6431L2.69139 11.936L2.69139 11.936L3.3985 12.6431ZM3.8029 12.2387L4.51001 12.9458L4.51001 12.9458L3.8029 12.2387ZM15.197 12.2387L15.9041 11.5316L15.9041 11.5316L15.197 12.2387ZM15.6014 12.6431L16.3085 11.936L16.3085 11.936L15.6014 12.6431ZM9.49995 3.375L9.49995 4.375L9.49995 3.375ZM15.0416 13.4583H3.95829V15.4583H15.0416V13.4583ZM4.16663 13.6667V13.2029H2.16663V13.6667H4.16663ZM4.10561 13.3502L4.51001 12.9458L3.0958 11.5316L2.69139 11.936L4.10561 13.3502ZM4.95829 11.8636V8.91667H2.95829V11.8636H4.95829ZM14.0416 8.91667V11.8636H16.0416V8.91667H14.0416ZM14.4899 12.9458L14.8943 13.3502L16.3085 11.936L15.9041 11.5316L14.4899 12.9458ZM14.8333 13.2029V13.6667H16.8333V13.2029H14.8333ZM14.8943 13.3502C14.8552 13.3112 14.8333 13.2582 14.8333 13.2029H16.8333C16.8333 12.7278 16.6445 12.272 16.3085 11.936L14.8943 13.3502ZM14.0416 11.8636C14.0416 12.2695 14.2029 12.6588 14.4899 12.9458L15.9041 11.5316C15.9922 11.6197 16.0416 11.7391 16.0416 11.8636H14.0416ZM16.0416 8.91667C16.0416 5.3038 13.1128 2.37499 9.49994 2.375L9.49995 4.375C12.0082 4.37499 14.0416 6.40837 14.0416 8.91667H16.0416ZM4.95829 8.91667C4.95829 6.40838 6.99166 4.37501 9.49995 4.375L9.49994 2.375C5.88709 2.37501 2.95829 5.30381 2.95829 8.91667H4.95829ZM4.51001 12.9458C4.79704 12.6588 4.95829 12.2695 4.95829 11.8636H2.95829C2.95829 11.7391 3.00775 11.6197 3.09579 11.5316L4.51001 12.9458ZM4.16663 13.2029C4.16663 13.2582 4.14468 13.3112 4.10561 13.3502L2.69139 11.936C2.35539 12.272 2.16663 12.7278 2.16663 13.2029H4.16663ZM3.95829 13.4583C4.07335 13.4583 4.16663 13.5516 4.16663 13.6667H2.16663C2.16663 14.6562 2.96878 15.4583 3.95829 15.4583V13.4583ZM15.0416 15.4583C16.0311 15.4583 16.8333 14.6562 16.8333 13.6667H14.8333C14.8333 13.5516 14.9266 13.4583 15.0416 13.4583V15.4583Z" fill="black"></path>
    <circle cx="13.5" cy="4.5" r="4.5" fill="#FF8181"></circle>
  </symbol>
  <symbol fill="none" xmlns="http://www.w3.org/2000/svg" viewBox="0 0 25 25" id="plus">
    <path fill-rule="evenodd" clip-rule="evenodd" d="M12.0205 0.62132C12.8489 0.62132 13.5205 1.29289 13.5205 2.12132L13.5205 10.5208L21.92 10.5208C22.7484 10.5208 23.42 11.1924 23.42 12.0208C23.42 12.8492 22.7484 13.5208 21.92 13.5208L13.5205 13.5208L13.5205 21.9203C13.5205 22.7487 12.8489 23.4203 12.0205 23.4203C11.1921 23.4203 10.5205 22.7487 10.5205 21.9203L10.5205 13.5208L2.12101 13.5208C1.29259 13.5208 0.621014 12.8492 0.621014 12.0208C0.621014 11.1924 1.29259 10.5208 2.12101 10.5208L10.5205 10.5208L10.5205 2.12132C10.5205 1.29289 11.1921 0.62132 12.0205 0.62132Z" fill="#CCCCCC"></path>
  </symbol>
  <symbol fill="none" xmlns="http://www.w3.org/2000/svg" viewBox="0 0 24 24" id="referal">
    <path fill-rule="evenodd" clip-rule="evenodd" d="M10.3661 4C7.98211 4 6.06775 5.91408 6.06775 8.29839C6.06775 10.6822 7.98237 12.5968 10.3661 12.5968C12.7505 12.5968 14.6645 10.6824 14.6645 8.29839C14.6645 5.91382 12.7507 4 10.3661 4ZM10.3666 5.21242C12.0816 5.21242 13.4526 6.58342 13.4526 8.29841C13.4526 10.0129 12.0813 11.3844 10.3666 11.3844C8.65244 11.3844 7.28063 10.0126 7.28063 8.29841C7.28063 6.58372 8.65214 5.21242 10.3666 5.21242ZM10.3667 14.0681C6.30105 14.0681 3.99991 14.8395 3.99991 17.0255C3.99991 19.2139 6.31126 20 10.3667 20L10.8868 19.9955C14.6271 19.9302 16.7334 19.1329 16.7334 17.0425C16.7334 14.9017 14.5215 14.1029 10.6287 14.0692L10.3667 14.0681ZM10.3672 15.2805C13.7631 15.2805 15.5215 15.8785 15.5215 17.0426C15.5215 18.1994 13.7674 18.7876 10.3672 18.7876C6.97125 18.7876 5.21282 18.1896 5.21282 17.0256C5.21282 15.8996 6.8725 15.3127 10.095 15.2818L10.3672 15.2805ZM17.9057 8.78435C18.2126 8.78435 18.4662 9.01241 18.5063 9.3083L18.5119 9.39056V10.4048H19.5585C19.8933 10.4048 20.1647 10.6762 20.1647 11.011C20.1647 11.3179 19.9367 11.5715 19.6408 11.6116L19.5585 11.6172H18.5119V12.6317C18.5119 12.9665 18.2405 13.2379 17.9057 13.2379C17.5988 13.2379 17.3451 13.0099 17.305 12.714L17.2995 12.6317V11.6172H16.2527C15.9179 11.6172 15.6465 11.3458 15.6465 11.011C15.6465 10.7041 15.8745 10.4504 16.1704 10.4103L16.2527 10.4048H17.2995V9.39056C17.2995 9.05576 17.5709 8.78435 17.9057 8.78435Z" fill="#FFFAE5"></path>
  </symbol>
  <symbol xmlns="http://www.w3.org/2000/svg" viewBox="0 0 24 24" id="resale">
    <path fill-rule="evenodd" clip-rule="evenodd" d="M16.2855 2H19.5521C20.9036 2 22 3.1059 22 4.47018V7.7641C22 9.12735 20.9036 10.2343 19.5521 10.2343H16.2855C14.933 10.2343 13.8366 9.12735 13.8366 7.7641V4.47018C13.8366 3.1059 14.933 2 16.2855 2Z" stroke-linecap="round" stroke-linejoin="round"></path>
    <path fill-rule="evenodd" clip-rule="evenodd" d="M4.44892 2H7.71449C9.06703 2 10.1634 3.1059 10.1634 4.47018V7.7641C10.1634 9.12735 9.06703 10.2343 7.71449 10.2343H4.44892C3.09638 10.2343 2 9.12735 2 7.7641V4.47018C2 3.1059 3.09638 2 4.44892 2Z" stroke-linecap="round" stroke-linejoin="round"></path>
    <path fill-rule="evenodd" clip-rule="evenodd" d="M4.44892 13.7657H7.71449C9.06703 13.7657 10.1634 14.8716 10.1634 16.2369V19.5298C10.1634 20.8941 9.06703 22 7.71449 22H4.44892C3.09638 22 2 20.8941 2 19.5298V16.2369C2 14.8716 3.09638 13.7657 4.44892 13.7657Z" stroke-linecap="round" stroke-linejoin="round"></path>
    <path fill-rule="evenodd" clip-rule="evenodd" d="M16.2855 13.7657H19.5521C20.9036 13.7657 22 14.8716 22 16.2369V19.5298C22 20.8941 20.9036 22 19.5521 22H16.2855C14.933 22 13.8366 20.8941 13.8366 19.5298V16.2369C13.8366 14.8716 14.933 13.7657 16.2855 13.7657Z" stroke-linecap="round" stroke-linejoin="round"></path>
  </symbol>
  <symbol xmlns="http://www.w3.org/2000/svg" viewBox="0 0 24 24" id="sale">
    <path d="M4.7943 7.05581C4.7943 5.80681 5.8073 4.79381 7.0553 4.79381H8.0843C8.6803 4.79381 9.2533 4.55781 9.6773 4.13681L10.3963 3.41681C11.2773 2.53181 12.7093 2.52781 13.5943 3.40881L13.6033 3.41681L14.3233 4.13681C14.7463 4.55781 15.3193 4.79381 15.9163 4.79381H16.9443C18.1933 4.79381 19.2063 5.80681 19.2063 7.05581V8.08281C19.2063 8.68081 19.4423 9.25281 19.8633 9.67681L20.5833 10.3968C21.4683 11.2778 21.4733 12.7088 20.5923 13.5948L20.5833 13.6038L19.8633 14.3238C19.4423 14.7458 19.2063 15.3198 19.2063 15.9158V16.9448C19.2063 18.1938 18.1933 19.2058 16.9443 19.2058H15.9163C15.3193 19.2058 14.7463 19.4428 14.3233 19.8638L13.6033 20.5828C12.7233 21.4688 11.2913 21.4728 10.4053 20.5918C10.4023 20.5888 10.3993 20.5858 10.3963 20.5828L9.6773 19.8638C9.2533 19.4428 8.6803 19.2058 8.0843 19.2058H7.0553C5.8073 19.2058 4.7943 18.1938 4.7943 16.9448V15.9158C4.7943 15.3198 4.5573 14.7458 4.1363 14.3238L3.4173 13.6038C2.5313 12.7228 2.5273 11.2908 3.4083 10.4058L3.4173 10.3968L4.1363 9.67681C4.5573 9.25281 4.7943 8.68081 4.7943 8.08281V7.05581" stroke-linecap="round" stroke-linejoin="round"></path>
    <path d="M9.43001 14.5695L14.57 9.4295" stroke-linecap="round" stroke-linejoin="round"></path>
    <path d="M14.5667 15.3224C14.3667 15.3224 14.1767 15.2424 14.0367 15.1024C13.9667 15.0324 13.9167 14.9424 13.8767 14.8524C13.8367 14.7624 13.8167 14.6734 13.8167 14.5724C13.8167 14.4724 13.8367 14.3724 13.8767 14.2824C13.9167 14.1924 13.9667 14.1124 14.0367 14.0424C14.3167 13.7624 14.8167 13.7624 15.0967 14.0424C15.1667 14.1124 15.2267 14.1924 15.2667 14.2824C15.2967 14.3724 15.3167 14.4724 15.3167 14.5724C15.3167 14.6734 15.2967 14.7624 15.2667 14.8524C15.2267 14.9424 15.1667 15.0324 15.0967 15.1024C14.9567 15.2424 14.7667 15.3224 14.5667 15.3224" fill="#FFFAE5"></path>
    <path d="M9.42661 10.1828C9.32661 10.1828 9.23661 10.1618 9.14661 10.1218C9.05661 10.0818 8.96661 10.0328 8.89661 9.96283C8.82661 9.88283 8.77661 9.80283 8.73661 9.71283C8.69661 9.62183 8.67661 9.53283 8.67661 9.43283C8.67661 9.33183 8.69661 9.23283 8.73661 9.14283C8.77661 9.05283 8.82661 8.96283 8.89661 8.90283C9.18661 8.62183 9.67661 8.62183 9.95661 8.90283C10.0966 9.04183 10.1766 9.23283 10.1766 9.43283C10.1766 9.53283 10.1666 9.62183 10.1266 9.71283C10.0866 9.80283 10.0266 9.88283 9.95661 9.96283C9.88661 10.0328 9.80661 10.0818 9.71661 10.1218C9.62661 10.1618 9.52661 10.1828 9.42661 10.1828" fill="#FFFAE5"></path>
  </symbol>
  <symbol fill="none" xmlns="http://www.w3.org/2000/svg" viewBox="0 0 17 17" id="search">
    <circle cx="10.1429" cy="6.85714" r="5.85714" transform="rotate(90 10.1429 6.85714)" stroke-width="2"></circle>
    <path d="M6.14294 10.8572L1.00009 16" stroke-width="2"></path>
  </symbol>
  <symbol fill="none" xmlns="http://www.w3.org/2000/svg" viewBox="0 0 17 17" id="search-mob">
    <circle cx="10.1429" cy="6.85714" r="5.85714" transform="rotate(90 10.1429 6.85714)" stroke-width="1"></circle>
    <path d="M6.14294 10.8572L1.00009 16" stroke-width="1"></path>
  </symbol>
  <symbol xmlns="http://www.w3.org/2000/svg" viewBox="0 0 24 24" id="setting">
    <path fill-rule="evenodd" clip-rule="evenodd" d="M20.8066 7.62355L20.1842 6.54346C19.6576 5.62954 18.4907 5.31426 17.5755 5.83866V5.83866C17.1399 6.09528 16.6201 6.16809 16.1307 6.04103C15.6413 5.91396 15.2226 5.59746 14.9668 5.16131C14.8023 4.88409 14.7139 4.56833 14.7105 4.24598V4.24598C14.7254 3.72916 14.5304 3.22834 14.17 2.85761C13.8096 2.48688 13.3145 2.2778 12.7975 2.27802H11.5435C11.037 2.27801 10.5513 2.47985 10.194 2.83888C9.83667 3.19791 9.63716 3.68453 9.63959 4.19106V4.19106C9.62458 5.23686 8.77246 6.07675 7.72655 6.07664C7.4042 6.07329 7.08844 5.98488 6.81122 5.82035V5.82035C5.89605 5.29595 4.7291 5.61123 4.20252 6.52516L3.53433 7.62355C3.00839 8.53633 3.31938 9.70255 4.22998 10.2322V10.2322C4.82189 10.574 5.18652 11.2055 5.18652 11.889C5.18652 12.5725 4.82189 13.204 4.22998 13.5457V13.5457C3.32054 14.0719 3.00921 15.2353 3.53433 16.1453V16.1453L4.16591 17.2345C4.41263 17.6797 4.82659 18.0082 5.31618 18.1474C5.80577 18.2865 6.33062 18.2248 6.77461 17.976V17.976C7.21106 17.7213 7.73117 17.6515 8.21932 17.7821C8.70748 17.9128 9.12322 18.233 9.37415 18.6716C9.53868 18.9488 9.62709 19.2646 9.63044 19.5869V19.5869C9.63044 20.6435 10.4869 21.5 11.5435 21.5H12.7975C13.8505 21.5 14.7055 20.6491 14.7105 19.5961V19.5961C14.7081 19.088 14.9089 18.6 15.2681 18.2407C15.6274 17.8814 16.1155 17.6806 16.6236 17.6831C16.9452 17.6917 17.2596 17.7797 17.5389 17.9393V17.9393C18.4517 18.4653 19.6179 18.1543 20.1476 17.2437V17.2437L20.8066 16.1453C21.0617 15.7074 21.1318 15.1859 21.0012 14.6963C20.8706 14.2067 20.5502 13.7893 20.111 13.5366V13.5366C19.6717 13.2839 19.3514 12.8665 19.2208 12.3769C19.0902 11.8872 19.1602 11.3658 19.4153 10.9279C19.5812 10.6383 19.8214 10.3981 20.111 10.2322V10.2322C21.0161 9.70283 21.3264 8.54343 20.8066 7.63271V7.63271V7.62355Z" stroke-linecap="round" stroke-linejoin="round"></path>
    <circle cx="12.1751" cy="11.889" r="2.63616" stroke-linecap="round" stroke-linejoin="round"></circle>
  </symbol>
  <symbol fill="none" xmlns="http://www.w3.org/2000/svg" viewBox="0 0 24 24" id="support">
    <path fill-rule="evenodd" clip-rule="evenodd" d="M1.99989 12.0002C1.99989 6.478 6.47768 2.00021 11.9999 2.00021C17.5228 2.00021 21.9999 6.47767 21.9999 12.0002C21.9999 17.5228 17.5228 22.0002 11.9999 22.0002C6.47768 22.0002 1.99989 17.5224 1.99989 12.0002ZM20.4999 12.0002C20.4999 7.30607 16.6943 3.50021 11.9999 3.50021C7.30611 3.50021 3.49989 7.30643 3.49989 12.0002C3.49989 16.694 7.30611 20.5002 11.9999 20.5002C16.6943 20.5002 20.4999 16.6944 20.4999 12.0002ZM11.995 7.45431C12.3747 7.45431 12.6885 7.73647 12.7381 8.10254L12.745 8.20431V12.6233C12.745 13.0375 12.4092 13.3733 11.995 13.3733C11.6153 13.3733 11.3015 13.0912 11.2518 12.7251L11.245 12.6233V8.20431C11.245 7.7901 11.5808 7.45431 11.995 7.45431ZM12.755 15.7961C12.755 15.3819 12.4192 15.0461 12.005 15.0461L11.8932 15.053C11.5271 15.1026 11.245 15.4164 11.245 15.7961C11.245 16.2103 11.5808 16.5461 11.995 16.5461L12.1068 16.5393C12.4728 16.4896 12.755 16.1758 12.755 15.7961Z" fill="#FFFAE5"></path>
  </symbol>
  <symbol xmlns="http://www.w3.org/2000/svg" viewBox="0 0 24 24" id="ticket">
    <path stroke="#FFFAE5" d="M13.8497 4.25031V6.67031" stroke-linecap="round" stroke-linejoin="round"></path>
    <path stroke="#FFFAE5" d="M13.8497 17.7601V19.7841" stroke-linecap="round" stroke-linejoin="round"></path>
    <path stroke="#FFFAE5" d="M13.8497 14.3246V9.5036" stroke-linecap="round" stroke-linejoin="round"></path>
    <path fill-rule="evenodd" clip-rule="evenodd" d="M18.7021 20C20.5242 20 22 18.5426 22 16.7431V14.1506C20.7943 14.1506 19.8233 13.1917 19.8233 12.001C19.8233 10.8104 20.7943 9.85039 22 9.85039L21.999 7.25686C21.999 5.45745 20.5221 4 18.7011 4H5.29892C3.47789 4 2.00104 5.45745 2.00104 7.25686L2 9.93485C3.20567 9.93485 4.17668 10.8104 4.17668 12.001C4.17668 13.1917 3.20567 14.1506 2 14.1506V16.7431C2 18.5426 3.4758 20 5.29787 20H18.7021Z" stroke-linecap="round" stroke="FFFAE5" stroke-linejoin="round"></path>
  </symbol>
  <symbol fill="none" xmlns="http://www.w3.org/2000/svg" viewBox="0 0 18 21" id="planning">
    <path fill-rule="evenodd" clip-rule="evenodd" d="M13.1194 0.884399C13.1194 0.470186 12.7836 0.134399 12.3694 0.134399C11.9552 0.134399 11.6194 0.470186 11.6194 0.884399V1.62228H6.38792V0.884399C6.38792 0.470186 6.05214 0.134399 5.63792 0.134399C5.22371 0.134399 4.88792 0.470186 4.88792 0.884399V1.64991C3.74899 1.75944 2.75628 2.19607 2.0211 2.98621C1.1684 3.90267 0.75 5.2002 0.75 6.74683V15.2732C0.75 16.8392 1.16674 18.1545 2.01619 19.0853C2.87372 20.025 4.08573 20.4779 5.4758 20.4779H12.5242C13.9136 20.4779 15.1248 20.0346 15.9829 19.1083C16.8341 18.1895 17.25 16.8901 17.25 15.3445V6.7478C17.254 5.20221 16.8403 3.90423 15.9892 2.98698C15.2549 2.19549 14.2611 1.75895 13.1194 1.64974V0.884399ZM11.6194 3.12228V3.9849C11.6194 4.39911 11.9552 4.7349 12.3694 4.7349C12.7836 4.7349 13.1194 4.39911 13.1194 3.9849V3.1587C13.8898 3.25871 14.4748 3.56014 14.8896 4.00722C15.4106 4.56874 15.7535 5.45764 15.75 6.74479L15.75 6.74683V7.11052H2.25V6.74683C2.25 5.46025 2.59588 4.57051 3.11927 4.00799C3.53568 3.56045 4.12085 3.25925 4.88792 3.15899V3.9849C4.88792 4.39911 5.22371 4.7349 5.63792 4.7349C6.05214 4.7349 6.38792 4.39911 6.38792 3.9849V3.12228H11.6194ZM2.25 8.61052V15.2732C2.25 16.585 2.59754 17.4971 3.12418 18.0742C3.64274 18.6424 4.41864 18.9779 5.4758 18.9779H12.5242C13.5897 18.9779 14.3664 18.6461 14.8825 18.089C15.4055 17.5244 15.75 16.6321 15.75 15.3445V8.61052H2.25ZM12.7015 10.7901C12.2873 10.7901 11.9515 11.1259 11.9515 11.5401C11.9515 11.9544 12.2873 12.2901 12.7015 12.2901H12.7092C13.1234 12.2901 13.4592 11.9544 13.4592 11.5401C13.4592 11.1259 13.1234 10.7901 12.7092 10.7901H12.7015ZM8.25421 11.5401C8.25421 11.1259 8.59 10.7901 9.00421 10.7901H9.01193C9.42614 10.7901 9.76193 11.1259 9.76193 11.5401C9.76193 11.9544 9.42614 12.2901 9.01193 12.2901H9.00421C8.59 12.2901 8.25421 11.9544 8.25421 11.5401ZM5.29824 10.7901C4.88403 10.7901 4.54824 11.1259 4.54824 11.5401C4.54824 11.9543 4.88403 12.2901 5.29824 12.2901H5.30596C5.72018 12.2901 6.05596 11.9543 6.05596 11.5401C6.05596 11.1259 5.72018 10.7901 5.30596 10.7901H5.29824ZM11.9515 15.2019C11.9515 14.7877 12.2873 14.4519 12.7015 14.4519H12.7092C13.1234 14.4519 13.4592 14.7877 13.4592 15.2019C13.4592 15.6162 13.1234 15.9519 12.7092 15.9519H12.7015C12.2873 15.9519 11.9515 15.6162 11.9515 15.2019ZM9.00421 14.4519C8.59 14.4519 8.25421 14.7877 8.25421 15.2019C8.25421 15.6162 8.59 15.9519 9.00421 15.9519H9.01193C9.42614 15.9519 9.76193 15.6162 9.76193 15.2019C9.76193 14.7877 9.42614 14.4519 9.01193 14.4519H9.00421ZM4.54824 15.2019C4.54824 14.7877 4.88403 14.4519 5.29824 14.4519H5.30596C5.72018 14.4519 6.05596 14.7877 6.05596 15.2019C6.05596 15.6161 5.72018 15.9519 5.30596 15.9519H5.29824C4.88403 15.9519 4.54824 15.6161 4.54824 15.2019Z" fill="#200E32"></path>
  </symbol>
  <symbol fill="none" xmlns="http://www.w3.org/2000/svg" viewBox="0 0 14 14" id="arrow">
    <path d="M2 1H13M13 1V12M13 1L1 13" stroke="black" stroke-width="2"/>
    <rect x="13" width="1" height="1" fill="black"/>
  </symbol>
  <symbol fill="none" xmlns="http://www.w3.org/2000/svg" viewBox="0 0 30 30" id="bars">
    <path d="M4.68677 9.37439H25.3118" stroke="black" stroke-width="1.5" stroke-miterlimit="10" stroke-linecap="round"></path>
    <path d="M4.68677 14.9996H25.3118" stroke="black" stroke-width="1.5" stroke-miterlimit="10" stroke-linecap="round"></path>
    <path d="M4.68677 20.6246H25.3118" stroke="black" stroke-width="1.5" stroke-miterlimit="10" stroke-linecap="round"></path>
  </symbol>
  <symbol xmlns="http://www.w3.org/2000/svg" viewBox="0 0 24 24" id="blog">
    <path d="M15.7162 16.2234H8.4962" stroke-linecap="round" stroke-linejoin="round"></path>
    <path d="M15.7162 12.0369H8.4962" stroke-linecap="round" stroke-linejoin="round"></path>
    <path d="M11.2513 7.86011H8.49629" stroke-linecap="round" stroke-linejoin="round"></path>
    <path fill-rule="evenodd" clip-rule="evenodd" d="M15.9086 2.74982C15.9086 2.74982 8.23159 2.75382 8.21959 2.75382C5.45959 2.77082 3.7506 4.58682 3.7506 7.35682V16.5528C3.7506 19.3368 5.4726 21.1598 8.2566 21.1598C8.2566 21.1598 15.9326 21.1568 15.9456 21.1568C18.7056 21.1398 20.4156 19.3228 20.4156 16.5528V7.35682C20.4156 4.57282 18.6926 2.74982 15.9086 2.74982Z" stroke-linecap="round" stroke-linejoin="round"></path>
  </symbol>
  <symbol xmlns="http://www.w3.org/2000/svg" viewBox="0 0 24 24" id="chat">
    <path d="M7.18497 19.605L7.45283 19.1828C7.3259 19.1023 7.16947 19.0831 7.02685 19.1307L7.18497 19.605ZM3 21L2.52566 20.8419C2.46577 21.0216 2.51253 21.2196 2.64645 21.3536C2.78036 21.4875 2.97845 21.5342 3.15811 21.4743L3 21ZM4.39499 16.815L4.86933 16.9731C4.91687 16.8305 4.89772 16.6741 4.81718 16.5472L4.39499 16.815ZM12 21.5C17.2467 21.5 21.5 17.2467 21.5 12H20.5C20.5 16.6944 16.6944 20.5 12 20.5V21.5ZM6.9171 20.0272C8.38722 20.9599 10.1313 21.5 12 21.5V20.5C10.3266 20.5 8.7675 20.0169 7.45283 19.1828L6.9171 20.0272ZM7.02685 19.1307L2.84189 20.5257L3.15811 21.4743L7.34308 20.0794L7.02685 19.1307ZM3.47434 21.1581L4.86933 16.9731L3.92065 16.6569L2.52566 20.8419L3.47434 21.1581ZM2.5 12C2.5 13.8687 3.04005 15.6128 3.9728 17.0829L4.81718 16.5472C3.98307 15.2325 3.5 13.6734 3.5 12H2.5ZM12 2.5C6.75329 2.5 2.5 6.75329 2.5 12H3.5C3.5 7.30558 7.30558 3.5 12 3.5V2.5ZM21.5 12C21.5 6.75329 17.2467 2.5 12 2.5V3.5C16.6944 3.5 20.5 7.30558 20.5 12H21.5Z"></path>
    <path d="M16 12H16.002V12.002H16V12Z" stroke-width="2" stroke-linecap="round" stroke-linejoin="round"></path>
    <path d="M12 12H12.002V12.002H12V12Z" stroke-width="2" stroke-linecap="round" stroke-linejoin="round"></path>
    <path d="M8 12H8.002V12.002H8V12Z" stroke-width="2" stroke-linecap="round" stroke-linejoin="round"></path>
  </symbol>
  <symbol xmlns="http://www.w3.org/2000/svg" viewBox="0 0 24 24" id="exit">
    <path d="M13.6217 9.06323V8.44435C13.6217 7.09448 12.5272 6 11.1774 6H7.94368C6.59448 6 5.5 7.09448 5.5 8.44435V15.8271C5.5 17.177 6.59448 18.2715 7.94368 18.2715H11.184C12.5299 18.2715 13.6217 17.1803 13.6217 15.8344V15.2089" stroke="#FFFAE5" stroke-linecap="round" stroke-linejoin="round"/>
      <path d="M18.1282 12.1357H10.1411" stroke="#FFFAE5" stroke-linecap="round" stroke-linejoin="round"/>
      <path d="M16.1858 10.2021L18.128 12.1357L16.1858 14.07" stroke="#FFFAE5" stroke-linecap="round" stroke-linejoin="round"/>
  </symbol>
  <symbol fill="none" xmlns="http://www.w3.org/2000/svg" viewBox="0 0 23 22" id="read">
    <path d="M6.59766 10.9L11.1349 15.396L20.8576 5.76172" stroke="#5CC89A" stroke-width="1.5" stroke-linecap="round" stroke-linejoin="round"/>
    <path d="M2.06055 10.9456L6.59782 15.4416M11.4592 10.6245L16.3205 5.80737" stroke="#5CC89A" stroke-width="1.5" stroke-linecap="round" stroke-linejoin="round"/>
  </symbol>
  <symbol fill="none" xmlns="http://www.w3.org/2000/svg" viewBox="0 0 22 22" id="unread">
    <path d="M4 10.7273L8.13636 14.8636L17 6" stroke="#D9D5D5" stroke-linecap="round" stroke-linejoin="round"/>
  </symbol>
  <symbol fill="none" xmlns="http://www.w3.org/2000/svg" viewBox="0 0 12 12" id="arrow-top">
    <path fill-rule="evenodd" clip-rule="evenodd" d="M5.99904 0.654541L10.668 4.85661L9.33008 6.3432L6.99904 4.24527V9.9999H4.99904V4.24527L2.66801 6.3432L1.33008 4.85661L5.99904 0.654541Z" fill="#EFF3F5"/>
  </symbol>
  <symbol fill="none" xmlns="http://www.w3.org/2000/svg" viewBox="0 0 33 33" id="papka">
    <path d="M26.9517 26.9515L26.9517 25.9515H26.9517L26.9517 26.9515ZM5.39054 26.9515L5.39054 27.9515H5.39054L5.39054 26.9515ZM4.04297 25.6039L5.04297 25.6039L5.04297 25.6039L4.04297 25.6039ZM4.04297 8.08545L4.04297 7.08545C3.77775 7.08545 3.5234 7.19081 3.33586 7.37834C3.14833 7.56588 3.04297 7.82023 3.04297 8.08545L4.04297 8.08545ZM26.9517 8.08545L26.9517 7.08545L26.9517 7.08545L26.9517 8.08545ZM28.2993 9.43302L29.2993 9.43302L29.2993 9.43302L28.2993 9.43302ZM28.2993 25.6039L27.2993 25.6039L27.2993 25.6039L28.2993 25.6039ZM26.9517 25.9515L5.39054 25.9515L5.39054 27.9515L26.9517 27.9515L26.9517 25.9515ZM5.04297 25.6039L5.04297 8.08545L3.04297 8.08545L3.04297 25.6039L5.04297 25.6039ZM4.04297 9.08545L26.9517 9.08545L26.9517 7.08545L4.04297 7.08545L4.04297 9.08545ZM26.9517 9.08545C27.1437 9.08545 27.2993 9.24106 27.2993 9.43302L29.2993 9.43302C29.2993 8.1365 28.2483 7.08545 26.9517 7.08545L26.9517 9.08545ZM5.39054 25.9515C5.19858 25.9515 5.04297 25.7959 5.04297 25.6039L3.04297 25.6039C3.04297 26.9004 4.09402 27.9515 5.39054 27.9515L5.39054 25.9515ZM26.9517 27.9515C28.2483 27.9515 29.2993 26.9004 29.2993 25.6039L27.2993 25.6039C27.2993 25.7959 27.1437 25.9515 26.9517 25.9515L26.9517 27.9515ZM27.2993 9.43302L27.2993 25.6039L29.2993 25.6039L29.2993 9.43302L27.2993 9.43302Z" fill="#B3B3B3"/>
    <path d="M16.1711 8.08553L13.8707 5.78508C13.618 5.53236 13.2752 5.39038 12.9178 5.39038H5.39054C4.6463 5.39038 4.04297 5.99371 4.04297 6.73795V8.08553" stroke="#B3B3B3" stroke-width="2" stroke-linecap="round" stroke-linejoin="round"/>
  </symbol>
  <symbol fill="none" xmlns="http://www.w3.org/2000/svg" viewBox="0 0 30 30" id="play">
    <path d="M9.375 7.5L9.61754 6.52986C9.08174 6.39591 8.53881 6.72167 8.40486 7.25746L9.375 7.5ZM9.375 22.5L8.40486 22.7425C8.53881 23.2783 9.08174 23.6041 9.61754 23.4701L9.375 22.5ZM21.875 15L22.7071 15.5547C22.931 15.2188 22.931 14.7812 22.7071 14.4453L21.875 15ZM9.375 22.5C10.3451 22.2575 10.3452 22.2577 10.3452 22.2579C10.3453 22.2579 10.3453 22.2581 10.3453 22.2582C10.3454 22.2585 10.3454 22.2586 10.3455 22.2588C10.3455 22.2591 10.3456 22.2592 10.3456 22.2592C10.3456 22.2592 10.3454 22.2585 10.3451 22.2573C10.3445 22.2548 10.3433 22.2499 10.3416 22.2425C10.3381 22.2278 10.3325 22.2033 10.325 22.1691C10.3101 22.1007 10.2877 21.9933 10.2602 21.847C10.2053 21.5543 10.1304 21.1056 10.0548 20.501C9.90363 19.2918 9.75 17.4582 9.75 15H7.75C7.75 17.5418 7.90887 19.4582 8.07022 20.749C8.15089 21.3944 8.23217 21.8832 8.29447 22.2155C8.32562 22.3817 8.35203 22.5087 8.37124 22.5965C8.38085 22.6404 8.38866 22.6746 8.39436 22.6989C8.39722 22.7111 8.39954 22.7208 8.4013 22.7281C8.40219 22.7317 8.40292 22.7347 8.40352 22.7371C8.40382 22.7383 8.40408 22.7394 8.4043 22.7403C8.40441 22.7407 8.40451 22.7412 8.40461 22.7415C8.40465 22.7417 8.40472 22.742 8.40474 22.7421C8.4048 22.7423 8.40486 22.7425 9.375 22.5ZM9.75 15C9.75 12.5418 9.90363 10.7082 10.0548 9.49903C10.1304 8.8944 10.2053 8.44575 10.2602 8.15304C10.2877 8.00668 10.3101 7.8993 10.325 7.83088C10.3325 7.79668 10.3381 7.77221 10.3416 7.75749C10.3433 7.75013 10.3445 7.7452 10.3451 7.74271C10.3454 7.74146 10.3456 7.74082 10.3456 7.7408C10.3456 7.74078 10.3455 7.74092 10.3455 7.74121C10.3454 7.74135 10.3454 7.74154 10.3453 7.74176C10.3453 7.74187 10.3453 7.74206 10.3452 7.74212C10.3452 7.74232 10.3451 7.74254 9.375 7.5C8.40486 7.25746 8.4048 7.2577 8.40474 7.25794C8.40472 7.25803 8.40465 7.25828 8.40461 7.25847C8.40451 7.25884 8.40441 7.25926 8.4043 7.25971C8.40408 7.26061 8.40382 7.26166 8.40352 7.26287C8.40292 7.26528 8.40219 7.2683 8.4013 7.27194C8.39954 7.27922 8.39722 7.28894 8.39436 7.30111C8.38866 7.32544 8.38085 7.35957 8.37124 7.40349C8.35203 7.49133 8.32562 7.61832 8.29447 7.78446C8.23217 8.11675 8.15089 8.6056 8.07022 9.25097C7.90887 10.5418 7.75 12.4582 7.75 15H9.75ZM9.375 7.5C9.13246 8.47014 9.13222 8.47008 9.13199 8.47002C9.13193 8.47001 9.1317 8.46995 9.13158 8.46992C9.13132 8.46985 9.1311 8.4698 9.13092 8.46975C9.13055 8.46966 9.13034 8.46961 9.13028 8.46959C9.13016 8.46956 9.13065 8.46969 9.13174 8.46997C9.13392 8.47053 9.13853 8.47174 9.14553 8.47361C9.15955 8.47736 9.18317 8.48381 9.21625 8.49326C9.2824 8.51216 9.38638 8.54307 9.52698 8.58843C9.80817 8.67913 10.2359 8.82765 10.8005 9.05348C11.9295 9.50509 13.6066 10.2662 15.7539 11.4932L16.7461 9.75676C14.5184 8.48378 12.758 7.68241 11.5433 7.19652C10.936 6.9536 10.4653 6.78962 10.141 6.68501C9.97885 6.63271 9.85335 6.59526 9.76569 6.57021C9.72186 6.55769 9.6875 6.54827 9.66275 6.54165C9.65038 6.53834 9.64041 6.53572 9.63287 6.53377C9.6291 6.53279 9.62594 6.53198 9.62338 6.53133C9.6221 6.53101 9.62097 6.53072 9.62 6.53048C9.61951 6.53035 9.61906 6.53024 9.61865 6.53014C9.61845 6.53009 9.61817 6.53002 9.61807 6.52999C9.6178 6.52992 9.61754 6.52986 9.375 7.5ZM15.7539 11.4932C17.8833 12.7101 19.2294 13.7617 20.0305 14.4899C20.4311 14.8541 20.6958 15.1379 20.8545 15.3216C20.9339 15.4135 20.9868 15.4804 21.0169 15.5201C21.032 15.5399 21.0414 15.5529 21.0456 15.5588C21.0477 15.5617 21.0485 15.5628 21.048 15.5622C21.0478 15.5618 21.0472 15.5611 21.0464 15.5598C21.046 15.5592 21.0455 15.5585 21.0449 15.5576C21.0446 15.5572 21.0443 15.5567 21.044 15.5562C21.0438 15.556 21.0436 15.5556 21.0435 15.5555C21.0432 15.5551 21.0429 15.5547 21.875 15C22.7071 14.4453 22.7068 14.4449 22.7065 14.4445C22.7064 14.4443 22.7061 14.4439 22.7059 14.4436C22.7055 14.443 22.7051 14.4424 22.7046 14.4417C22.7038 14.4404 22.7028 14.439 22.7018 14.4374C22.6997 14.4344 22.6973 14.4309 22.6946 14.4269C22.6891 14.419 22.6823 14.4093 22.6742 14.3979C22.6579 14.3751 22.6362 14.3454 22.6086 14.309C22.5533 14.2363 22.4743 14.1373 22.3682 14.0143C22.1557 13.7684 21.8346 13.4271 21.3758 13.0101C20.4581 12.1758 18.9917 11.0399 16.7461 9.75676L15.7539 11.4932ZM21.875 15C21.0429 14.4453 21.0432 14.4449 21.0435 14.4445C21.0436 14.4444 21.0438 14.444 21.044 14.4438C21.0443 14.4433 21.0446 14.4428 21.0449 14.4424C21.0455 14.4415 21.046 14.4408 21.0464 14.4402C21.0472 14.4389 21.0478 14.4382 21.048 14.4378C21.0485 14.4372 21.0477 14.4383 21.0456 14.4412C21.0414 14.4471 21.032 14.4601 21.0169 14.4799C20.9868 14.5196 20.9339 14.5865 20.8545 14.6784C20.6958 14.8621 20.4311 15.1459 20.0305 15.5101C19.2294 16.2383 17.8833 17.2899 15.7539 18.5068L16.7461 20.2432C18.9917 18.9601 20.4581 17.8242 21.3758 16.9899C21.8346 16.5729 22.1557 16.2316 22.3682 15.9857C22.4743 15.8627 22.5533 15.7637 22.6086 15.691C22.6362 15.6546 22.6579 15.6249 22.6742 15.6021C22.6823 15.5907 22.6891 15.581 22.6946 15.5731C22.6973 15.5691 22.6997 15.5656 22.7018 15.5626C22.7028 15.561 22.7038 15.5596 22.7046 15.5583C22.7051 15.5576 22.7055 15.557 22.7059 15.5564C22.7061 15.5561 22.7064 15.5557 22.7065 15.5555C22.7068 15.5551 22.7071 15.5547 21.875 15ZM15.7539 18.5068C13.6066 19.7338 11.9295 20.4949 10.8005 20.9465C10.2359 21.1724 9.80817 21.3209 9.52698 21.4116C9.38638 21.4569 9.2824 21.4878 9.21625 21.5067C9.18317 21.5162 9.15955 21.5226 9.14553 21.5264C9.13853 21.5283 9.13392 21.5295 9.13174 21.53C9.13065 21.5303 9.13016 21.5304 9.13028 21.5304C9.13034 21.5304 9.13055 21.5303 9.13092 21.5302C9.1311 21.5302 9.13132 21.5301 9.13158 21.5301C9.1317 21.53 9.13193 21.53 9.13199 21.53C9.13222 21.5299 9.13246 21.5299 9.375 22.5C9.61754 23.4701 9.6178 23.4701 9.61807 23.47C9.61817 23.47 9.61845 23.4699 9.61865 23.4699C9.61906 23.4698 9.61951 23.4696 9.62 23.4695C9.62097 23.4693 9.6221 23.469 9.62338 23.4687C9.62594 23.468 9.6291 23.4672 9.63287 23.4662C9.64041 23.4643 9.65038 23.4617 9.66275 23.4584C9.6875 23.4517 9.72186 23.4423 9.76569 23.4298C9.85335 23.4047 9.97885 23.3673 10.141 23.315C10.4653 23.2104 10.936 23.0464 11.5433 22.8035C12.758 22.3176 14.5184 21.5162 16.7461 20.2432L15.7539 18.5068Z" fill="#B3B3B3"/>
  </symbol>
  <symbol xmlns="http://www.w3.org/2000/svg" viewBox="0 0 12 14" id="download">
    <path fill-rule="evenodd" clip-rule="evenodd" d="M10.3605 4.36049L7 7.72098V0H5V7.72098L1.63951 4.36049L0.225295 5.77471L6 11.5494L11.7747 5.77471L10.3605 4.36049ZM0 12V14H12V12H0Z"/>
  </symbol>
  
  <symbol xmlns="http://www.w3.org/2000/svg" viewBox="0 0 31 31" id="nav-prev">
    <path fill-rule="evenodd" clip-rule="evenodd" d="M0.523944 16.0978L13.0014 4.19434L13.725 4.8846L2.09801 15.9767L30.8613 15.9767L30.8613 16.9528L2.09876 16.9529L13.725 28.0442L13.0014 28.7345L0.529497 16.8363C0.508776 16.8195 0.489483 16.8011 0.471814 16.7813L0.139648 16.4644L0.476619 16.1429C0.491349 16.1269 0.507161 16.1118 0.523944 16.0978Z"/>
  </symbol>  
  <symbol xmlns="http://www.w3.org/2000/svg" viewBox="0 0 31 31" id="nav-next">
    <g clip-path="url(#clip0_1102_4052)">
    <path fill-rule="evenodd" clip-rule="evenodd" d="M28.9073 16.9526H0.143555V15.9764L28.9076 15.9764L17.2808 4.8846L18.0044 4.19434L30.4879 16.1035C30.4998 16.1138 30.5112 16.1247 30.522 16.1361L30.8662 16.4644L30.5245 16.7903C30.5121 16.8035 30.4989 16.8161 30.4851 16.828L18.0044 28.7345L17.2808 28.0442L28.9073 16.9526Z"/>
    </g>
    <defs>
    <clipPath id="clip0_1102_4052">
    <rect width="31" height="31" transform="translate(0.00488281 0.964355)"/>
    </clipPath>
    </defs>
  </symbol>
  <symbol xmlns="http://www.w3.org/2000/svg" viewBox="0 0 41 38" id="fav">
    <path d="M37.5372 17.1074L20.5 36.1639L3.46283 17.1074C0.0623923 13.3039 0.199263 7.45529 3.77377 3.82059C7.76491 -0.237776 14.3392 0.132473 17.8652 4.61419L20.5 7.9632L23.1348 4.61418C26.6608 0.132471 33.2351 -0.237776 37.2262 3.82059C40.8007 7.45529 40.9376 13.3039 37.5372 17.1074Z" stroke-width="2" stroke-linecap="round" stroke-linejoin="round"/>
  </symbol>
  <symbol xmlns="http://www.w3.org/2000/svg" viewBox="0 0 23 23" id="skrepka">
    <path d="M21.1442 7.34529C21.1442 7.46988 21.1502 7.59506 21.1442 7.71904C21.1359 7.84978 21.1203 7.97995 21.0975 8.10896C21.0764 8.22893 21.0474 8.34738 21.0107 8.46355C20.9766 8.57316 20.9287 8.67857 20.891 8.78639C20.8725 8.8355 20.8599 8.88701 20.8395 8.93553C20.8192 8.98404 20.7839 9.04454 20.7575 9.09964C20.7258 9.16613 20.6977 9.23561 20.6647 9.30029C20.6145 9.39553 20.563 9.49016 20.5049 9.58061C20.4469 9.67105 20.3661 9.77467 20.2966 9.86451C20.2272 9.95436 20.1554 10.0322 20.0817 10.1137C20.0081 10.1951 19.9315 10.2772 19.8531 10.3533C19.7202 10.4862 19.5837 10.615 19.4508 10.748C19.3724 10.8276 19.2994 10.9127 19.221 10.9924C19.0929 11.1211 18.9618 11.2469 18.8337 11.3751C18.7217 11.4865 18.6134 11.6009 18.5021 11.7123C18.374 11.8405 18.2423 11.9657 18.1142 12.0944C18.0028 12.2058 17.8951 12.3208 17.7838 12.4322C17.6551 12.5604 17.5234 12.685 17.3947 12.8132C17.2845 12.9228 17.1768 13.0354 17.0667 13.145C16.9374 13.2744 16.8051 13.402 16.6758 13.5319C16.5656 13.6415 16.4585 13.7541 16.3484 13.8638C16.2185 13.9937 16.0868 14.1207 15.9569 14.2507C15.8473 14.3603 15.7402 14.4729 15.6301 14.5831C15.5002 14.7125 15.3679 14.8401 15.2386 14.9694C15.1284 15.0796 15.0213 15.1922 14.9118 15.3019C14.7819 15.4318 14.6496 15.5588 14.5197 15.6882C14.4101 15.7978 14.303 15.911 14.1935 16.0206C14.0636 16.1506 13.9313 16.2776 13.802 16.4069C13.6918 16.5165 13.5847 16.6291 13.4752 16.7394C13.3453 16.8687 13.213 16.9963 13.0837 17.1257C12.9735 17.2353 12.8664 17.3479 12.7569 17.4581C12.627 17.5875 12.4953 17.7145 12.3654 17.8444C12.2558 17.954 12.1481 18.0666 12.0386 18.1763C11.9087 18.3056 11.777 18.4332 11.6477 18.5626C11.5375 18.6728 11.4304 18.7842 11.3202 18.8944C11.191 19.0238 11.0533 19.1466 10.9324 19.2831C10.8606 19.3603 10.7697 19.4171 10.669 19.4478C10.6126 19.4651 10.553 19.4692 10.4948 19.4598C10.4366 19.4505 10.3813 19.4279 10.3332 19.3939C10.2415 19.3251 10.1662 19.2367 10.1129 19.1352C10.1077 19.1273 10.1044 19.1183 10.1033 19.1088C10.0878 18.9944 10.1107 18.8781 10.1686 18.7782C10.2829 18.6033 10.4385 18.4727 10.5876 18.3296C10.6953 18.2236 10.7977 18.1122 10.9054 18.0062C11.0682 17.8444 11.2347 17.6863 11.3975 17.527C11.5064 17.418 11.6088 17.303 11.7177 17.194C11.8476 17.0646 11.9823 16.9394 12.1128 16.81C12.1906 16.7328 12.2636 16.6501 12.3414 16.5704C12.4749 16.4369 12.6114 16.3075 12.7443 16.1733C12.8532 16.0625 12.9556 15.9445 13.0657 15.8355C13.2261 15.6768 13.3925 15.5247 13.5536 15.3671C13.6308 15.2923 13.7014 15.2102 13.7774 15.1335C13.9109 15.0006 14.0474 14.87 14.1797 14.7364C14.2886 14.6256 14.3916 14.5082 14.5023 14.3986C14.6621 14.2405 14.8292 14.0884 14.9896 13.9302C15.0991 13.8224 15.2009 13.7062 15.3098 13.5978C15.4397 13.4684 15.5744 13.3439 15.7049 13.2145C15.7833 13.1372 15.8551 13.0534 15.9329 12.9749C16.0964 12.8132 16.2628 12.6557 16.4256 12.4957C16.5345 12.3867 16.6369 12.2717 16.7458 12.1633C16.8757 12.0333 17.0098 11.9082 17.1403 11.7794C17.2187 11.7015 17.2917 11.6189 17.3695 11.5398C17.5024 11.4062 17.6389 11.2757 17.7724 11.1427C17.8777 11.0379 17.9801 10.9295 18.086 10.8246C18.2507 10.6611 18.4183 10.5012 18.5817 10.3365C18.69 10.2239 18.7924 10.1041 18.9025 9.99688C19.0312 9.8687 19.1689 9.74951 19.2946 9.61894C19.3796 9.53029 19.4514 9.42907 19.5286 9.33264C19.5885 9.26196 19.6448 9.19308 19.6968 9.11881C19.7339 9.06304 19.7671 9.00481 19.7962 8.94451C19.8513 8.8379 19.9069 8.73188 19.9566 8.62287C19.986 8.55938 20.0033 8.4905 20.0279 8.42462C20.0524 8.35873 20.0793 8.29404 20.1051 8.22936C20.1073 8.22514 20.1091 8.22073 20.1105 8.21618C20.1266 8.12394 20.144 8.0317 20.1577 7.93886C20.1789 7.82777 20.1939 7.71559 20.2026 7.60284C20.2104 7.43034 20.2116 7.25784 20.2026 7.08594C20.1944 6.9418 20.1768 6.79835 20.15 6.65649C20.1297 6.54582 20.1009 6.43688 20.0638 6.33066C20.0264 6.21721 19.9817 6.10636 19.9297 5.99883C19.8657 5.86033 19.7914 5.7268 19.7076 5.59933C19.5979 5.42982 19.4694 5.27329 19.3245 5.13274C19.2371 5.05368 19.1617 4.96144 19.0725 4.88537C18.9856 4.81218 18.8933 4.74551 18.7966 4.68592C18.69 4.61943 18.5781 4.56074 18.4661 4.50623C18.3542 4.45173 18.2345 4.38644 18.1142 4.33972C18.0385 4.31577 17.9615 4.29578 17.8837 4.27982C17.7999 4.25587 17.7179 4.22771 17.6347 4.20136C17.6299 4.20074 17.6251 4.20074 17.6203 4.20136C17.3189 4.15667 17.0136 4.14302 16.7093 4.16063C16.613 4.16792 16.5174 4.18213 16.4232 4.20316C16.3424 4.22113 16.2646 4.25287 16.1837 4.27803C16.1724 4.28195 16.1604 4.28377 16.1484 4.28342C16.0568 4.27922 15.9826 4.33193 15.9012 4.36128C15.8198 4.39063 15.7288 4.42837 15.6456 4.4685C15.5732 4.50324 15.505 4.54756 15.4349 4.58829C15.4026 4.60626 15.3697 4.62303 15.3385 4.64279C15.2541 4.6897 15.1725 4.7417 15.0943 4.79852C14.9776 4.89136 14.8663 4.99199 14.7579 5.09381C14.6496 5.19563 14.5574 5.29686 14.4586 5.39748C14.3599 5.49811 14.2372 5.6137 14.1282 5.72331C14.0282 5.82334 13.9313 5.92576 13.8289 6.02579C13.7481 6.10665 13.6649 6.18391 13.5841 6.26537C13.4847 6.3654 13.3872 6.46722 13.2848 6.56485C13.1759 6.67386 13.0645 6.78047 12.9556 6.88949C12.8251 7.02066 12.697 7.15363 12.5659 7.2842C12.457 7.39321 12.3456 7.49923 12.2367 7.60883C12.1062 7.73941 11.9781 7.87298 11.847 8.00415C11.7381 8.11316 11.6261 8.21857 11.5172 8.32758C11.3867 8.45876 11.2592 8.59232 11.1281 8.7235C11.0198 8.83251 10.9066 8.93792 10.7983 9.04693C10.6672 9.17751 10.5409 9.31287 10.4092 9.44285C10.2673 9.5836 10.1201 9.71897 9.97882 9.86212C9.85013 9.99089 9.72861 10.1269 9.59992 10.2562C9.48918 10.367 9.37066 10.4701 9.25992 10.5809C9.13123 10.7102 9.00912 10.8462 8.88102 10.9756C8.77208 11.0858 8.65595 11.1882 8.54701 11.2978C8.38958 11.4559 8.23694 11.6183 8.07951 11.777C7.96878 11.8878 7.85325 11.9944 7.74251 12.1052C7.64255 12.2052 7.54797 12.3101 7.44801 12.4095C7.33847 12.5191 7.22533 12.6245 7.1152 12.7335C7.01523 12.8335 6.91886 12.9366 6.8189 13.036C6.70995 13.145 6.59802 13.251 6.48908 13.36C6.35859 13.4912 6.23109 13.6248 6.10059 13.7559C5.99165 13.865 5.87912 13.9698 5.77018 14.0794C5.63968 14.21 5.51159 14.3441 5.3817 14.4753C5.27455 14.5831 5.16501 14.6885 5.05786 14.7957C4.92557 14.9281 4.79568 15.0635 4.6628 15.1946C4.52033 15.3354 4.37308 15.4708 4.23181 15.6139C4.10312 15.7433 3.98161 15.8793 3.85291 16.0086C3.74217 16.1194 3.62126 16.2201 3.51291 16.3339C3.41278 16.4403 3.31828 16.5518 3.22978 16.6681C3.14942 16.7645 3.07884 16.8686 3.01908 16.9789C2.96049 17.1102 2.9101 17.2451 2.86824 17.3826C2.83014 17.4685 2.80415 17.5592 2.79102 17.6522C2.78025 17.9079 2.78444 18.1643 2.79102 18.4206C2.79763 18.485 2.8119 18.5483 2.83352 18.6093C2.85041 18.6664 2.8704 18.7226 2.89338 18.7776C2.91666 18.8429 2.94343 18.9069 2.97359 18.9693C3.02208 19.0645 3.07535 19.1574 3.13161 19.2484C3.17491 19.3221 3.22353 19.3926 3.27707 19.4592C3.35589 19.5544 3.44002 19.6449 3.52908 19.7306C3.61154 19.8061 3.69936 19.8756 3.79185 19.9384C3.8598 19.9811 3.9306 20.0192 4.00375 20.0522C4.07977 20.0917 4.15579 20.1325 4.23481 20.1672C4.28926 20.1913 4.34601 20.2097 4.40421 20.2223C4.51182 20.2361 4.61855 20.2561 4.72385 20.2822C4.88607 20.3361 5.05068 20.3235 5.21289 20.3133C5.34342 20.298 5.47266 20.2732 5.59958 20.2391C5.67861 20.2233 5.75674 20.2033 5.83363 20.1792C5.8849 20.1582 5.9347 20.1338 5.98267 20.1061C6.01859 20.0887 6.0557 20.0732 6.09162 20.057C6.21291 19.9964 6.32815 19.9244 6.4358 19.842C6.54115 19.7689 6.62615 19.6784 6.72312 19.6024C6.80992 19.5317 6.87995 19.4401 6.96255 19.3628C7.09365 19.2328 7.22773 19.1064 7.35822 18.9759C7.43783 18.8956 7.51266 18.81 7.59227 18.7297C7.68984 18.6303 7.791 18.535 7.89156 18.4374L8.21479 18.1002C8.31655 17.9996 8.41951 17.9001 8.52067 17.8007C8.59908 17.7216 8.67391 17.6402 8.75292 17.5611C8.88521 17.43 9.01989 17.3012 9.15218 17.1694C9.25992 17.0616 9.36348 16.9496 9.47122 16.8418C9.60351 16.71 9.73939 16.5824 9.87048 16.4495C9.98062 16.3381 10.0836 16.2195 10.1943 16.1087C10.3236 15.9799 10.4595 15.8583 10.5894 15.7307C10.669 15.6528 10.742 15.5684 10.8192 15.4911C10.9144 15.3929 11.0114 15.2959 11.1084 15.1988C11.2217 15.085 11.3356 14.9718 11.4501 14.8592C11.5495 14.7616 11.6513 14.667 11.7494 14.5687C11.8296 14.4891 11.9051 14.4052 11.9853 14.3256C12.1164 14.1956 12.2499 14.0686 12.3803 13.938C12.4606 13.8584 12.5354 13.7727 12.615 13.6925C12.7126 13.5936 12.8131 13.4972 12.9143 13.3996C13.0256 13.2894 13.1352 13.1774 13.2465 13.0671C13.3471 12.9683 13.4494 12.8713 13.5494 12.7713C13.629 12.6916 13.7038 12.6065 13.784 12.5269C13.9145 12.3969 14.0492 12.2711 14.1797 12.1406C14.2892 12.0315 14.3934 11.9171 14.5023 11.8075C14.6328 11.6776 14.7675 11.5518 14.8986 11.4218C15.0069 11.3146 15.1111 11.2032 15.2188 11.0954C15.3505 10.9636 15.4888 10.8378 15.6163 10.7025C15.7599 10.5503 15.9012 10.3958 16.0305 10.2317C16.1001 10.1383 16.1569 10.0359 16.1993 9.9274C16.2271 9.8434 16.2457 9.75665 16.255 9.66865C16.2783 9.51852 16.2771 9.36558 16.2514 9.21584C16.2343 9.12534 16.2081 9.03683 16.173 8.9517C16.1463 8.87405 16.1124 8.79906 16.0718 8.72769C16.03 8.66287 15.9814 8.60264 15.927 8.548C15.8586 8.4716 15.7844 8.4007 15.7049 8.33597C15.6401 8.29403 15.5713 8.25852 15.4996 8.22995L15.3427 8.15508C15.3337 8.15186 15.3245 8.14926 15.3152 8.1473C15.1601 8.10077 14.9974 8.0853 14.8363 8.10178C14.7293 8.10304 14.6229 8.11917 14.5203 8.14969C14.3311 8.21738 14.1474 8.30063 14.0043 8.45337C13.8894 8.57615 13.7649 8.68995 13.6452 8.80735C13.5332 8.91576 13.4195 9.02118 13.3093 9.13139C13.1806 9.26016 13.0567 9.39373 12.928 9.52251C12.7874 9.66326 12.6419 9.79922 12.5007 9.94178C12.4025 10.0394 12.3091 10.1418 12.2115 10.2413C12.102 10.3521 11.9889 10.4593 11.8793 10.5689C11.7494 10.7001 11.6225 10.8336 11.4914 10.963C11.3604 11.0924 11.2269 11.2128 11.0988 11.3409C10.9868 11.4529 10.8833 11.5733 10.7713 11.6847C10.6313 11.8255 10.4834 11.9597 10.3434 12.1004C10.2147 12.2286 10.0938 12.364 9.96565 12.4927C9.85551 12.6035 9.73939 12.7078 9.62805 12.818C9.52988 12.9156 9.43591 13.0174 9.33834 13.1175C9.2288 13.2277 9.11626 13.3349 9.00672 13.4451C8.87683 13.5757 8.74993 13.7098 8.61824 13.8392C8.48655 13.9686 8.35426 14.0884 8.22557 14.2171C8.11363 14.3285 8.01008 14.4489 7.89874 14.5609C7.75807 14.7017 7.61082 14.8359 7.47015 14.976C7.34206 15.1048 7.22234 15.2414 7.09185 15.3677C7.02224 15.4285 6.94568 15.4807 6.86379 15.5235C6.75844 15.5834 6.65548 15.5648 6.55432 15.5558C6.48766 15.5381 6.42691 15.503 6.37834 15.454C6.2233 15.3294 6.19876 15.1545 6.24306 14.9796C6.27388 14.888 6.32719 14.8057 6.39809 14.74C6.6058 14.5196 6.82189 14.307 7.03558 14.0926C7.20378 13.9231 7.37378 13.7547 7.54258 13.5852C7.77005 13.3564 7.99571 13.1264 8.22377 12.8976C8.44106 12.6796 8.66134 12.4646 8.87862 12.2466C9.02228 12.1028 9.16116 11.9555 9.30482 11.8123C9.52031 11.5967 9.73879 11.3841 9.95488 11.169C10.0979 11.0259 10.238 10.8791 10.3811 10.736C10.596 10.5204 10.8138 10.3077 11.0293 10.0921C11.1742 9.94717 11.3149 9.79923 11.4597 9.65488C11.6752 9.43985 11.8925 9.22722 12.1086 9.01219C12.251 8.87024 12.3917 8.72529 12.5342 8.58274C12.7503 8.36592 12.9664 8.1485 13.186 7.93527C13.2944 7.82754 13.4085 7.72576 13.5278 7.6304C13.6062 7.56125 13.6954 7.50541 13.7918 7.46509C13.8553 7.43385 13.9164 7.39781 13.9744 7.35727C14.0155 7.33465 14.0588 7.31619 14.1037 7.30217C14.1761 7.27941 14.2503 7.26024 14.3245 7.24227C14.449 7.21412 14.5742 7.18597 14.6993 7.16261C14.7489 7.1543 14.7994 7.15229 14.8495 7.15662C15.036 7.16424 15.222 7.18123 15.4068 7.20753C15.5489 7.23752 15.6877 7.28167 15.821 7.3393C15.8976 7.37652 15.9713 7.41958 16.0413 7.46808C16.1207 7.50901 16.1977 7.55461 16.2717 7.60464C16.3868 7.68834 16.4948 7.7815 16.5944 7.88316C16.6858 7.98761 16.7679 8.09984 16.8398 8.21857C16.92 8.34256 16.9912 8.47253 17.0613 8.60251C17.0798 8.64485 17.0931 8.6893 17.1008 8.73488C17.1193 8.80555 17.1343 8.87683 17.1547 8.94691C17.2331 9.22303 17.1966 9.50454 17.1918 9.78545C17.1792 9.87755 17.1556 9.96783 17.1217 10.0544C17.1181 10.0682 17.1145 10.0825 17.1116 10.0963C17.0992 10.172 17.0822 10.2468 17.0607 10.3203C17.0343 10.3849 17.0022 10.447 16.9649 10.506C16.9255 10.5782 16.882 10.648 16.8344 10.715C16.7573 10.8213 16.6743 10.9233 16.586 11.0205C16.4531 11.1649 16.3136 11.3032 16.1748 11.4398C16.0359 11.5763 15.9048 11.6985 15.7731 11.8303C15.6654 11.9369 15.563 12.0489 15.4571 12.1579C15.3373 12.2825 15.2158 12.4065 15.0925 12.5299C14.9728 12.6497 14.8531 12.7695 14.7334 12.8893L14.3742 13.2486L14.0151 13.608L13.6559 13.9674L13.2968 14.3268C13.1771 14.4465 13.0573 14.5663 12.9376 14.6861C12.8179 14.8059 12.7102 14.9113 12.5958 15.0227C12.4558 15.1599 12.3133 15.2947 12.1768 15.433C12.0745 15.5349 11.9769 15.6427 11.8745 15.7445C11.7375 15.881 11.5968 16.014 11.4591 16.1506C11.355 16.2542 11.2544 16.362 11.152 16.4674C11.0323 16.5938 10.9072 16.7202 10.7839 16.8454C10.6606 16.9706 10.5445 17.085 10.4248 17.2047L10.0656 17.5641L9.70647 17.9235L9.34732 18.2829C9.2276 18.4027 9.10788 18.5225 8.98816 18.6422C8.86845 18.762 8.7607 18.8675 8.64637 18.9789C8.50571 19.116 8.36384 19.2508 8.22736 19.3891C8.12441 19.491 8.02744 19.5988 7.92508 19.7006C7.788 19.8372 7.64734 19.9707 7.50966 20.1067C7.43424 20.1816 7.36361 20.2606 7.28878 20.3361C7.1831 20.4486 7.06526 20.5491 6.93742 20.6356C6.80453 20.7218 6.67464 20.8153 6.53816 20.8931C6.43912 20.9473 6.33653 20.9948 6.23108 21.0351C6.17123 21.059 6.11137 21.0668 6.05151 21.086C5.97489 21.11 5.89947 21.1381 5.82345 21.1645H5.81687C5.72049 21.1806 5.62532 21.2046 5.52835 21.213C5.32662 21.2303 5.1243 21.2477 4.92198 21.2495C4.78138 21.247 4.64122 21.2328 4.50297 21.207C4.41695 21.1874 4.33235 21.162 4.24977 21.1309C4.24044 21.1282 4.23075 21.127 4.22104 21.1273C4.12527 21.1273 4.04146 21.0818 3.95946 21.0471C3.87745 21.0123 3.78527 20.9872 3.70147 20.9476C3.6057 20.9033 3.51232 20.8518 3.42013 20.7991C3.36028 20.7656 3.30521 20.7248 3.24894 20.6859C3.15975 20.626 3.06936 20.5661 2.98436 20.4936C2.88979 20.4128 2.80479 20.3217 2.7156 20.2331C2.6518 20.1726 2.59183 20.1082 2.53603 20.0402C2.46659 19.9504 2.40493 19.8545 2.34448 19.7581C2.28402 19.6617 2.22476 19.5604 2.17149 19.4586C2.14695 19.4119 2.13557 19.3586 2.11163 19.3101C2.08769 19.2616 2.05836 19.2041 2.03441 19.1496C2.01754 19.1108 2.00373 19.0707 1.99311 19.0298C1.97096 18.9483 1.95001 18.8663 1.93325 18.7842C1.90572 18.6644 1.87998 18.5446 1.85484 18.4248C1.84955 18.3968 1.84694 18.3683 1.84705 18.3398C1.84705 18.1289 1.83748 17.9175 1.84705 17.7073C1.86253 17.5766 1.88774 17.4473 1.92248 17.3203C1.94103 17.2335 1.95839 17.1454 1.98233 17.0604C2.00029 17.0005 2.03202 16.9406 2.05536 16.8807C2.07571 16.831 2.08888 16.7783 2.11163 16.7298C2.14994 16.6465 2.19184 16.5651 2.23553 16.4836C2.27923 16.4021 2.32891 16.3147 2.3786 16.232C2.40695 16.1848 2.43855 16.1395 2.47317 16.0967C2.52764 16.029 2.58331 15.9631 2.64138 15.899C2.72099 15.811 2.8012 15.7241 2.8838 15.6391C3.04303 15.4762 3.20404 15.3138 3.36267 15.1527C3.51232 15.0018 3.66196 14.8532 3.814 14.7029C3.93372 14.5831 4.05344 14.4633 4.17315 14.3501C4.31921 14.2076 4.46766 14.0686 4.61311 13.9254C4.70589 13.8338 4.79269 13.7368 4.88607 13.6445C5.02015 13.511 5.15722 13.3816 5.29071 13.248C5.39845 13.1408 5.49962 13.0276 5.60736 12.9204C5.73965 12.7886 5.87613 12.6616 6.00841 12.5305C6.11616 12.4227 6.21792 12.3095 6.32506 12.2022C6.45735 12.0705 6.59383 11.9441 6.72612 11.8123C6.83386 11.7051 6.93562 11.5919 7.04336 11.4847C7.17505 11.3529 7.31153 11.2253 7.44382 11.0942C7.51924 11.0193 7.59047 10.9396 7.66529 10.8636C7.81075 10.7156 7.9574 10.5695 8.10346 10.4221C8.22976 10.294 8.35486 10.164 8.48356 10.0376C8.61225 9.91123 8.75053 9.78425 8.88162 9.65547C8.98697 9.55186 9.08633 9.44344 9.19049 9.33922C9.32696 9.20266 9.46643 9.06909 9.60351 8.93313C9.67714 8.85946 9.74717 8.78219 9.8202 8.70732C9.96306 8.56038 10.1065 8.41423 10.2506 8.26889C10.3805 8.13771 10.5092 8.00535 10.6409 7.87657C10.7725 7.74779 10.9084 7.62381 11.0401 7.49503C11.1149 7.42256 11.1838 7.3441 11.2568 7.26982C11.3997 7.12328 11.5433 6.97713 11.6878 6.83139C11.8171 6.70021 11.9458 6.56785 12.0775 6.43907C12.2091 6.31029 12.345 6.18631 12.4767 6.05813C12.5509 5.98566 12.6204 5.90779 12.6934 5.83292C12.8359 5.68638 12.9791 5.54023 13.1232 5.39448C13.2525 5.26331 13.3812 5.13214 13.5129 5.00337C13.6446 4.87459 13.781 4.75121 13.9115 4.62243C14.0217 4.51342 14.124 4.39602 14.236 4.28941C14.3251 4.20376 14.4239 4.12769 14.5203 4.04983C14.5906 3.99063 14.664 3.93506 14.74 3.88331C14.825 3.82761 14.9153 3.78149 15.0045 3.73178C15.0782 3.69045 15.1524 3.64912 15.2278 3.61198C15.2733 3.58922 15.323 3.57485 15.3703 3.55209C15.4301 3.52633 15.4846 3.49699 15.5433 3.47243C15.5825 3.45739 15.6224 3.44439 15.663 3.4335L15.8767 3.3748L16.1353 3.29694C16.1419 3.29477 16.1487 3.29317 16.1556 3.29214L16.5429 3.24363C16.7559 3.20724 16.9723 3.19379 17.1882 3.2035C17.3414 3.21707 17.4944 3.23285 17.6473 3.25081C17.7218 3.25981 17.7957 3.27301 17.8688 3.29034C17.9933 3.31969 18.1178 3.35024 18.2405 3.38678C18.3246 3.41081 18.4072 3.44001 18.4877 3.47422C18.6074 3.52514 18.7194 3.58204 18.8337 3.63954C18.957 3.69943 19.0827 3.75933 19.2006 3.8318C19.3178 3.9046 19.4304 3.98461 19.5376 4.07139C19.6733 4.18 19.8052 4.2942 19.9333 4.41399C20.0125 4.49214 20.0876 4.57431 20.1583 4.66016C20.232 4.74401 20.3068 4.82727 20.3726 4.91652C20.4277 4.99199 20.4702 5.07644 20.5205 5.1561C20.5708 5.23576 20.633 5.32621 20.6839 5.41485C20.7067 5.4638 20.7266 5.51399 20.7438 5.56519C20.7767 5.64186 20.812 5.71733 20.8461 5.79399C20.8737 5.84701 20.8977 5.90184 20.918 5.95811C20.9551 6.08329 20.9832 6.21146 21.0185 6.33784C21.0413 6.4199 21.0694 6.50016 21.0951 6.58162C21.0974 6.59085 21.0989 6.60027 21.0993 6.60977C21.1197 6.85535 21.1396 7.10072 21.1592 7.34589L21.1442 7.34529Z"/>
  </symbol>


  <symbol xmlns="http://www.w3.org/2000/svg" viewBox="0 0 8 10" id="next-page">
    <path fill-rule="evenodd" clip-rule="evenodd" d="M4.74684 5.00026L0.84536 8.32996L1.98633 9.30371L7.02878 5.00026L1.98633 0.696816L0.84536 1.67057L4.74684 5.00026Z"/>
  </symbol>
  <symbol xmlns="http://www.w3.org/2000/svg" viewBox="0 0 8 10" id="prev-page">
    <path fill-rule="evenodd" clip-rule="evenodd" d="M3.22011 5.21762L6.84699 1.59074L5.63281 0.709961L0.945277 5.3975L6.31126 9.29007L7.37192 8.22941L3.22011 5.21762Z"/>
  </symbol>


</svg>