<svg width="24" height="24" viewBox="0 0 24 24" fill="none" xmlns="http://www.w3.org/2000/svg">
<path d="M20.5 11C20.5 11.2761 20.7239 11.5 21 11.5C21.2761 11.5 21.5 11.2761 21.5 11H20.5ZM18.5151 7.4364C18.4477 7.70419 18.6102 7.97592 18.878 8.04332C19.1457 8.11072 19.4175 7.94827 19.4849 7.68048L18.5151 7.4364ZM21.5 13C21.5 12.7239 21.2761 12.5 21 12.5C20.7239 12.5 20.5 12.7239 20.5 13H21.5ZM20.5 13.01C20.5 13.2862 20.7239 13.51 21 13.51C21.2761 13.51 21.5 13.2862 21.5 13.01H20.5ZM22.5 8.07792C22.5 8.54196 22.2274 8.77801 21.7051 9.15957C21.2421 9.49775 20.5 9.99581 20.5 11H21.5C21.5 10.5756 21.7579 10.3594 22.2949 9.96706C22.7726 9.61809 23.5 9.10739 23.5 8.07792H22.5ZM21 6.5C21.8254 6.5 22.5 7.18533 22.5 8.07792H23.5C23.5 6.6753 22.4191 5.5 21 5.5V6.5ZM19.4849 7.68048C19.6553 7.00348 20.2854 6.5 21 6.5V5.5C19.821 5.5 18.7959 6.32096 18.5151 7.4364L19.4849 7.68048ZM20.5 13V13.01H21.5V13H20.5ZM6.5 21.5001H17.5V20.5001H6.5V21.5001ZM12 14.0001C11.0135 14.0001 8.94285 13.9767 7.11521 14.4883C6.19878 14.7449 5.29953 15.1471 4.62366 15.7917C3.93293 16.4505 3.5 17.3405 3.5 18.5001H4.5C4.5 17.6193 4.81707 16.9892 5.31384 16.5154C5.82547 16.0274 6.55122 15.6847 7.38479 15.4513C9.05715 14.9832 10.9865 15.0001 12 15.0001V14.0001ZM12 15.0001C13.0135 15.0001 14.9428 14.9832 16.6152 15.4513C17.4488 15.6847 18.1745 16.0274 18.6862 16.5154C19.1829 16.9892 19.5 17.6193 19.5 18.5001H20.5C20.5 17.3405 20.0671 16.4505 19.3763 15.7917C18.7005 15.1471 17.8012 14.7449 16.8848 14.4883C15.0572 13.9767 12.9865 14.0001 12 14.0001V15.0001ZM3.5 18.5001C3.5 20.157 4.84315 21.5001 6.5 21.5001V20.5001C5.39543 20.5001 4.5 19.6047 4.5 18.5001H3.5ZM19.5 18.5001C19.5 19.6047 18.6046 20.5001 17.5 20.5001V21.5001C19.1569 21.5001 20.5 20.157 20.5 18.5001H19.5ZM15.5 7C15.5 8.933 13.933 10.5 12 10.5V11.5C14.4853 11.5 16.5 9.48528 16.5 7H15.5ZM12 10.5C10.067 10.5 8.5 8.933 8.5 7H7.5C7.5 9.48528 9.51472 11.5 12 11.5V10.5ZM8.5 7C8.5 5.067 10.067 3.5 12 3.5V2.5C9.51472 2.5 7.5 4.51472 7.5 7H8.5ZM12 3.5C13.933 3.5 15.5 5.067 15.5 7H16.5C16.5 4.51472 14.4853 2.5 12 2.5V3.5Z" fill="white"/>
</svg>
