<svg width="24" height="24" viewBox="0 0 24 24" fill="none" xmlns="http://www.w3.org/2000/svg">
<path d="M19.6585 9.37487L12.6585 3.24987C12.2815 2.91997 11.7185 2.91997 11.3415 3.24986L4.3415 9.37487C4.12448 9.56475 4 9.83908 4 10.1274V18.9999C4 19.5522 4.44772 19.9999 5 19.9999H9C9.55228 19.9999 10 19.5522 10 18.9999V14.9999C10 14.4476 10.4477 13.9999 11 13.9999H13C13.5523 13.9999 14 14.4476 14 14.9999V18.9999C14 19.5522 14.4477 19.9999 15 19.9999H19C19.5523 19.9999 20 19.5522 20 18.9999V10.1274C20 9.83908 19.8755 9.56475 19.6585 9.37487Z" stroke="white" stroke-linecap="round" stroke-linejoin="round"/>
</svg>
