<svg width="24" height="24" viewBox="0 0 24 24" fill="none" xmlns="http://www.w3.org/2000/svg">
<path d="M11.25 7.00999C11.25 7.42421 11.5858 7.75999 12 7.75999C12.4142 7.75999 12.75 7.42421 12.75 7.00999L11.25 7.00999ZM12.75 7C12.75 6.58579 12.4142 6.25 12 6.25C11.5858 6.25 11.25 6.58579 11.25 7L12.75 7ZM11.25 17C11.25 17.4142 11.5858 17.75 12 17.75C12.4142 17.75 12.75 17.4142 12.75 17L11.25 17ZM12.75 9.99998C12.75 9.58577 12.4142 9.24998 12 9.24998C11.5858 9.24998 11.25 9.58577 11.25 9.99998L12.75 9.99998ZM12.75 7.00999L12.75 7L11.25 7L11.25 7.00999L12.75 7.00999ZM12.75 17L12.75 9.99998L11.25 9.99998L11.25 17L12.75 17Z" fill="white"/>
<path fill-rule="evenodd" clip-rule="evenodd" d="M16.6857 2H7.31429C4.04762 2 2 4.31208 2 7.58516V16.4148C2 19.6879 4.0381 22 7.31429 22H16.6857C19.9619 22 22 19.6879 22 16.4148V7.58516C22 4.31208 19.9619 2 16.6857 2Z" stroke="white" stroke-linecap="round" stroke-linejoin="round"/>
</svg>
