<svg width="24" height="24" viewBox="0 0 24 24" fill="none" xmlns="http://www.w3.org/2000/svg">
<path d="M8 7.5C7.72386 7.5 7.5 7.72386 7.5 8C7.5 8.27614 7.72386 8.5 8 8.5V7.5ZM16 8.5C16.2761 8.5 16.5 8.27614 16.5 8C16.5 7.72386 16.2761 7.5 16 7.5V8.5ZM8 11.5C7.72386 11.5 7.5 11.7239 7.5 12C7.5 12.2761 7.72386 12.5 8 12.5V11.5ZM13 12.5C13.2761 12.5 13.5 12.2761 13.5 12C13.5 11.7239 13.2761 11.5 13 11.5V12.5ZM7 16.4939H7.5C7.5 16.2694 7.35027 16.0723 7.1339 16.0122L7 16.4939ZM11.0124 16.9876L11.0255 16.4878C10.8884 16.4842 10.7558 16.5371 10.6588 16.6341L11.0124 16.9876ZM7 21H6.5C6.5 21.2023 6.62182 21.3846 6.80866 21.462C6.9955 21.5394 7.21056 21.4966 7.35355 21.3536L7 21ZM8 8.5H16V7.5H8V8.5ZM8 12.5H13V11.5H8V12.5ZM3.5 10C3.5 7.3693 4.02379 5.82245 5.22609 4.88732C6.46987 3.91994 8.56209 3.5 12 3.5V2.5C8.55556 2.5 6.14778 2.90359 4.61215 4.09797C3.03504 5.32461 2.5 7.27776 2.5 10H3.5ZM20.5 10C20.5 12.6307 19.9762 14.1776 18.7739 15.1127C17.5301 16.0801 15.4379 16.5 12 16.5V17.5C15.4444 17.5 17.8522 17.0964 19.3879 15.902C20.965 14.6754 21.5 12.7222 21.5 10H20.5ZM12 3.5C15.4379 3.5 17.5301 3.91994 18.7739 4.88732C19.9762 5.82245 20.5 7.3693 20.5 10H21.5C21.5 7.27776 20.965 5.32461 19.3879 4.09797C17.8522 2.90359 15.4444 2.5 12 2.5V3.5ZM7.1339 16.0122C5.73976 15.6247 4.86356 14.9988 4.31654 14.0831C3.75615 13.145 3.5 11.8358 3.5 10H2.5C2.5 11.9025 2.76025 13.4279 3.45806 14.596C4.16924 15.7865 5.29304 16.5384 6.8661 16.9757L7.1339 16.0122ZM12 16.5C11.6631 16.5 11.3384 16.496 11.0255 16.4878L10.9993 17.4875C11.3218 17.4959 11.6553 17.5 12 17.5V16.5ZM6.5 16.4939V21H7.5V16.4939H6.5ZM7.35355 21.3536L11.3659 17.3412L10.6588 16.6341L6.64645 20.6465L7.35355 21.3536Z" fill="white"/>
</svg>
