<svg width="24" height="24" viewBox="0 0 24 24" fill="none" xmlns="http://www.w3.org/2000/svg">
<path d="M19 13.5C18.7239 13.5 18.5 13.7239 18.5 14C18.5 14.2761 18.7239 14.5 19 14.5V13.5ZM21 18.5C20.7239 18.5 20.5 18.7239 20.5 19C20.5 19.2761 20.7239 19.5 21 19.5V18.5ZM17 10.5C16.7239 10.5 16.5 10.7239 16.5 11C16.5 11.2761 16.7239 11.5 17 11.5V10.5ZM17 4.5C16.7239 4.5 16.5 4.72386 16.5 5C16.5 5.27614 16.7239 5.5 17 5.5V4.5ZM5 14.5C5.27614 14.5 5.5 14.2761 5.5 14C5.5 13.7239 5.27614 13.5 5 13.5V14.5ZM3 19.5C3.27614 19.5 3.5 19.2761 3.5 19C3.5 18.7239 3.27614 18.5 3 18.5V19.5ZM7 11.5C7.27614 11.5 7.5 11.2761 7.5 11C7.5 10.7239 7.27614 10.5 7 10.5V11.5ZM7 5.5C7.27614 5.5 7.5 5.27614 7.5 5C7.5 4.72386 7.27614 4.5 7 4.5V5.5ZM23.5 17.5C23.5 16.5697 22.9596 15.5723 22.1728 14.825C21.3752 14.0674 20.257 13.5 19 13.5V14.5C19.9522 14.5 20.834 14.9326 21.4841 15.55C22.145 16.1777 22.5 16.9303 22.5 17.5H23.5ZM21.5 18.5H21V19.5H21.5V18.5ZM22.5 17.5C22.5 18.0523 22.0523 18.5 21.5 18.5V19.5C22.6046 19.5 23.5 18.6046 23.5 17.5H22.5ZM19.5 8C19.5 9.38071 18.3807 10.5 17 10.5V11.5C18.933 11.5 20.5 9.933 20.5 8H19.5ZM17 5.5C18.3807 5.5 19.5 6.61929 19.5 8H20.5C20.5 6.067 18.933 4.5 17 4.5V5.5ZM16.5 18.5H7.5V19.5H16.5V18.5ZM12 13.5C10.4562 13.5 8.87082 13.7556 7.65139 14.3653C6.41779 14.9821 5.5 16.0011 5.5 17.5H6.5C6.5 16.4989 7.08221 15.7679 8.09861 15.2597C9.12918 14.7444 10.5438 14.5 12 14.5V13.5ZM12 14.5C13.4562 14.5 14.8708 14.7444 15.9014 15.2597C16.9178 15.7679 17.5 16.4989 17.5 17.5H18.5C18.5 16.0011 17.5822 14.9821 16.3486 14.3653C15.1292 13.7556 13.5438 13.5 12 13.5V14.5ZM5.5 17.5C5.5 18.6046 6.39543 19.5 7.5 19.5V18.5C6.94772 18.5 6.5 18.0523 6.5 17.5H5.5ZM17.5 17.5C17.5 18.0523 17.0523 18.5 16.5 18.5V19.5C17.6046 19.5 18.5 18.6046 18.5 17.5H17.5ZM14.5 8C14.5 9.38071 13.3807 10.5 12 10.5V11.5C13.933 11.5 15.5 9.933 15.5 8H14.5ZM12 10.5C10.6193 10.5 9.5 9.38071 9.5 8H8.5C8.5 9.933 10.067 11.5 12 11.5V10.5ZM9.5 8C9.5 6.61929 10.6193 5.5 12 5.5V4.5C10.067 4.5 8.5 6.067 8.5 8H9.5ZM12 5.5C13.3807 5.5 14.5 6.61929 14.5 8H15.5C15.5 6.067 13.933 4.5 12 4.5V5.5ZM1.5 17.5C1.5 16.9303 1.85501 16.1777 2.5159 15.55C3.16605 14.9326 4.04782 14.5 5 14.5V13.5C3.74304 13.5 2.62482 14.0674 1.82724 14.825C1.04042 15.5723 0.5 16.5697 0.5 17.5H1.5ZM2.5 19.5H3V18.5H2.5V19.5ZM0.5 17.5C0.5 18.6046 1.39543 19.5 2.5 19.5V18.5C1.94772 18.5 1.5 18.0523 1.5 17.5H0.5ZM3.5 8C3.5 9.933 5.067 11.5 7 11.5V10.5C5.61929 10.5 4.5 9.38071 4.5 8H3.5ZM7 4.5C5.067 4.5 3.5 6.067 3.5 8H4.5C4.5 6.61929 5.61929 5.5 7 5.5V4.5Z" fill="white"/>
</svg>
