<svg width="24" height="24" viewBox="0 0 24 24" fill="none" xmlns="http://www.w3.org/2000/svg">
<path d="M21 17L20.7818 17.4499C20.9173 17.5156 21.0752 17.5167 21.2117 17.453C21.3481 17.3892 21.4486 17.2674 21.4851 17.1213L21 17ZM21 7L21.4851 6.87873C21.4486 6.73262 21.3481 6.61076 21.2117 6.547C21.0752 6.48325 20.9173 6.4844 20.7818 6.55014L21 7ZM3.77778 5.77778L3.42422 5.42422L3.42422 5.42422L3.77778 5.77778ZM16.2222 5.77778L16.5758 5.42422L16.5758 5.42422L16.2222 5.77778ZM3.77778 18.2222L3.42422 18.5758L3.42422 18.5758L3.77778 18.2222ZM16.659 15.4499L20.7818 17.4499L21.2182 16.5501L17.0955 14.5501L16.659 15.4499ZM20.7818 6.55014L16.659 8.55014L17.0955 9.44986L21.2182 7.44986L20.7818 6.55014ZM21 17C21.4851 17.1213 21.4851 17.1212 21.4851 17.1211C21.4851 17.121 21.4852 17.1209 21.4852 17.1208C21.4852 17.1207 21.4853 17.1205 21.4853 17.1202C21.4855 17.1198 21.4856 17.1192 21.4858 17.1185C21.4861 17.117 21.4866 17.1151 21.4872 17.1127C21.4884 17.108 21.49 17.1012 21.492 17.0926C21.4961 17.0754 21.5019 17.0505 21.5092 17.0183C21.5238 16.9539 21.5442 16.8601 21.5684 16.7387C21.617 16.496 21.6811 16.1431 21.745 15.6957C21.8728 14.8013 22 13.5274 22 12H21C21 13.4726 20.8773 14.6987 20.755 15.5543C20.6939 15.9819 20.6331 16.3165 20.5878 16.5426C20.5652 16.6556 20.5466 16.7414 20.5338 16.7981C20.5274 16.8264 20.5224 16.8475 20.5192 16.861C20.5176 16.8678 20.5164 16.8726 20.5157 16.8756C20.5153 16.8771 20.5151 16.8781 20.515 16.8786C20.5149 16.8789 20.5149 16.879 20.5149 16.879C20.5149 16.879 20.5149 16.879 20.5149 16.879C20.5149 16.879 20.5149 16.8789 20.5149 16.8789C20.5149 16.8788 20.5149 16.8787 21 17ZM22 12C22 10.4726 21.8728 9.1987 21.745 8.30429C21.6811 7.85693 21.617 7.50404 21.5684 7.26132C21.5442 7.13994 21.5238 7.04607 21.5092 6.98167C21.5019 6.94946 21.4961 6.92462 21.492 6.90738C21.49 6.89876 21.4884 6.89205 21.4872 6.88726C21.4866 6.88487 21.4861 6.88296 21.4858 6.88154C21.4856 6.88083 21.4855 6.88024 21.4853 6.87977C21.4853 6.87953 21.4852 6.87933 21.4852 6.87916C21.4852 6.87907 21.4851 6.87897 21.4851 6.87892C21.4851 6.87882 21.4851 6.87873 21 7C20.5149 7.12127 20.5149 7.12119 20.5149 7.12112C20.5149 7.12111 20.5149 7.12105 20.5149 7.12102C20.5149 7.12097 20.5149 7.12095 20.5149 7.12096C20.5149 7.12098 20.5149 7.12112 20.515 7.12138C20.5151 7.12191 20.5153 7.12291 20.5157 7.12439C20.5164 7.12736 20.5176 7.13224 20.5192 7.139C20.5224 7.15253 20.5274 7.17358 20.5338 7.20193C20.5466 7.25861 20.5652 7.34443 20.5878 7.45743C20.6331 7.68346 20.6939 8.01807 20.755 8.44571C20.8773 9.3013 21 10.5274 21 12H22ZM4.13133 6.13133C4.10702 6.15565 4.11539 6.13739 4.21746 6.0959C4.30653 6.0597 4.43314 6.01913 4.59976 5.97677C4.93198 5.89231 5.38462 5.81035 5.93273 5.73886C7.02673 5.59616 8.46327 5.5 10 5.5V4.5C8.42561 4.5 6.94549 4.59829 5.80339 4.74726C5.23344 4.8216 4.73816 4.90977 4.35336 5.0076C4.16148 5.05639 3.98731 5.11 3.84092 5.1695C3.70753 5.22372 3.54576 5.30269 3.42422 5.42422L4.13133 6.13133ZM10 5.5C11.5367 5.5 12.9733 5.59616 14.0673 5.73886C14.6154 5.81035 15.068 5.89231 15.4002 5.97677C15.5669 6.01913 15.6935 6.0597 15.7825 6.0959C15.8846 6.13739 15.893 6.15565 15.8687 6.13133L16.5758 5.42422C16.4542 5.30269 16.2925 5.22372 16.1591 5.1695C16.0127 5.11 15.8385 5.05639 15.6466 5.0076C15.2618 4.90977 14.7666 4.8216 14.1966 4.74726C13.0545 4.59829 11.5744 4.5 10 4.5V5.5ZM15.8687 17.8687C15.893 17.8444 15.8846 17.8626 15.7825 17.9041C15.6935 17.9403 15.5669 17.9809 15.4002 18.0232C15.068 18.1077 14.6154 18.1897 14.0673 18.2611C12.9733 18.4038 11.5367 18.5 10 18.5V19.5C11.5744 19.5 13.0545 19.4017 14.1966 19.2527C14.7666 19.1784 15.2618 19.0902 15.6466 18.9924C15.8385 18.9436 16.0127 18.89 16.1591 18.8305C16.2925 18.7763 16.4542 18.6973 16.5758 18.5758L15.8687 17.8687ZM10 18.5C8.46327 18.5 7.02673 18.4038 5.93273 18.2611C5.38462 18.1897 4.93198 18.1077 4.59976 18.0232C4.43314 17.9809 4.30653 17.9403 4.21746 17.9041C4.11539 17.8626 4.10702 17.8444 4.13133 17.8687L3.42422 18.5758C3.54576 18.6973 3.70753 18.7763 3.84092 18.8305C3.98731 18.89 4.16148 18.9436 4.35336 18.9924C4.73816 19.0902 5.23344 19.1784 5.80339 19.2527C6.94549 19.4017 8.42561 19.5 10 19.5V18.5ZM4.13133 17.8687C4.15565 17.893 4.13739 17.8846 4.0959 17.7825C4.0597 17.6935 4.01913 17.5669 3.97677 17.4002C3.89231 17.068 3.81035 16.6154 3.73886 16.0673C3.59616 14.9733 3.5 13.5367 3.5 12H2.5C2.5 13.5744 2.59829 15.0545 2.74726 16.1966C2.8216 16.7666 2.90977 17.2618 3.0076 17.6466C3.05639 17.8385 3.11 18.0127 3.1695 18.1591C3.22372 18.2925 3.30269 18.4542 3.42422 18.5758L4.13133 17.8687ZM3.5 12C3.5 10.4633 3.59616 9.02673 3.73886 7.93273C3.81035 7.38462 3.89231 6.93198 3.97677 6.59976C4.01913 6.43314 4.0597 6.30653 4.0959 6.21746C4.13739 6.11539 4.15565 6.10702 4.13133 6.13133L3.42422 5.42422C3.30269 5.54576 3.22372 5.70753 3.1695 5.84092C3.11 5.98731 3.05639 6.16148 3.0076 6.35336C2.90977 6.73816 2.8216 7.23344 2.74726 7.80339C2.59829 8.94549 2.5 10.4256 2.5 12H3.5ZM16.5 12C16.5 13.059 16.4543 14.0714 16.379 14.9577L17.3754 15.0423C17.4532 14.1274 17.5 13.0867 17.5 12H16.5ZM16.379 14.9577C16.3073 15.8013 16.2094 16.5228 16.1007 17.0577C16.0462 17.326 15.991 17.5373 15.9388 17.6894C15.8785 17.8645 15.8445 17.8929 15.8687 17.8687L16.5758 18.5758C16.7274 18.4242 16.8207 18.1999 16.8845 18.0144C16.9562 17.8058 17.0215 17.5482 17.0807 17.2568C17.1995 16.672 17.3017 15.9098 17.3754 15.0423L16.379 14.9577ZM15.8687 6.13133C15.8445 6.10715 15.8785 6.13545 15.9388 6.31064C15.991 6.46272 16.0462 6.67397 16.1007 6.94232C16.2094 7.47724 16.3073 8.19874 16.379 9.04234L17.3754 8.95766C17.3017 8.09017 17.1995 7.32795 17.0807 6.74324C17.0215 6.45176 16.9562 6.1942 16.8845 5.98559C16.8207 5.80008 16.7274 5.5758 16.5758 5.42422L15.8687 6.13133ZM16.379 9.04234C16.4543 9.92857 16.5 10.941 16.5 12H17.5C17.5 10.9133 17.4532 9.87264 17.3754 8.95766L16.379 9.04234Z" fill="white"/>
</svg>
