<svg width="191" height="42" viewBox="0 0 191 42" fill="none" xmlns="http://www.w3.org/2000/svg">
<circle cx="21" cy="21" r="21" fill="#A0D1FB"/>
<path d="M25.568 21.288C26.304 21.672 26.88 22.208 27.296 22.896C27.712 23.568 27.92 24.336 27.92 25.2C27.92 26.576 27.432 27.72 26.456 28.632C25.48 29.544 24.288 30 22.88 30H15.68V13.2H22.352C23.728 13.2 24.888 13.648 25.832 14.544C26.792 15.44 27.272 16.544 27.272 17.856C27.272 19.296 26.704 20.44 25.568 21.288ZM22.352 15.792H18.44V20.208H22.352C22.96 20.208 23.472 20 23.888 19.584C24.304 19.152 24.512 18.624 24.512 18C24.512 17.376 24.304 16.856 23.888 16.44C23.472 16.008 22.96 15.792 22.352 15.792ZM18.44 27.408H22.88C23.52 27.408 24.056 27.184 24.488 26.736C24.936 26.272 25.16 25.712 25.16 25.056C25.16 24.4 24.936 23.848 24.488 23.4C24.056 22.936 23.52 22.704 22.88 22.704H18.44V27.408Z" fill="#181818"/>
<path d="M59.712 20.692C60.2027 20.948 60.5867 21.3053 60.864 21.764C61.1413 22.212 61.28 22.724 61.28 23.3C61.28 24.2173 60.9547 24.98 60.304 25.588C59.6533 26.196 58.8587 26.5 57.92 26.5H53.12V15.3H57.568C58.4853 15.3 59.2587 15.5987 59.888 16.196C60.528 16.7933 60.848 17.5293 60.848 18.404C60.848 19.364 60.4693 20.1267 59.712 20.692ZM57.568 17.028H54.96V19.972H57.568C57.9733 19.972 58.3147 19.8333 58.592 19.556C58.8693 19.268 59.008 18.916 59.008 18.5C59.008 18.084 58.8693 17.7373 58.592 17.46C58.3147 17.172 57.9733 17.028 57.568 17.028ZM54.96 24.772H57.92C58.3467 24.772 58.704 24.6227 58.992 24.324C59.2907 24.0147 59.44 23.6413 59.44 23.204C59.44 22.7667 59.2907 22.3987 58.992 22.1C58.704 21.7907 58.3467 21.636 57.92 21.636H54.96V24.772ZM69.1878 19.636V18.5H70.9158V26.5H69.1878V25.348C68.5371 26.2547 67.6038 26.708 66.3878 26.708C65.2891 26.708 64.3504 26.3027 63.5718 25.492C62.7931 24.6813 62.4038 23.684 62.4038 22.5C62.4038 21.316 62.7931 20.3187 63.5718 19.508C64.3504 18.6973 65.2891 18.292 66.3878 18.292C67.6038 18.292 68.5371 18.74 69.1878 19.636ZM64.8518 24.34C65.3318 24.82 65.9344 25.06 66.6598 25.06C67.3851 25.06 67.9878 24.82 68.4678 24.34C68.9478 23.8493 69.1878 23.236 69.1878 22.5C69.1878 21.764 68.9478 21.156 68.4678 20.676C67.9878 20.1853 67.3851 19.94 66.6598 19.94C65.9344 19.94 65.3318 20.1853 64.8518 20.676C64.3718 21.156 64.1318 21.764 64.1318 22.5C64.1318 23.2253 64.3718 23.8387 64.8518 24.34ZM76.2739 24.324L78.3219 18.5H80.1619L77.0899 26.756C76.7165 27.7693 76.1939 28.5267 75.5219 29.028C74.8499 29.5293 74.0712 29.7533 73.1859 29.7V28.084C74.2099 28.148 74.9192 27.636 75.3139 26.548L75.3619 26.436L72.0019 18.5H73.8419L76.2739 24.324ZM82.9544 22.98H81.5944L81.2424 18.5V15.3H83.3224V18.5L82.9544 22.98ZM82.2824 24.292C82.613 24.292 82.8957 24.4093 83.1304 24.644C83.365 24.8787 83.4824 25.1613 83.4824 25.492C83.4824 25.8227 83.365 26.1053 83.1304 26.34C82.8957 26.5747 82.613 26.692 82.2824 26.692C81.9517 26.692 81.669 26.5747 81.4344 26.34C81.1997 26.1053 81.0824 25.8227 81.0824 25.492C81.0824 25.1613 81.1944 24.8787 81.4184 24.644C81.653 24.4093 81.941 24.292 82.2824 24.292ZM97.9925 26.5H96.1525V18.9L90.8725 26.5H89.4325V15.3H91.2725V22.9L96.5525 15.3H97.9925V26.5ZM105.509 21.684V18.5H107.237V26.5H105.509V23.316H101.845V26.5H100.117V18.5H101.845V21.684H105.509ZM113.018 26.708C111.813 26.708 110.805 26.3027 109.994 25.492C109.194 24.6707 108.794 23.6733 108.794 22.5C108.794 21.3053 109.194 20.308 109.994 19.508C110.805 18.6973 111.813 18.292 113.018 18.292C113.797 18.292 114.506 18.4787 115.146 18.852C115.786 19.2253 116.266 19.7267 116.586 20.356L115.098 21.22C114.917 20.836 114.64 20.5373 114.266 20.324C113.904 20.1 113.482 19.988 113.002 19.988C112.298 19.988 111.706 20.228 111.226 20.708C110.757 21.1987 110.522 21.796 110.522 22.5C110.522 23.204 110.757 23.8013 111.226 24.292C111.706 24.772 112.298 25.012 113.002 25.012C113.472 25.012 113.893 24.9053 114.266 24.692C114.65 24.468 114.938 24.164 115.13 23.78L116.618 24.628C116.277 25.268 115.781 25.7747 115.13 26.148C114.49 26.5213 113.786 26.708 113.018 26.708ZM116.941 18.5H123.901V20.164H121.293V26.5H119.565V20.164H116.941V18.5ZM129.599 18.292C130.687 18.292 131.625 18.7027 132.415 19.524C133.193 20.3347 133.583 21.3267 133.583 22.5C133.583 23.684 133.193 24.6813 132.415 25.492C131.636 26.3027 130.697 26.708 129.599 26.708C128.393 26.708 127.46 26.26 126.799 25.364V29.7H125.071V18.5H126.799V19.652C127.449 18.7453 128.383 18.292 129.599 18.292ZM127.519 24.34C127.999 24.82 128.601 25.06 129.327 25.06C130.052 25.06 130.655 24.82 131.135 24.34C131.615 23.8493 131.855 23.236 131.855 22.5C131.855 21.764 131.615 21.156 131.135 20.676C130.655 20.1853 130.052 19.94 129.327 19.94C128.601 19.94 127.999 20.1853 127.519 20.676C127.039 21.156 126.799 21.764 126.799 22.5C126.799 23.2253 127.039 23.8387 127.519 24.34ZM138.18 24.324L140.228 18.5H142.068L138.996 26.756C138.623 27.7693 138.1 28.5267 137.428 29.028C136.756 29.5293 135.977 29.7533 135.092 29.7V28.084C136.116 28.148 136.825 27.636 137.22 26.548L137.268 26.436L133.908 18.5H135.748L138.18 24.324ZM149.549 18.5H151.309V26.5H149.629V21.236L147.325 24.9H147.117L144.829 21.252V26.5H143.149V18.5H144.909L147.229 22.196L149.549 18.5ZM161.033 23.236H154.665C154.793 23.8333 155.081 24.2973 155.529 24.628C155.988 24.9587 156.553 25.124 157.225 25.124C158.132 25.124 158.82 24.7933 159.289 24.132L160.713 24.964C159.934 26.1267 158.766 26.708 157.209 26.708C155.918 26.708 154.868 26.3133 154.057 25.524C153.257 24.724 152.857 23.716 152.857 22.5C152.857 21.316 153.252 20.3187 154.041 19.508C154.82 18.6973 155.833 18.292 157.081 18.292C158.244 18.292 159.204 18.7027 159.961 19.524C160.718 20.3453 161.097 21.3427 161.097 22.516C161.097 22.7293 161.076 22.9693 161.033 23.236ZM154.649 21.828H159.353C159.236 21.1987 158.969 20.7133 158.553 20.372C158.148 20.0307 157.652 19.86 157.065 19.86C156.425 19.86 155.892 20.036 155.465 20.388C155.038 20.74 154.766 21.22 154.649 21.828ZM168.009 21.684V18.5H169.737V26.5H168.009V23.316H164.345V26.5H162.617V18.5H164.345V21.684H168.009ZM170.894 18.5H177.854V20.164H175.246V26.5H173.518V20.164H170.894V18.5ZM180.752 21.22H182.512C183.376 21.22 184.074 21.4653 184.608 21.956C185.152 22.436 185.424 23.0707 185.424 23.86C185.424 24.6387 185.152 25.2733 184.608 25.764C184.074 26.2547 183.376 26.5 182.512 26.5H179.024V18.5H180.752V21.22ZM186.384 26.5V18.5H188.112V26.5H186.384ZM180.752 24.948H182.528C182.869 24.948 183.152 24.8467 183.376 24.644C183.61 24.4413 183.728 24.18 183.728 23.86C183.728 23.54 183.616 23.2787 183.392 23.076C183.168 22.8733 182.88 22.772 182.528 22.772H180.752V24.948Z" fill="white"/>
</svg>
