<svg width="0" height="0" class="hidden">
  <symbol xmlns="http://www.w3.org/2000/svg" viewBox="0 0 24 24" id="home">
    <path fill-rule="evenodd" clip-rule="evenodd" d="M12.9878 2.87358C12.9878 2.87358 12.9878 2.87359 12.9878 2.87359L19.9878 8.99858L19.6585 9.37487L19.9878 8.99858C20.3132 9.28339 20.5 9.69487 20.5 10.1274V18.9999C20.5 19.8283 19.8284 20.4999 19 20.4999H15C14.1716 20.4999 13.5 19.8283 13.5 18.9999V14.9999C13.5 14.7237 13.2762 14.4999 13 14.4999H11C10.7238 14.4999 10.5 14.7237 10.5 14.9999V18.9999C10.5 19.8283 9.82842 20.4999 9 20.4999H5C4.17158 20.4999 3.5 19.8283 3.5 18.9999V10.1274C3.5 9.6949 3.68672 9.2834 4.01225 8.99858M4.01226 8.99857L11.0122 2.87358C11.0122 2.87357 11.0122 2.87357 11.0122 2.87357C11.5778 2.37873 12.4222 2.37873 12.9878 2.87358M12.3292 3.62614C12.1407 3.46121 11.8592 3.46121 11.6708 3.62614L11.6708 3.62615L4.67075 9.75116L4.67074 9.75117C4.56223 9.8461 4.5 9.98327 4.5 10.1274V18.9999C4.5 19.276 4.72386 19.4999 5 19.4999H9C9.27614 19.4999 9.5 19.276 9.5 18.9999V14.9999C9.5 14.1715 10.1716 13.4999 11 13.4999H13C13.8284 13.4999 14.5 14.1715 14.5 14.9999V18.9999C14.5 19.2761 14.7238 19.4999 15 19.4999H19C19.2762 19.4999 19.5 19.2761 19.5 18.9999V10.1274C19.5 9.98329 19.4378 9.84611 19.3292 9.75116L12.3292 3.62616L12.3292 3.62614Z"/>
  </symbol>
  <symbol xmlns="http://www.w3.org/2000/svg" viewBox="0 0 24 24" id="faq">
    <path d="M20.5 11C20.5 11.2761 20.7239 11.5 21 11.5C21.2761 11.5 21.5 11.2761 21.5 11H20.5ZM18.5151 7.4364C18.4477 7.70419 18.6102 7.97592 18.878 8.04332C19.1457 8.11072 19.4175 7.94827 19.4849 7.68048L18.5151 7.4364ZM21.5 13C21.5 12.7239 21.2761 12.5 21 12.5C20.7239 12.5 20.5 12.7239 20.5 13H21.5ZM20.5 13.01C20.5 13.2862 20.7239 13.51 21 13.51C21.2761 13.51 21.5 13.2862 21.5 13.01H20.5ZM22.5 8.07792C22.5 8.54196 22.2274 8.77801 21.7051 9.15957C21.2421 9.49775 20.5 9.99581 20.5 11H21.5C21.5 10.5756 21.7579 10.3594 22.2949 9.96706C22.7726 9.61809 23.5 9.10739 23.5 8.07792H22.5ZM21 6.5C21.8254 6.5 22.5 7.18533 22.5 8.07792H23.5C23.5 6.6753 22.4191 5.5 21 5.5V6.5ZM19.4849 7.68048C19.6553 7.00348 20.2854 6.5 21 6.5V5.5C19.821 5.5 18.7959 6.32096 18.5151 7.4364L19.4849 7.68048ZM20.5 13V13.01H21.5V13H20.5ZM6.5 21.5001H17.5V20.5001H6.5V21.5001ZM12 14.0001C11.0135 14.0001 8.94285 13.9767 7.11521 14.4883C6.19878 14.7449 5.29953 15.1471 4.62366 15.7917C3.93293 16.4505 3.5 17.3405 3.5 18.5001H4.5C4.5 17.6193 4.81707 16.9892 5.31384 16.5154C5.82547 16.0274 6.55122 15.6847 7.38479 15.4513C9.05715 14.9832 10.9865 15.0001 12 15.0001V14.0001ZM12 15.0001C13.0135 15.0001 14.9428 14.9832 16.6152 15.4513C17.4488 15.6847 18.1745 16.0274 18.6862 16.5154C19.1829 16.9892 19.5 17.6193 19.5 18.5001H20.5C20.5 17.3405 20.0671 16.4505 19.3763 15.7917C18.7005 15.1471 17.8012 14.7449 16.8848 14.4883C15.0572 13.9767 12.9865 14.0001 12 14.0001V15.0001ZM3.5 18.5001C3.5 20.157 4.84315 21.5001 6.5 21.5001V20.5001C5.39543 20.5001 4.5 19.6047 4.5 18.5001H3.5ZM19.5 18.5001C19.5 19.6047 18.6046 20.5001 17.5 20.5001V21.5001C19.1569 21.5001 20.5 20.157 20.5 18.5001H19.5ZM15.5 7C15.5 8.933 13.933 10.5 12 10.5V11.5C14.4853 11.5 16.5 9.48528 16.5 7H15.5ZM12 10.5C10.067 10.5 8.5 8.933 8.5 7H7.5C7.5 9.48528 9.51472 11.5 12 11.5V10.5ZM8.5 7C8.5 5.067 10.067 3.5 12 3.5V2.5C9.51472 2.5 7.5 4.51472 7.5 7H8.5ZM12 3.5C13.933 3.5 15.5 5.067 15.5 7H16.5C16.5 4.51472 14.4853 2.5 12 2.5V3.5Z"></path>
  </symbol>
  <symbol xmlns="http://www.w3.org/2000/svg" viewBox="0 0 24 24" id="info">
    <path d="M11.25 7.00999C11.25 7.42421 11.5858 7.75999 12 7.75999C12.4142 7.75999 12.75 7.42421 12.75 7.00999H11.25ZM12.75 7C12.75 6.58579 12.4142 6.25 12 6.25C11.5858 6.25 11.25 6.58579 11.25 7H12.75ZM11.25 17C11.25 17.4142 11.5858 17.75 12 17.75C12.4142 17.75 12.75 17.4142 12.75 17H11.25ZM12.75 9.99998C12.75 9.58577 12.4142 9.24998 12 9.24998C11.5858 9.24998 11.25 9.58577 11.25 9.99998H12.75ZM12.75 7.00999V7H11.25V7.00999H12.75ZM12.75 17V9.99998H11.25V17H12.75Z"/>
    <path fill-rule="evenodd" clip-rule="evenodd" d="M3.06641 3.22423C4.09092 2.12523 5.55715 1.5 7.31429 1.5H16.6857C18.4473 1.5 19.9138 2.12503 20.9374 3.22447C21.9572 4.31987 22.5 5.84543 22.5 7.58516V16.4148C22.5 18.1545 21.9572 19.6801 20.9374 20.7755C19.9138 21.875 18.4473 22.5 16.6857 22.5H7.31429C5.5527 22.5 4.08621 21.875 3.06262 20.7755C2.04279 19.6801 1.5 18.1545 1.5 16.4148V7.58516C1.5 5.84482 2.04554 4.31934 3.06641 3.22423ZM3.79788 3.90612C2.97827 4.78532 2.5 6.05242 2.5 7.58516V16.4148C2.5 17.9482 2.97626 19.2152 3.79453 20.0941C4.60904 20.969 5.79969 21.5 7.31429 21.5H16.6857C18.2003 21.5 19.391 20.969 20.2055 20.0941C21.0237 19.2152 21.5 17.9482 21.5 16.4148V7.58516C21.5 6.05181 21.0237 4.78479 20.2055 3.90588C19.391 3.03101 18.2003 2.5 16.6857 2.5H7.31429C5.80476 2.5 4.61385 3.03081 3.79788 3.90612Z"/>
  </symbol>
  <symbol xmlns="http://www.w3.org/2000/svg" viewBox="0 0 24 24" id="list">
    <path d="M8 7.5C7.72386 7.5 7.5 7.72386 7.5 8C7.5 8.27614 7.72386 8.5 8 8.5V7.5ZM16 8.5C16.2761 8.5 16.5 8.27614 16.5 8C16.5 7.72386 16.2761 7.5 16 7.5V8.5ZM8 11.5C7.72386 11.5 7.5 11.7239 7.5 12C7.5 12.2761 7.72386 12.5 8 12.5V11.5ZM13 12.5C13.2761 12.5 13.5 12.2761 13.5 12C13.5 11.7239 13.2761 11.5 13 11.5V12.5ZM7 16.4939H7.5C7.5 16.2694 7.35027 16.0723 7.1339 16.0122L7 16.4939ZM11.0124 16.9876L11.0255 16.4878C10.8884 16.4842 10.7558 16.5371 10.6588 16.6341L11.0124 16.9876ZM7 21H6.5C6.5 21.2023 6.62182 21.3846 6.80866 21.462C6.9955 21.5394 7.21056 21.4966 7.35355 21.3536L7 21ZM8 8.5H16V7.5H8V8.5ZM8 12.5H13V11.5H8V12.5ZM3.5 10C3.5 7.3693 4.02379 5.82245 5.22609 4.88732C6.46987 3.91994 8.56209 3.5 12 3.5V2.5C8.55556 2.5 6.14778 2.90359 4.61215 4.09797C3.03504 5.32461 2.5 7.27776 2.5 10H3.5ZM20.5 10C20.5 12.6307 19.9762 14.1776 18.7739 15.1127C17.5301 16.0801 15.4379 16.5 12 16.5V17.5C15.4444 17.5 17.8522 17.0964 19.3879 15.902C20.965 14.6754 21.5 12.7222 21.5 10H20.5ZM12 3.5C15.4379 3.5 17.5301 3.91994 18.7739 4.88732C19.9762 5.82245 20.5 7.3693 20.5 10H21.5C21.5 7.27776 20.965 5.32461 19.3879 4.09797C17.8522 2.90359 15.4444 2.5 12 2.5V3.5ZM7.1339 16.0122C5.73976 15.6247 4.86356 14.9988 4.31654 14.0831C3.75615 13.145 3.5 11.8358 3.5 10H2.5C2.5 11.9025 2.76025 13.4279 3.45806 14.596C4.16924 15.7865 5.29304 16.5384 6.8661 16.9757L7.1339 16.0122ZM12 16.5C11.6631 16.5 11.3384 16.496 11.0255 16.4878L10.9993 17.4875C11.3218 17.4959 11.6553 17.5 12 17.5V16.5ZM6.5 16.4939V21H7.5V16.4939H6.5ZM7.35355 21.3536L11.3659 17.3412L10.6588 16.6341L6.64645 20.6465L7.35355 21.3536Z"></path>
  </symbol>
  <symbol xmlns="http://www.w3.org/2000/svg" viewBox="0 0 24 24" id="math">
    <path fill-rule="evenodd" clip-rule="evenodd" d="M7.37109 9.70171C7.64724 9.70171 7.87109 9.92556 7.87109 10.2017V17.0618C7.87109 17.3379 7.64724 17.5618 7.37109 17.5618C7.09495 17.5618 6.87109 17.3379 6.87109 17.0618V10.2017C6.87109 9.92556 7.09495 9.70171 7.37109 9.70171Z"/>
    <path fill-rule="evenodd" clip-rule="evenodd" d="M12.0391 6.41913C12.3152 6.41913 12.5391 6.64299 12.5391 6.91913V17.0618C12.5391 17.3379 12.3152 17.5618 12.0391 17.5618C11.7629 17.5618 11.5391 17.3379 11.5391 17.0618V6.91913C11.5391 6.64299 11.7629 6.41913 12.0391 6.41913Z"/>
    <path fill-rule="evenodd" clip-rule="evenodd" d="M16.6289 13.3268C16.905 13.3268 17.1289 13.5507 17.1289 13.8268V17.0618C17.1289 17.3379 16.905 17.5618 16.6289 17.5618C16.3528 17.5618 16.1289 17.3379 16.1289 17.0618V13.8268C16.1289 13.5507 16.3528 13.3268 16.6289 13.3268Z"/>
    <path fill-rule="evenodd" clip-rule="evenodd" d="M3.06641 3.22423C4.09092 2.12523 5.55715 1.5 7.31429 1.5H16.6857C18.4473 1.5 19.9138 2.12503 20.9374 3.22447C21.9572 4.31987 22.5 5.84543 22.5 7.58516V16.4148C22.5 18.1545 21.9572 19.6801 20.9374 20.7755C19.9138 21.875 18.4473 22.5 16.6857 22.5H7.31429C5.5527 22.5 4.08621 21.875 3.06262 20.7755C2.04279 19.6801 1.5 18.1545 1.5 16.4148V7.58516C1.5 5.84482 2.04554 4.31934 3.06641 3.22423ZM3.79788 3.90612C2.97827 4.78532 2.5 6.05242 2.5 7.58516V16.4148C2.5 17.9482 2.97626 19.2152 3.79453 20.0941C4.60904 20.969 5.79969 21.5 7.31429 21.5H16.6857C18.2003 21.5 19.391 20.969 20.2055 20.0941C21.0237 19.2152 21.5 17.9482 21.5 16.4148V7.58516C21.5 6.05181 21.0237 4.78479 20.2055 3.90588C19.391 3.03101 18.2003 2.5 16.6857 2.5H7.31429C5.80476 2.5 4.61385 3.03081 3.79788 3.90612Z"/>
  </symbol>
  <symbol xmlns="http://www.w3.org/2000/svg" viewBox="0 0 24 24" id="referal">
    <path d="M19 13.5C18.7239 13.5 18.5 13.7239 18.5 14C18.5 14.2761 18.7239 14.5 19 14.5V13.5ZM21 18.5C20.7239 18.5 20.5 18.7239 20.5 19C20.5 19.2761 20.7239 19.5 21 19.5V18.5ZM17 10.5C16.7239 10.5 16.5 10.7239 16.5 11C16.5 11.2761 16.7239 11.5 17 11.5V10.5ZM17 4.5C16.7239 4.5 16.5 4.72386 16.5 5C16.5 5.27614 16.7239 5.5 17 5.5V4.5ZM5 14.5C5.27614 14.5 5.5 14.2761 5.5 14C5.5 13.7239 5.27614 13.5 5 13.5V14.5ZM3 19.5C3.27614 19.5 3.5 19.2761 3.5 19C3.5 18.7239 3.27614 18.5 3 18.5V19.5ZM7 11.5C7.27614 11.5 7.5 11.2761 7.5 11C7.5 10.7239 7.27614 10.5 7 10.5V11.5ZM7 5.5C7.27614 5.5 7.5 5.27614 7.5 5C7.5 4.72386 7.27614 4.5 7 4.5V5.5ZM23.5 17.5C23.5 16.5697 22.9596 15.5723 22.1728 14.825C21.3752 14.0674 20.257 13.5 19 13.5V14.5C19.9522 14.5 20.834 14.9326 21.4841 15.55C22.145 16.1777 22.5 16.9303 22.5 17.5H23.5ZM21.5 18.5H21V19.5H21.5V18.5ZM22.5 17.5C22.5 18.0523 22.0523 18.5 21.5 18.5V19.5C22.6046 19.5 23.5 18.6046 23.5 17.5H22.5ZM19.5 8C19.5 9.38071 18.3807 10.5 17 10.5V11.5C18.933 11.5 20.5 9.933 20.5 8H19.5ZM17 5.5C18.3807 5.5 19.5 6.61929 19.5 8H20.5C20.5 6.067 18.933 4.5 17 4.5V5.5ZM16.5 18.5H7.5V19.5H16.5V18.5ZM12 13.5C10.4562 13.5 8.87082 13.7556 7.65139 14.3653C6.41779 14.9821 5.5 16.0011 5.5 17.5H6.5C6.5 16.4989 7.08221 15.7679 8.09861 15.2597C9.12918 14.7444 10.5438 14.5 12 14.5V13.5ZM12 14.5C13.4562 14.5 14.8708 14.7444 15.9014 15.2597C16.9178 15.7679 17.5 16.4989 17.5 17.5H18.5C18.5 16.0011 17.5822 14.9821 16.3486 14.3653C15.1292 13.7556 13.5438 13.5 12 13.5V14.5ZM5.5 17.5C5.5 18.6046 6.39543 19.5 7.5 19.5V18.5C6.94772 18.5 6.5 18.0523 6.5 17.5H5.5ZM17.5 17.5C17.5 18.0523 17.0523 18.5 16.5 18.5V19.5C17.6046 19.5 18.5 18.6046 18.5 17.5H17.5ZM14.5 8C14.5 9.38071 13.3807 10.5 12 10.5V11.5C13.933 11.5 15.5 9.933 15.5 8H14.5ZM12 10.5C10.6193 10.5 9.5 9.38071 9.5 8H8.5C8.5 9.933 10.067 11.5 12 11.5V10.5ZM9.5 8C9.5 6.61929 10.6193 5.5 12 5.5V4.5C10.067 4.5 8.5 6.067 8.5 8H9.5ZM12 5.5C13.3807 5.5 14.5 6.61929 14.5 8H15.5C15.5 6.067 13.933 4.5 12 4.5V5.5ZM1.5 17.5C1.5 16.9303 1.85501 16.1777 2.5159 15.55C3.16605 14.9326 4.04782 14.5 5 14.5V13.5C3.74304 13.5 2.62482 14.0674 1.82724 14.825C1.04042 15.5723 0.5 16.5697 0.5 17.5H1.5ZM2.5 19.5H3V18.5H2.5V19.5ZM0.5 17.5C0.5 18.6046 1.39543 19.5 2.5 19.5V18.5C1.94772 18.5 1.5 18.0523 1.5 17.5H0.5ZM3.5 8C3.5 9.933 5.067 11.5 7 11.5V10.5C5.61929 10.5 4.5 9.38071 4.5 8H3.5ZM7 4.5C5.067 4.5 3.5 6.067 3.5 8H4.5C4.5 6.61929 5.61929 5.5 7 5.5V4.5Z"></path>
  </symbol>
  <symbol fill="none" xmlns="http://www.w3.org/2000/svg" viewBox="0 0 24 24" id="setting">
    <path fill-rule="evenodd" clip-rule="evenodd" d="M20.8074 7.62357L20.185 6.54348C19.6584 5.62956 18.4914 5.31427 17.5763 5.83867V5.83867C17.1406 6.0953 16.6208 6.16811 16.1314 6.04104C15.6421 5.91398 15.2233 5.59747 14.9676 5.16133C14.803 4.8841 14.7146 4.56835 14.7113 4.24599V4.24599C14.7261 3.72918 14.5311 3.22836 14.1708 2.85762C13.8104 2.48689 13.3153 2.27782 12.7982 2.27803H11.5442C11.0377 2.27802 10.552 2.47987 10.1947 2.8389C9.83742 3.19793 9.63791 3.68455 9.64034 4.19107V4.19107C9.62533 5.23688 8.77321 6.07677 7.7273 6.07666C7.40494 6.07331 7.08919 5.9849 6.81197 5.82036V5.82036C5.89679 5.29597 4.72985 5.61125 4.20327 6.52517L3.53508 7.62357C3.00914 8.53635 3.32013 9.70256 4.23073 10.2323V10.2323C4.82263 10.574 5.18726 11.2055 5.18726 11.889C5.18726 12.5725 4.82263 13.204 4.23073 13.5458V13.5458C3.32129 14.0719 3.00996 15.2353 3.53508 16.1453V16.1453L4.16666 17.2346C4.41338 17.6797 4.82734 18.0082 5.31693 18.1474C5.80652 18.2865 6.33137 18.2249 6.77535 17.976V17.976C7.21181 17.7213 7.73192 17.6515 8.22007 17.7822C8.70822 17.9128 9.12397 18.233 9.3749 18.6716C9.53943 18.9488 9.62784 19.2646 9.63119 19.587V19.587C9.63119 20.6435 10.4877 21.5 11.5442 21.5H12.7982C13.8512 21.5 14.7062 20.6491 14.7113 19.5961V19.5961C14.7088 19.088 14.9096 18.6 15.2689 18.2407C15.6282 17.8814 16.1162 17.6806 16.6243 17.6831C16.9459 17.6917 17.2604 17.7797 17.5397 17.9394V17.9394C18.4524 18.4653 19.6186 18.1543 20.1484 17.2437V17.2437L20.8074 16.1453C21.0625 15.7075 21.1325 15.186 21.0019 14.6963C20.8714 14.2067 20.551 13.7893 20.1117 13.5366V13.5366C19.6725 13.2839 19.3521 12.8665 19.2215 12.3769C19.091 11.8873 19.161 11.3658 19.4161 10.9279C19.582 10.6383 19.8221 10.3982 20.1117 10.2323V10.2323C21.0169 9.70285 21.3271 8.54345 20.8074 7.63272V7.63272V7.62357Z" stroke-linecap="round" stroke-linejoin="round"></path>
    <circle cx="12.1752" cy="11.889" r="2.63616" stroke-linecap="round" stroke-linejoin="round"></circle>
  </symbol>
  <symbol xmlns="http://www.w3.org/2000/svg" viewBox="0 0 24 24" id="tarif">
    <path fill-rule="evenodd" clip-rule="evenodd" d="M18 17.5C17.7238 17.5 17.5 17.7238 17.5 18C17.5 18.2762 17.7238 18.5 18 18.5C18.2762 18.5 18.5 18.2762 18.5 18C18.5 17.7238 18.2762 17.5 18 17.5ZM16.5 18C16.5 17.1716 17.1716 16.5 18 16.5C18.8284 16.5 19.5 17.1716 19.5 18C19.5 18.8284 18.8284 19.5 18 19.5C17.1716 19.5 16.5 18.8284 16.5 18Z"/>
    <path fill-rule="evenodd" clip-rule="evenodd" d="M12 17.5C11.7238 17.5 11.5 17.7238 11.5 18C11.5 18.2762 11.7238 18.5 12 18.5C12.2762 18.5 12.5 18.2762 12.5 18C12.5 17.7238 12.2762 17.5 12 17.5ZM10.5 18C10.5 17.1716 11.1716 16.5 12 16.5C12.8284 16.5 13.5 17.1716 13.5 18C13.5 18.8284 12.8284 19.5 12 19.5C11.1716 19.5 10.5 18.8284 10.5 18Z"/>
    <path fill-rule="evenodd" clip-rule="evenodd" d="M6 17.5C5.72386 17.5 5.5 17.7238 5.5 18C5.5 18.2762 5.72386 18.5 6 18.5C6.27614 18.5 6.5 18.2762 6.5 18C6.5 17.7238 6.27614 17.5 6 17.5ZM4.5 18C4.5 17.1716 5.17158 16.5 6 16.5C6.82842 16.5 7.5 17.1716 7.5 18C7.5 18.8284 6.82842 19.5 6 19.5C5.17158 19.5 4.5 18.8284 4.5 18Z"/>
    <path fill-rule="evenodd" clip-rule="evenodd" d="M18 11.5C17.7238 11.5 17.5 11.7238 17.5 12C17.5 12.2762 17.7238 12.5 18 12.5C18.2762 12.5 18.5 12.2762 18.5 12C18.5 11.7238 18.2762 11.5 18 11.5ZM16.5 12C16.5 11.1716 17.1716 10.5 18 10.5C18.8284 10.5 19.5 11.1716 19.5 12C19.5 12.8284 18.8284 13.5 18 13.5C17.1716 13.5 16.5 12.8284 16.5 12Z"/>
    <path fill-rule="evenodd" clip-rule="evenodd" d="M12 11.5C11.7238 11.5 11.5 11.7238 11.5 12C11.5 12.2762 11.7238 12.5 12 12.5C12.2762 12.5 12.5 12.2762 12.5 12C12.5 11.7238 12.2762 11.5 12 11.5ZM10.5 12C10.5 11.1716 11.1716 10.5 12 10.5C12.8284 10.5 13.5 11.1716 13.5 12C13.5 12.8284 12.8284 13.5 12 13.5C11.1716 13.5 10.5 12.8284 10.5 12Z"/>
    <path fill-rule="evenodd" clip-rule="evenodd" d="M6 11.5C5.72386 11.5 5.5 11.7238 5.5 12C5.5 12.2762 5.72386 12.5 6 12.5C6.27614 12.5 6.5 12.2762 6.5 12C6.5 11.7238 6.27614 11.5 6 11.5ZM4.5 12C4.5 11.1716 5.17158 10.5 6 10.5C6.82842 10.5 7.5 11.1716 7.5 12C7.5 12.8284 6.82842 13.5 6 13.5C5.17158 13.5 4.5 12.8284 4.5 12Z"/>
    <path fill-rule="evenodd" clip-rule="evenodd" d="M18 5.5C17.7238 5.5 17.5 5.72386 17.5 6C17.5 6.27614 17.7238 6.5 18 6.5C18.2762 6.5 18.5 6.27614 18.5 6C18.5 5.72386 18.2762 5.5 18 5.5ZM16.5 6C16.5 5.17158 17.1716 4.5 18 4.5C18.8284 4.5 19.5 5.17158 19.5 6C19.5 6.82842 18.8284 7.5 18 7.5C17.1716 7.5 16.5 6.82842 16.5 6Z"/>
    <path fill-rule="evenodd" clip-rule="evenodd" d="M12 5.5C11.7238 5.5 11.5 5.72386 11.5 6C11.5 6.27614 11.7238 6.5 12 6.5C12.2762 6.5 12.5 6.27614 12.5 6C12.5 5.72386 12.2762 5.5 12 5.5ZM10.5 6C10.5 5.17158 11.1716 4.5 12 4.5C12.8284 4.5 13.5 5.17158 13.5 6C13.5 6.82842 12.8284 7.5 12 7.5C11.1716 7.5 10.5 6.82842 10.5 6Z"/>
    <path fill-rule="evenodd" clip-rule="evenodd" d="M6 5.5C5.72386 5.5 5.5 5.72386 5.5 6C5.5 6.27614 5.72386 6.5 6 6.5C6.27614 6.5 6.5 6.27614 6.5 6C6.5 5.72386 6.27614 5.5 6 5.5ZM4.5 6C4.5 5.17158 5.17158 4.5 6 4.5C6.82842 4.5 7.5 5.17158 7.5 6C7.5 6.82842 6.82842 7.5 6 7.5C5.17158 7.5 4.5 6.82842 4.5 6Z"/>
  </symbol>
  <symbol xmlns="http://www.w3.org/2000/svg" viewBox="0 0 24 24" id="docs">
    <path fill-rule="evenodd" clip-rule="evenodd" d="M4.5 6C4.5 4.067 6.067 2.5 8 2.5H14.0633C14.2129 2.5 14.3599 2.52234 14.5 2.56498V6C14.5 7.38071 15.6193 8.5 17 8.5H19.4832C19.4943 8.5738 19.5 8.64869 19.5 8.7241V18C19.5 19.933 17.933 21.5 16 21.5H8C6.067 21.5 4.5 19.933 4.5 18V6ZM18.9325 7.5L15.5 3.38103V6C15.5 6.82843 16.1716 7.5 17 7.5H18.9325ZM8 1.5C5.51472 1.5 3.5 3.51472 3.5 6V18C3.5 20.4853 5.51472 22.5 8 22.5H16C18.4853 22.5 20.5 20.4853 20.5 18V8.7241C20.5 8.13926 20.295 7.57293 19.9206 7.12364L15.9838 2.39954C15.5088 1.82956 14.8052 1.5 14.0633 1.5H8ZM7.5 12C7.5 11.7239 7.72386 11.5 8 11.5H16C16.2761 11.5 16.5 11.7239 16.5 12C16.5 12.2761 16.2761 12.5 16 12.5H8C7.72386 12.5 7.5 12.2761 7.5 12ZM8 16.5C7.72386 16.5 7.5 16.7239 7.5 17C7.5 17.2761 7.72386 17.5 8 17.5H12C12.2761 17.5 12.5 17.2761 12.5 17C12.5 16.7239 12.2761 16.5 12 16.5H8Z"/>
  </symbol>

  <symbol xmlns="http://www.w3.org/2000/svg" viewBox="0 0 24 24" id="video">
    <path d="M21 17L20.7818 17.4499C20.9173 17.5156 21.0752 17.5167 21.2117 17.453C21.3481 17.3892 21.4486 17.2674 21.4851 17.1213L21 17ZM21 7L21.4851 6.87873C21.4486 6.73262 21.3481 6.61076 21.2117 6.547C21.0752 6.48325 20.9173 6.4844 20.7818 6.55014L21 7ZM3.77778 5.77778L3.42422 5.42422L3.77778 5.77778ZM16.2222 5.77778L16.5758 5.42422L16.2222 5.77778ZM3.77778 18.2222L3.42422 18.5758L3.77778 18.2222ZM16.659 15.4499L20.7818 17.4499L21.2182 16.5501L17.0955 14.5501L16.659 15.4499ZM20.7818 6.55014L16.659 8.55014L17.0955 9.44986L21.2182 7.44986L20.7818 6.55014ZM21 17C21.4851 17.1213 21.4851 17.1212 21.4851 17.1211C21.4851 17.121 21.4852 17.1209 21.4852 17.1208C21.4852 17.1207 21.4853 17.1205 21.4853 17.1202C21.4855 17.1198 21.4856 17.1192 21.4858 17.1185C21.4861 17.117 21.4866 17.1151 21.4872 17.1127C21.4884 17.108 21.49 17.1012 21.492 17.0926C21.4961 17.0754 21.5019 17.0505 21.5092 17.0183C21.5238 16.9539 21.5442 16.8601 21.5684 16.7387C21.617 16.496 21.6811 16.1431 21.745 15.6957C21.8728 14.8013 22 13.5274 22 12H21C21 13.4726 20.8773 14.6987 20.755 15.5543C20.6939 15.9819 20.6331 16.3165 20.5878 16.5426C20.5652 16.6556 20.5466 16.7414 20.5338 16.7981C20.5274 16.8264 20.5224 16.8475 20.5192 16.861C20.5176 16.8678 20.5164 16.8726 20.5157 16.8756C20.5153 16.8771 20.5151 16.8781 20.515 16.8786C20.5149 16.8789 20.5149 16.879 20.5149 16.879V16.8789C20.5149 16.8788 20.5149 16.8787 21 17ZM22 12C22 10.4726 21.8728 9.1987 21.745 8.30429C21.6811 7.85693 21.617 7.50404 21.5684 7.26132C21.5442 7.13994 21.5238 7.04607 21.5092 6.98167C21.5019 6.94946 21.4961 6.92462 21.492 6.90738C21.49 6.89876 21.4884 6.89205 21.4872 6.88726C21.4866 6.88487 21.4861 6.88296 21.4858 6.88154C21.4856 6.88083 21.4855 6.88024 21.4853 6.87977C21.4853 6.87953 21.4852 6.87933 21.4852 6.87916C21.4852 6.87907 21.4851 6.87897 21.4851 6.87892C21.4851 6.87882 21.4851 6.87873 21 7C20.5149 7.12127 20.5149 7.12119 20.5149 7.12112C20.5149 7.12111 20.5149 7.12105 20.5149 7.12102C20.5149 7.12097 20.5149 7.12095 20.5149 7.12096C20.5149 7.12098 20.5149 7.12112 20.515 7.12138C20.5151 7.12191 20.5153 7.12291 20.5157 7.12439C20.5164 7.12736 20.5176 7.13224 20.5192 7.139C20.5224 7.15253 20.5274 7.17358 20.5338 7.20193C20.5466 7.25861 20.5652 7.34443 20.5878 7.45743C20.6331 7.68346 20.6939 8.01807 20.755 8.44571C20.8773 9.3013 21 10.5274 21 12H22ZM4.13133 6.13133C4.10702 6.15565 4.11539 6.13739 4.21746 6.0959C4.30653 6.0597 4.43314 6.01913 4.59976 5.97677C4.93198 5.89231 5.38462 5.81035 5.93273 5.73886C7.02673 5.59616 8.46327 5.5 10 5.5V4.5C8.42561 4.5 6.94549 4.59829 5.80339 4.74726C5.23344 4.8216 4.73816 4.90977 4.35336 5.0076C4.16148 5.05639 3.98731 5.11 3.84092 5.1695C3.70753 5.22372 3.54576 5.30269 3.42422 5.42422L4.13133 6.13133ZM10 5.5C11.5367 5.5 12.9733 5.59616 14.0673 5.73886C14.6154 5.81035 15.068 5.89231 15.4002 5.97677C15.5669 6.01913 15.6935 6.0597 15.7825 6.0959C15.8846 6.13739 15.893 6.15565 15.8687 6.13133L16.5758 5.42422C16.4542 5.30269 16.2925 5.22372 16.1591 5.1695C16.0127 5.11 15.8385 5.05639 15.6466 5.0076C15.2618 4.90977 14.7666 4.8216 14.1966 4.74726C13.0545 4.59829 11.5744 4.5 10 4.5V5.5ZM15.8687 17.8687C15.893 17.8444 15.8846 17.8626 15.7825 17.9041C15.6935 17.9403 15.5669 17.9809 15.4002 18.0232C15.068 18.1077 14.6154 18.1897 14.0673 18.2611C12.9733 18.4038 11.5367 18.5 10 18.5V19.5C11.5744 19.5 13.0545 19.4017 14.1966 19.2527C14.7666 19.1784 15.2618 19.0902 15.6466 18.9924C15.8385 18.9436 16.0127 18.89 16.1591 18.8305C16.2925 18.7763 16.4542 18.6973 16.5758 18.5758L15.8687 17.8687ZM10 18.5C8.46327 18.5 7.02673 18.4038 5.93273 18.2611C5.38462 18.1897 4.93198 18.1077 4.59976 18.0232C4.43314 17.9809 4.30653 17.9403 4.21746 17.9041C4.11539 17.8626 4.10702 17.8444 4.13133 17.8687L3.42422 18.5758C3.54576 18.6973 3.70753 18.7763 3.84092 18.8305C3.98731 18.89 4.16148 18.9436 4.35336 18.9924C4.73816 19.0902 5.23344 19.1784 5.80339 19.2527C6.94549 19.4017 8.42561 19.5 10 19.5V18.5ZM4.13133 17.8687C4.15565 17.893 4.13739 17.8846 4.0959 17.7825C4.0597 17.6935 4.01913 17.5669 3.97677 17.4002C3.89231 17.068 3.81035 16.6154 3.73886 16.0673C3.59616 14.9733 3.5 13.5367 3.5 12H2.5C2.5 13.5744 2.59829 15.0545 2.74726 16.1966C2.8216 16.7666 2.90977 17.2618 3.0076 17.6466C3.05639 17.8385 3.11 18.0127 3.1695 18.1591C3.22372 18.2925 3.30269 18.4542 3.42422 18.5758L4.13133 17.8687ZM3.5 12C3.5 10.4633 3.59616 9.02673 3.73886 7.93273C3.81035 7.38462 3.89231 6.93198 3.97677 6.59976C4.01913 6.43314 4.0597 6.30653 4.0959 6.21746C4.13739 6.11539 4.15565 6.10702 4.13133 6.13133L3.42422 5.42422C3.30269 5.54576 3.22372 5.70753 3.1695 5.84092C3.11 5.98731 3.05639 6.16148 3.0076 6.35336C2.90977 6.73816 2.8216 7.23344 2.74726 7.80339C2.59829 8.94549 2.5 10.4256 2.5 12H3.5ZM16.5 12C16.5 13.059 16.4543 14.0714 16.379 14.9577L17.3754 15.0423C17.4532 14.1274 17.5 13.0867 17.5 12H16.5ZM16.379 14.9577C16.3073 15.8013 16.2094 16.5228 16.1007 17.0577C16.0462 17.326 15.991 17.5373 15.9388 17.6894C15.8785 17.8645 15.8445 17.8929 15.8687 17.8687L16.5758 18.5758C16.7274 18.4242 16.8207 18.1999 16.8845 18.0144C16.9562 17.8058 17.0215 17.5482 17.0807 17.2568C17.1995 16.672 17.3017 15.9098 17.3754 15.0423L16.379 14.9577ZM15.8687 6.13133C15.8445 6.10715 15.8785 6.13545 15.9388 6.31064C15.991 6.46272 16.0462 6.67397 16.1007 6.94232C16.2094 7.47724 16.3073 8.19874 16.379 9.04234L17.3754 8.95766C17.3017 8.09017 17.1995 7.32795 17.0807 6.74324C17.0215 6.45176 16.9562 6.1942 16.8845 5.98559C16.8207 5.80008 16.7274 5.5758 16.5758 5.42422L15.8687 6.13133ZM16.379 9.04234C16.4543 9.92857 16.5 10.941 16.5 12H17.5C17.5 10.9133 17.4532 9.87264 17.3754 8.95766L16.379 9.04234Z"/>
  </symbol>
  <symbol xmlns="http://www.w3.org/2000/svg" viewBox="0 0 24 24" id="btns">
    <path fill-rule="evenodd" clip-rule="evenodd" d="M21 12C21 16.9706 16.9706 21 12 21C7.02944 21 3 16.9706 3 12C3 7.02944 7.02944 3 12 3C16.9706 3 21 7.02944 21 12ZM22.5 12C22.5 17.799 17.799 22.5 12 22.5C6.20101 22.5 1.5 17.799 1.5 12C1.5 6.20101 6.20101 1.5 12 1.5C17.799 1.5 22.5 6.20101 22.5 12ZM9.25 11.2222C9.25 10.25 9.44745 9.87419 9.70678 9.67249C10.0283 9.42239 10.6667 9.25 12 9.25C13.3333 9.25 13.9717 9.42239 14.2932 9.67249C14.5525 9.87419 14.75 10.25 14.75 11.2222C14.75 12.1944 14.5525 12.5702 14.2932 12.7719C13.9717 13.022 13.3333 13.1944 12 13.1944C11.8734 13.1944 11.752 13.1929 11.6356 13.1899C11.4299 13.1845 11.2311 13.2638 11.0856 13.4093L10.8035 13.6914C10.7801 13.3783 10.5628 13.1102 10.2564 13.025C9.81364 12.902 9.61045 12.7286 9.48892 12.5252C9.34733 12.2882 9.25 11.8991 9.25 11.2222ZM12 7.75C10.6569 7.75 9.5452 7.89787 8.78587 8.48846C7.96432 9.12744 7.75 10.1127 7.75 11.2222C7.75 11.9991 7.85349 12.7124 8.2012 13.2944C8.46883 13.7425 8.84597 14.0564 9.30555 14.2703V15.5C9.30555 15.8033 9.48829 16.0768 9.76854 16.1929C10.0488 16.309 10.3714 16.2448 10.5859 16.0303L11.9219 14.6943L12 14.6944C13.3431 14.6944 14.4548 14.5466 15.2141 13.956C16.0357 13.317 16.25 12.3317 16.25 11.2222C16.25 10.1127 16.0357 9.12744 15.2141 8.48846C14.4548 7.89787 13.3431 7.75 12 7.75Z"/>
  </symbol>
</svg>