<svg width="0" height="0" class="hidden">
  <symbol fill="none" xmlns="http://www.w3.org/2000/svg" viewBox="0 0 12 9" id="check">
    <path fill-rule="evenodd" clip-rule="evenodd" d="M11.3962 1.432L4.54425 8.11265L0 3.682L1.3962 2.25L4.54425 5.31935L10 0L11.3962 1.432Z" fill="black"></path>
  </symbol>
  <symbol xmlns="http://www.w3.org/2000/svg" viewBox="0 0 24 24" id="client">
    <path fill-rule="evenodd" clip-rule="evenodd" d="M11.9378 14.7095C15.1846 14.7095 17.9584 15.2009 17.9584 17.1671C17.9584 19.1325 15.2029 19.6421 11.9378 19.6421C8.69002 19.6421 5.9171 19.1508 5.9171 17.1845C5.9171 15.2183 8.6726 14.7095 11.9378 14.7095Z" stroke-linecap="round" stroke-linejoin="round"></path>
    <path fill-rule="evenodd" clip-rule="evenodd" d="M11.9378 11.9049C9.79643 11.9049 8.07951 10.188 8.07951 8.04575C8.07951 5.90442 9.79643 4.1875 11.9378 4.1875C14.0791 4.1875 15.796 5.90442 15.796 8.04575C15.796 10.188 14.0791 11.9049 11.9378 11.9049Z" stroke-linecap="round" stroke-linejoin="round"></path>
  </symbol>
  <symbol xmlns="http://www.w3.org/2000/svg" viewBox="0 0 15 15" id="close">
    <path fill-rule="evenodd" clip-rule="evenodd" d="M5.83574 7.24995L0.292847 1.70706L1.70706 0.292847L7.24995 5.83574L12.7928 0.292847L14.2071 1.70706L8.66417 7.24995L14.2071 12.7928L12.7928 14.2071L7.24995 8.66417L1.70706 14.2071L0.292847 12.7928L5.83574 7.24995Z"></path>
  </symbol>
  <symbol fill="none" xmlns="http://www.w3.org/2000/svg" viewBox="0 0 11 7" id="drop">
    <path fill-rule="evenodd" clip-rule="evenodd" d="M0.292969 1.70708L1.70718 0.292864L5.50008 4.08576L9.29297 0.292864L10.7072 1.70708L5.50008 6.91418L0.292969 1.70708Z" fill="black"></path>
  </symbol>
  <symbol xmlns="http://www.w3.org/2000/svg" viewBox="0 0 24 24" id="feedback">
    <path fill-rule="evenodd" clip-rule="evenodd" d="M12.7141 3.44083L15.0301 8.09983C15.1461 8.33483 15.3701 8.49883 15.6301 8.53683L20.8151 9.28583C21.0251 9.31383 21.2141 9.42383 21.3431 9.59183C21.5851 9.90683 21.5481 10.3528 21.2581 10.6238L17.5001 14.2578C17.3091 14.4378 17.2241 14.7018 17.2741 14.9588L18.1741 20.0868C18.2371 20.5118 17.9471 20.9098 17.5221 20.9788C17.3461 21.0058 17.1661 20.9778 17.0061 20.8988L12.3881 18.4778C12.1561 18.3518 11.8781 18.3518 11.6461 18.4778L6.99413 20.9118C6.60513 21.1098 6.12913 20.9628 5.91713 20.5818C5.83613 20.4278 5.80813 20.2528 5.83613 20.0818L6.73613 14.9538C6.78113 14.6978 6.69613 14.4348 6.51013 14.2538L2.73213 10.6208C2.42413 10.3148 2.42213 9.81683 2.72913 9.50883C2.73013 9.50783 2.73113 9.50583 2.73213 9.50483C2.85913 9.38983 3.01513 9.31283 3.18413 9.28283L8.37013 8.53383C8.62913 8.49283 8.85213 8.33083 8.97013 8.09583L11.2841 3.44083C11.3771 3.25183 11.5421 3.10683 11.7421 3.04083C11.9431 2.97383 12.1631 2.98983 12.3521 3.08483C12.5071 3.16183 12.6341 3.28683 12.7141 3.44083Z" stroke-linecap="round" stroke-linejoin="round"></path>
  </symbol>
  <symbol xmlns="http://www.w3.org/2000/svg" viewBox="0 0 24 24" id="home">
    <path d="M19.6585 9.37487L12.6585 3.24987C12.2815 2.91997 11.7185 2.91997 11.3415 3.24986L4.3415 9.37487C4.12448 9.56475 4 9.83908 4 10.1274V18.9999C4 19.5522 4.44772 19.9999 5 19.9999H9C9.55228 19.9999 10 19.5522 10 18.9999V14.9999C10 14.4476 10.4477 13.9999 11 13.9999H13C13.5523 13.9999 14 14.4476 14 14.9999V18.9999C14 19.5522 14.4477 19.9999 15 19.9999H19C19.5523 19.9999 20 19.5522 20 18.9999V10.1274C20 9.83908 19.8755 9.56475 19.6585 9.37487Z" stroke-width="1.5" stroke-linecap="round" stroke-linejoin="round"></path>
  </symbol>
  <symbol xmlns="http://www.w3.org/2000/svg" viewBox="0 0 24 24" id="math">
    <path d="M7.37142 10.2017V17.0619" stroke-linecap="round" stroke-linejoin="round"></path>
    <path d="M12.0381 6.91913V17.0618" stroke-linecap="round" stroke-linejoin="round"></path>
    <path d="M16.6286 13.8268V17.0619" stroke-linecap="round" stroke-linejoin="round"></path>
    <path fill-rule="evenodd" clip-rule="evenodd" d="M16.6857 2H7.31429C4.04762 2 2 4.31208 2 7.58516V16.4148C2 19.6879 4.0381 22 7.31429 22H16.6857C19.9619 22 22 19.6879 22 16.4148V7.58516C22 4.31208 19.9619 2 16.6857 2Z" stroke-linecap="round" stroke-linejoin="round"></path>
  </symbol>
  <symbol fill="none" xmlns="http://www.w3.org/2000/svg" viewBox="0 0 24 23" id="mess">
    <path fill-rule="evenodd" clip-rule="evenodd" d="M3.50083 12.8185V12.6149C3.53295 12.0125 3.7406 11.4289 4.10236 10.9241C4.7045 10.3178 5.1167 9.5748 5.29571 8.77306C5.29571 8.1534 5.29571 7.5249 5.35393 6.90525C5.65469 3.92206 8.82728 1.8595 11.9611 1.8595H12.0387C15.1725 1.8595 18.345 3.92206 18.6555 6.90525C18.7137 7.5249 18.6555 8.1534 18.704 8.77306C18.8854 9.57666 19.2972 10.322 19.8974 10.933C20.2618 11.4333 20.4698 12.0148 20.4989 12.6149V12.8097C20.5206 13.6189 20.2208 14.4081 19.6548 15.0316C18.907 15.7606 17.8921 16.2141 16.8024 16.3063C13.607 16.625 10.383 16.625 7.18762 16.3063C6.09914 16.2101 5.08576 15.7572 4.33521 15.0316C3.778 14.4076 3.48224 13.6232 3.50083 12.8185Z" stroke="#0E0B00" stroke-width="1.5" stroke-linecap="round" stroke-linejoin="round"></path>
    <path d="M9.55493 19.3868C10.0542 19.9695 10.7874 20.3466 11.5922 20.4346C12.3971 20.5227 13.2072 20.3144 13.8433 19.856C14.0389 19.7204 14.2149 19.5628 14.3672 19.3868" stroke="#0E0B00" stroke-width="1.5" stroke-linecap="round" stroke-linejoin="round"></path>
  </symbol>
  <symbol fill="none" xmlns="http://www.w3.org/2000/svg" viewBox="0 0 19 20" id="messpc">
    <path d="M7.125 14.4584V13.4584C6.57272 13.4584 6.125 13.9061 6.125 14.4584H7.125ZM11.875 14.4584H12.875C12.875 13.9061 12.4273 13.4584 11.875 13.4584V14.4584ZM7.125 15.4584H11.875V13.4584H7.125V15.4584ZM10.875 14.4584V15.25H12.875V14.4584H10.875ZM8.125 15.25V14.4584H6.125V15.25H8.125ZM9.5 16.625C8.74061 16.625 8.125 16.0094 8.125 15.25H6.125C6.125 17.114 7.63604 18.625 9.5 18.625V16.625ZM10.875 15.25C10.875 16.0094 10.2594 16.625 9.5 16.625V18.625C11.364 18.625 12.875 17.114 12.875 15.25H10.875Z" fill="black"></path>
    <path d="M3.3985 12.6431L2.69139 11.936L2.69139 11.936L3.3985 12.6431ZM3.8029 12.2387L4.51001 12.9458L4.51001 12.9458L3.8029 12.2387ZM15.197 12.2387L15.9041 11.5316L15.9041 11.5316L15.197 12.2387ZM15.6014 12.6431L16.3085 11.936L16.3085 11.936L15.6014 12.6431ZM9.49995 3.375L9.49995 4.375L9.49995 3.375ZM15.0416 13.4583H3.95829V15.4583H15.0416V13.4583ZM4.16663 13.6667V13.2029H2.16663V13.6667H4.16663ZM4.10561 13.3502L4.51001 12.9458L3.0958 11.5316L2.69139 11.936L4.10561 13.3502ZM4.95829 11.8636V8.91667H2.95829V11.8636H4.95829ZM14.0416 8.91667V11.8636H16.0416V8.91667H14.0416ZM14.4899 12.9458L14.8943 13.3502L16.3085 11.936L15.9041 11.5316L14.4899 12.9458ZM14.8333 13.2029V13.6667H16.8333V13.2029H14.8333ZM14.8943 13.3502C14.8552 13.3112 14.8333 13.2582 14.8333 13.2029H16.8333C16.8333 12.7278 16.6445 12.272 16.3085 11.936L14.8943 13.3502ZM14.0416 11.8636C14.0416 12.2695 14.2029 12.6588 14.4899 12.9458L15.9041 11.5316C15.9922 11.6197 16.0416 11.7391 16.0416 11.8636H14.0416ZM16.0416 8.91667C16.0416 5.3038 13.1128 2.37499 9.49994 2.375L9.49995 4.375C12.0082 4.37499 14.0416 6.40837 14.0416 8.91667H16.0416ZM4.95829 8.91667C4.95829 6.40838 6.99166 4.37501 9.49995 4.375L9.49994 2.375C5.88709 2.37501 2.95829 5.30381 2.95829 8.91667H4.95829ZM4.51001 12.9458C4.79704 12.6588 4.95829 12.2695 4.95829 11.8636H2.95829C2.95829 11.7391 3.00775 11.6197 3.09579 11.5316L4.51001 12.9458ZM4.16663 13.2029C4.16663 13.2582 4.14468 13.3112 4.10561 13.3502L2.69139 11.936C2.35539 12.272 2.16663 12.7278 2.16663 13.2029H4.16663ZM3.95829 13.4583C4.07335 13.4583 4.16663 13.5516 4.16663 13.6667H2.16663C2.16663 14.6562 2.96878 15.4583 3.95829 15.4583V13.4583ZM15.0416 15.4583C16.0311 15.4583 16.8333 14.6562 16.8333 13.6667H14.8333C14.8333 13.5516 14.9266 13.4583 15.0416 13.4583V15.4583Z" fill="black"></path>
    <circle cx="13.5" cy="4.5" r="4.5" fill="#FF8181"></circle>
  </symbol>
  <symbol fill="none" xmlns="http://www.w3.org/2000/svg" viewBox="0 0 25 25" id="plus">
    <path fill-rule="evenodd" clip-rule="evenodd" d="M12.0205 0.62132C12.8489 0.62132 13.5205 1.29289 13.5205 2.12132L13.5205 10.5208L21.92 10.5208C22.7484 10.5208 23.42 11.1924 23.42 12.0208C23.42 12.8492 22.7484 13.5208 21.92 13.5208L13.5205 13.5208L13.5205 21.9203C13.5205 22.7487 12.8489 23.4203 12.0205 23.4203C11.1921 23.4203 10.5205 22.7487 10.5205 21.9203L10.5205 13.5208L2.12101 13.5208C1.29259 13.5208 0.621014 12.8492 0.621014 12.0208C0.621014 11.1924 1.29259 10.5208 2.12101 10.5208L10.5205 10.5208L10.5205 2.12132C10.5205 1.29289 11.1921 0.62132 12.0205 0.62132Z" fill="#CCCCCC"></path>
  </symbol>
  <symbol fill="none" xmlns="http://www.w3.org/2000/svg" viewBox="0 0 24 24" id="referal">
    <path fill-rule="evenodd" clip-rule="evenodd" d="M10.3661 4C7.98211 4 6.06775 5.91408 6.06775 8.29839C6.06775 10.6822 7.98237 12.5968 10.3661 12.5968C12.7505 12.5968 14.6645 10.6824 14.6645 8.29839C14.6645 5.91382 12.7507 4 10.3661 4ZM10.3666 5.21242C12.0816 5.21242 13.4526 6.58342 13.4526 8.29841C13.4526 10.0129 12.0813 11.3844 10.3666 11.3844C8.65244 11.3844 7.28063 10.0126 7.28063 8.29841C7.28063 6.58372 8.65214 5.21242 10.3666 5.21242ZM10.3667 14.0681C6.30105 14.0681 3.99991 14.8395 3.99991 17.0255C3.99991 19.2139 6.31126 20 10.3667 20L10.8868 19.9955C14.6271 19.9302 16.7334 19.1329 16.7334 17.0425C16.7334 14.9017 14.5215 14.1029 10.6287 14.0692L10.3667 14.0681ZM10.3672 15.2805C13.7631 15.2805 15.5215 15.8785 15.5215 17.0426C15.5215 18.1994 13.7674 18.7876 10.3672 18.7876C6.97125 18.7876 5.21282 18.1896 5.21282 17.0256C5.21282 15.8996 6.8725 15.3127 10.095 15.2818L10.3672 15.2805ZM17.9057 8.78435C18.2126 8.78435 18.4662 9.01241 18.5063 9.3083L18.5119 9.39056V10.4048H19.5585C19.8933 10.4048 20.1647 10.6762 20.1647 11.011C20.1647 11.3179 19.9367 11.5715 19.6408 11.6116L19.5585 11.6172H18.5119V12.6317C18.5119 12.9665 18.2405 13.2379 17.9057 13.2379C17.5988 13.2379 17.3451 13.0099 17.305 12.714L17.2995 12.6317V11.6172H16.2527C15.9179 11.6172 15.6465 11.3458 15.6465 11.011C15.6465 10.7041 15.8745 10.4504 16.1704 10.4103L16.2527 10.4048H17.2995V9.39056C17.2995 9.05576 17.5709 8.78435 17.9057 8.78435Z" fill="#FFFAE5"></path>
  </symbol>
  <symbol xmlns="http://www.w3.org/2000/svg" viewBox="0 0 24 24" id="resale">
    <path fill-rule="evenodd" clip-rule="evenodd" d="M16.2855 2H19.5521C20.9036 2 22 3.1059 22 4.47018V7.7641C22 9.12735 20.9036 10.2343 19.5521 10.2343H16.2855C14.933 10.2343 13.8366 9.12735 13.8366 7.7641V4.47018C13.8366 3.1059 14.933 2 16.2855 2Z" stroke-linecap="round" stroke-linejoin="round"></path>
    <path fill-rule="evenodd" clip-rule="evenodd" d="M4.44892 2H7.71449C9.06703 2 10.1634 3.1059 10.1634 4.47018V7.7641C10.1634 9.12735 9.06703 10.2343 7.71449 10.2343H4.44892C3.09638 10.2343 2 9.12735 2 7.7641V4.47018C2 3.1059 3.09638 2 4.44892 2Z" stroke-linecap="round" stroke-linejoin="round"></path>
    <path fill-rule="evenodd" clip-rule="evenodd" d="M4.44892 13.7657H7.71449C9.06703 13.7657 10.1634 14.8716 10.1634 16.2369V19.5298C10.1634 20.8941 9.06703 22 7.71449 22H4.44892C3.09638 22 2 20.8941 2 19.5298V16.2369C2 14.8716 3.09638 13.7657 4.44892 13.7657Z" stroke-linecap="round" stroke-linejoin="round"></path>
    <path fill-rule="evenodd" clip-rule="evenodd" d="M16.2855 13.7657H19.5521C20.9036 13.7657 22 14.8716 22 16.2369V19.5298C22 20.8941 20.9036 22 19.5521 22H16.2855C14.933 22 13.8366 20.8941 13.8366 19.5298V16.2369C13.8366 14.8716 14.933 13.7657 16.2855 13.7657Z" stroke-linecap="round" stroke-linejoin="round"></path>
  </symbol>
  <symbol xmlns="http://www.w3.org/2000/svg" viewBox="0 0 24 24" id="sale">
    <path d="M4.7943 7.05581C4.7943 5.80681 5.8073 4.79381 7.0553 4.79381H8.0843C8.6803 4.79381 9.2533 4.55781 9.6773 4.13681L10.3963 3.41681C11.2773 2.53181 12.7093 2.52781 13.5943 3.40881L13.6033 3.41681L14.3233 4.13681C14.7463 4.55781 15.3193 4.79381 15.9163 4.79381H16.9443C18.1933 4.79381 19.2063 5.80681 19.2063 7.05581V8.08281C19.2063 8.68081 19.4423 9.25281 19.8633 9.67681L20.5833 10.3968C21.4683 11.2778 21.4733 12.7088 20.5923 13.5948L20.5833 13.6038L19.8633 14.3238C19.4423 14.7458 19.2063 15.3198 19.2063 15.9158V16.9448C19.2063 18.1938 18.1933 19.2058 16.9443 19.2058H15.9163C15.3193 19.2058 14.7463 19.4428 14.3233 19.8638L13.6033 20.5828C12.7233 21.4688 11.2913 21.4728 10.4053 20.5918C10.4023 20.5888 10.3993 20.5858 10.3963 20.5828L9.6773 19.8638C9.2533 19.4428 8.6803 19.2058 8.0843 19.2058H7.0553C5.8073 19.2058 4.7943 18.1938 4.7943 16.9448V15.9158C4.7943 15.3198 4.5573 14.7458 4.1363 14.3238L3.4173 13.6038C2.5313 12.7228 2.5273 11.2908 3.4083 10.4058L3.4173 10.3968L4.1363 9.67681C4.5573 9.25281 4.7943 8.68081 4.7943 8.08281V7.05581" stroke-linecap="round" stroke-linejoin="round"></path>
    <path d="M9.43001 14.5695L14.57 9.4295" stroke-linecap="round" stroke-linejoin="round"></path>
    <path d="M14.5667 15.3224C14.3667 15.3224 14.1767 15.2424 14.0367 15.1024C13.9667 15.0324 13.9167 14.9424 13.8767 14.8524C13.8367 14.7624 13.8167 14.6734 13.8167 14.5724C13.8167 14.4724 13.8367 14.3724 13.8767 14.2824C13.9167 14.1924 13.9667 14.1124 14.0367 14.0424C14.3167 13.7624 14.8167 13.7624 15.0967 14.0424C15.1667 14.1124 15.2267 14.1924 15.2667 14.2824C15.2967 14.3724 15.3167 14.4724 15.3167 14.5724C15.3167 14.6734 15.2967 14.7624 15.2667 14.8524C15.2267 14.9424 15.1667 15.0324 15.0967 15.1024C14.9567 15.2424 14.7667 15.3224 14.5667 15.3224" fill="#FFFAE5"></path>
    <path d="M9.42661 10.1828C9.32661 10.1828 9.23661 10.1618 9.14661 10.1218C9.05661 10.0818 8.96661 10.0328 8.89661 9.96283C8.82661 9.88283 8.77661 9.80283 8.73661 9.71283C8.69661 9.62183 8.67661 9.53283 8.67661 9.43283C8.67661 9.33183 8.69661 9.23283 8.73661 9.14283C8.77661 9.05283 8.82661 8.96283 8.89661 8.90283C9.18661 8.62183 9.67661 8.62183 9.95661 8.90283C10.0966 9.04183 10.1766 9.23283 10.1766 9.43283C10.1766 9.53283 10.1666 9.62183 10.1266 9.71283C10.0866 9.80283 10.0266 9.88283 9.95661 9.96283C9.88661 10.0328 9.80661 10.0818 9.71661 10.1218C9.62661 10.1618 9.52661 10.1828 9.42661 10.1828" fill="#FFFAE5"></path>
  </symbol>
  <symbol fill="none" xmlns="http://www.w3.org/2000/svg" viewBox="0 0 17 17" id="search">
    <circle cx="10.1429" cy="6.85714" r="5.85714" transform="rotate(90 10.1429 6.85714)" stroke-width="2"></circle>
    <path d="M6.14294 10.8572L1.00009 16" stroke-width="2"></path>
  </symbol>
  <symbol fill="none" xmlns="http://www.w3.org/2000/svg" viewBox="0 0 17 17" id="search-mob">
    <circle cx="10.1429" cy="6.85714" r="5.85714" transform="rotate(90 10.1429 6.85714)" stroke-width="1"></circle>
    <path d="M6.14294 10.8572L1.00009 16" stroke-width="1"></path>
  </symbol>
  <symbol xmlns="http://www.w3.org/2000/svg" viewBox="0 0 24 24" id="setting">
    <path fill-rule="evenodd" clip-rule="evenodd" d="M20.8066 7.62355L20.1842 6.54346C19.6576 5.62954 18.4907 5.31426 17.5755 5.83866V5.83866C17.1399 6.09528 16.6201 6.16809 16.1307 6.04103C15.6413 5.91396 15.2226 5.59746 14.9668 5.16131C14.8023 4.88409 14.7139 4.56833 14.7105 4.24598V4.24598C14.7254 3.72916 14.5304 3.22834 14.17 2.85761C13.8096 2.48688 13.3145 2.2778 12.7975 2.27802H11.5435C11.037 2.27801 10.5513 2.47985 10.194 2.83888C9.83667 3.19791 9.63716 3.68453 9.63959 4.19106V4.19106C9.62458 5.23686 8.77246 6.07675 7.72655 6.07664C7.4042 6.07329 7.08844 5.98488 6.81122 5.82035V5.82035C5.89605 5.29595 4.7291 5.61123 4.20252 6.52516L3.53433 7.62355C3.00839 8.53633 3.31938 9.70255 4.22998 10.2322V10.2322C4.82189 10.574 5.18652 11.2055 5.18652 11.889C5.18652 12.5725 4.82189 13.204 4.22998 13.5457V13.5457C3.32054 14.0719 3.00921 15.2353 3.53433 16.1453V16.1453L4.16591 17.2345C4.41263 17.6797 4.82659 18.0082 5.31618 18.1474C5.80577 18.2865 6.33062 18.2248 6.77461 17.976V17.976C7.21106 17.7213 7.73117 17.6515 8.21932 17.7821C8.70748 17.9128 9.12322 18.233 9.37415 18.6716C9.53868 18.9488 9.62709 19.2646 9.63044 19.5869V19.5869C9.63044 20.6435 10.4869 21.5 11.5435 21.5H12.7975C13.8505 21.5 14.7055 20.6491 14.7105 19.5961V19.5961C14.7081 19.088 14.9089 18.6 15.2681 18.2407C15.6274 17.8814 16.1155 17.6806 16.6236 17.6831C16.9452 17.6917 17.2596 17.7797 17.5389 17.9393V17.9393C18.4517 18.4653 19.6179 18.1543 20.1476 17.2437V17.2437L20.8066 16.1453C21.0617 15.7074 21.1318 15.1859 21.0012 14.6963C20.8706 14.2067 20.5502 13.7893 20.111 13.5366V13.5366C19.6717 13.2839 19.3514 12.8665 19.2208 12.3769C19.0902 11.8872 19.1602 11.3658 19.4153 10.9279C19.5812 10.6383 19.8214 10.3981 20.111 10.2322V10.2322C21.0161 9.70283 21.3264 8.54343 20.8066 7.63271V7.63271V7.62355Z" stroke-linecap="round" stroke-linejoin="round"></path>
    <circle cx="12.1751" cy="11.889" r="2.63616" stroke-linecap="round" stroke-linejoin="round"></circle>
  </symbol>
  <symbol fill="none" xmlns="http://www.w3.org/2000/svg" viewBox="0 0 24 24" id="support">
    <path fill-rule="evenodd" clip-rule="evenodd" d="M1.99989 12.0002C1.99989 6.478 6.47768 2.00021 11.9999 2.00021C17.5228 2.00021 21.9999 6.47767 21.9999 12.0002C21.9999 17.5228 17.5228 22.0002 11.9999 22.0002C6.47768 22.0002 1.99989 17.5224 1.99989 12.0002ZM20.4999 12.0002C20.4999 7.30607 16.6943 3.50021 11.9999 3.50021C7.30611 3.50021 3.49989 7.30643 3.49989 12.0002C3.49989 16.694 7.30611 20.5002 11.9999 20.5002C16.6943 20.5002 20.4999 16.6944 20.4999 12.0002ZM11.995 7.45431C12.3747 7.45431 12.6885 7.73647 12.7381 8.10254L12.745 8.20431V12.6233C12.745 13.0375 12.4092 13.3733 11.995 13.3733C11.6153 13.3733 11.3015 13.0912 11.2518 12.7251L11.245 12.6233V8.20431C11.245 7.7901 11.5808 7.45431 11.995 7.45431ZM12.755 15.7961C12.755 15.3819 12.4192 15.0461 12.005 15.0461L11.8932 15.053C11.5271 15.1026 11.245 15.4164 11.245 15.7961C11.245 16.2103 11.5808 16.5461 11.995 16.5461L12.1068 16.5393C12.4728 16.4896 12.755 16.1758 12.755 15.7961Z" fill="#FFFAE5"></path>
  </symbol>
  <symbol xmlns="http://www.w3.org/2000/svg" viewBox="0 0 24 24" id="ticket">
    <path stroke="#FFFAE5" d="M13.8497 4.25031V6.67031" stroke-linecap="round" stroke-linejoin="round"></path>
    <path stroke="#FFFAE5" d="M13.8497 17.7601V19.7841" stroke-linecap="round" stroke-linejoin="round"></path>
    <path stroke="#FFFAE5" d="M13.8497 14.3246V9.5036" stroke-linecap="round" stroke-linejoin="round"></path>
    <path fill-rule="evenodd" clip-rule="evenodd" d="M18.7021 20C20.5242 20 22 18.5426 22 16.7431V14.1506C20.7943 14.1506 19.8233 13.1917 19.8233 12.001C19.8233 10.8104 20.7943 9.85039 22 9.85039L21.999 7.25686C21.999 5.45745 20.5221 4 18.7011 4H5.29892C3.47789 4 2.00104 5.45745 2.00104 7.25686L2 9.93485C3.20567 9.93485 4.17668 10.8104 4.17668 12.001C4.17668 13.1917 3.20567 14.1506 2 14.1506V16.7431C2 18.5426 3.4758 20 5.29787 20H18.7021Z" stroke-linecap="round" stroke="FFFAE5" stroke-linejoin="round"></path>
  </symbol>
  <symbol fill="none" xmlns="http://www.w3.org/2000/svg" viewBox="0 0 18 21" id="planning">
    <path fill-rule="evenodd" clip-rule="evenodd" d="M13.1194 0.884399C13.1194 0.470186 12.7836 0.134399 12.3694 0.134399C11.9552 0.134399 11.6194 0.470186 11.6194 0.884399V1.62228H6.38792V0.884399C6.38792 0.470186 6.05214 0.134399 5.63792 0.134399C5.22371 0.134399 4.88792 0.470186 4.88792 0.884399V1.64991C3.74899 1.75944 2.75628 2.19607 2.0211 2.98621C1.1684 3.90267 0.75 5.2002 0.75 6.74683V15.2732C0.75 16.8392 1.16674 18.1545 2.01619 19.0853C2.87372 20.025 4.08573 20.4779 5.4758 20.4779H12.5242C13.9136 20.4779 15.1248 20.0346 15.9829 19.1083C16.8341 18.1895 17.25 16.8901 17.25 15.3445V6.7478C17.254 5.20221 16.8403 3.90423 15.9892 2.98698C15.2549 2.19549 14.2611 1.75895 13.1194 1.64974V0.884399ZM11.6194 3.12228V3.9849C11.6194 4.39911 11.9552 4.7349 12.3694 4.7349C12.7836 4.7349 13.1194 4.39911 13.1194 3.9849V3.1587C13.8898 3.25871 14.4748 3.56014 14.8896 4.00722C15.4106 4.56874 15.7535 5.45764 15.75 6.74479L15.75 6.74683V7.11052H2.25V6.74683C2.25 5.46025 2.59588 4.57051 3.11927 4.00799C3.53568 3.56045 4.12085 3.25925 4.88792 3.15899V3.9849C4.88792 4.39911 5.22371 4.7349 5.63792 4.7349C6.05214 4.7349 6.38792 4.39911 6.38792 3.9849V3.12228H11.6194ZM2.25 8.61052V15.2732C2.25 16.585 2.59754 17.4971 3.12418 18.0742C3.64274 18.6424 4.41864 18.9779 5.4758 18.9779H12.5242C13.5897 18.9779 14.3664 18.6461 14.8825 18.089C15.4055 17.5244 15.75 16.6321 15.75 15.3445V8.61052H2.25ZM12.7015 10.7901C12.2873 10.7901 11.9515 11.1259 11.9515 11.5401C11.9515 11.9544 12.2873 12.2901 12.7015 12.2901H12.7092C13.1234 12.2901 13.4592 11.9544 13.4592 11.5401C13.4592 11.1259 13.1234 10.7901 12.7092 10.7901H12.7015ZM8.25421 11.5401C8.25421 11.1259 8.59 10.7901 9.00421 10.7901H9.01193C9.42614 10.7901 9.76193 11.1259 9.76193 11.5401C9.76193 11.9544 9.42614 12.2901 9.01193 12.2901H9.00421C8.59 12.2901 8.25421 11.9544 8.25421 11.5401ZM5.29824 10.7901C4.88403 10.7901 4.54824 11.1259 4.54824 11.5401C4.54824 11.9543 4.88403 12.2901 5.29824 12.2901H5.30596C5.72018 12.2901 6.05596 11.9543 6.05596 11.5401C6.05596 11.1259 5.72018 10.7901 5.30596 10.7901H5.29824ZM11.9515 15.2019C11.9515 14.7877 12.2873 14.4519 12.7015 14.4519H12.7092C13.1234 14.4519 13.4592 14.7877 13.4592 15.2019C13.4592 15.6162 13.1234 15.9519 12.7092 15.9519H12.7015C12.2873 15.9519 11.9515 15.6162 11.9515 15.2019ZM9.00421 14.4519C8.59 14.4519 8.25421 14.7877 8.25421 15.2019C8.25421 15.6162 8.59 15.9519 9.00421 15.9519H9.01193C9.42614 15.9519 9.76193 15.6162 9.76193 15.2019C9.76193 14.7877 9.42614 14.4519 9.01193 14.4519H9.00421ZM4.54824 15.2019C4.54824 14.7877 4.88403 14.4519 5.29824 14.4519H5.30596C5.72018 14.4519 6.05596 14.7877 6.05596 15.2019C6.05596 15.6161 5.72018 15.9519 5.30596 15.9519H5.29824C4.88403 15.9519 4.54824 15.6161 4.54824 15.2019Z" fill="#200E32"></path>
  </symbol>
  <symbol fill="none" xmlns="http://www.w3.org/2000/svg" viewBox="0 0 14 14" id="arrow">
    <path d="M2 1H13M13 1V12M13 1L1 13" stroke="black" stroke-width="2"/>
    <rect x="13" width="1" height="1" fill="black"/>
  </symbol>
  <symbol fill="none" xmlns="http://www.w3.org/2000/svg" viewBox="0 0 30 30" id="bars">
    <path d="M4.68677 9.37439H25.3118" stroke="black" stroke-width="1.5" stroke-miterlimit="10" stroke-linecap="round"></path>
    <path d="M4.68677 14.9996H25.3118" stroke="black" stroke-width="1.5" stroke-miterlimit="10" stroke-linecap="round"></path>
    <path d="M4.68677 20.6246H25.3118" stroke="black" stroke-width="1.5" stroke-miterlimit="10" stroke-linecap="round"></path>
  </symbol>
  <symbol xmlns="http://www.w3.org/2000/svg" viewBox="0 0 24 24" id="blog">
    <path d="M15.7162 16.2234H8.4962" stroke-linecap="round" stroke-linejoin="round"></path>
    <path d="M15.7162 12.0369H8.4962" stroke-linecap="round" stroke-linejoin="round"></path>
    <path d="M11.2513 7.86011H8.49629" stroke-linecap="round" stroke-linejoin="round"></path>
    <path fill-rule="evenodd" clip-rule="evenodd" d="M15.9086 2.74982C15.9086 2.74982 8.23159 2.75382 8.21959 2.75382C5.45959 2.77082 3.7506 4.58682 3.7506 7.35682V16.5528C3.7506 19.3368 5.4726 21.1598 8.2566 21.1598C8.2566 21.1598 15.9326 21.1568 15.9456 21.1568C18.7056 21.1398 20.4156 19.3228 20.4156 16.5528V7.35682C20.4156 4.57282 18.6926 2.74982 15.9086 2.74982Z" stroke-linecap="round" stroke-linejoin="round"></path>
  </symbol>
  <symbol xmlns="http://www.w3.org/2000/svg" viewBox="0 0 24 24" id="chat">
    <path d="M7.18497 19.605L7.45283 19.1828C7.3259 19.1023 7.16947 19.0831 7.02685 19.1307L7.18497 19.605ZM3 21L2.52566 20.8419C2.46577 21.0216 2.51253 21.2196 2.64645 21.3536C2.78036 21.4875 2.97845 21.5342 3.15811 21.4743L3 21ZM4.39499 16.815L4.86933 16.9731C4.91687 16.8305 4.89772 16.6741 4.81718 16.5472L4.39499 16.815ZM12 21.5C17.2467 21.5 21.5 17.2467 21.5 12H20.5C20.5 16.6944 16.6944 20.5 12 20.5V21.5ZM6.9171 20.0272C8.38722 20.9599 10.1313 21.5 12 21.5V20.5C10.3266 20.5 8.7675 20.0169 7.45283 19.1828L6.9171 20.0272ZM7.02685 19.1307L2.84189 20.5257L3.15811 21.4743L7.34308 20.0794L7.02685 19.1307ZM3.47434 21.1581L4.86933 16.9731L3.92065 16.6569L2.52566 20.8419L3.47434 21.1581ZM2.5 12C2.5 13.8687 3.04005 15.6128 3.9728 17.0829L4.81718 16.5472C3.98307 15.2325 3.5 13.6734 3.5 12H2.5ZM12 2.5C6.75329 2.5 2.5 6.75329 2.5 12H3.5C3.5 7.30558 7.30558 3.5 12 3.5V2.5ZM21.5 12C21.5 6.75329 17.2467 2.5 12 2.5V3.5C16.6944 3.5 20.5 7.30558 20.5 12H21.5Z"></path>
    <path d="M16 12H16.002V12.002H16V12Z" stroke-width="2" stroke-linecap="round" stroke-linejoin="round"></path>
    <path d="M12 12H12.002V12.002H12V12Z" stroke-width="2" stroke-linecap="round" stroke-linejoin="round"></path>
    <path d="M8 12H8.002V12.002H8V12Z" stroke-width="2" stroke-linecap="round" stroke-linejoin="round"></path>
  </symbol>
  <symbol xmlns="http://www.w3.org/2000/svg" viewBox="0 0 24 24" id="exit">
    <path d="M13.6217 9.06323V8.44435C13.6217 7.09448 12.5272 6 11.1774 6H7.94368C6.59448 6 5.5 7.09448 5.5 8.44435V15.8271C5.5 17.177 6.59448 18.2715 7.94368 18.2715H11.184C12.5299 18.2715 13.6217 17.1803 13.6217 15.8344V15.2089" stroke="#FFFAE5" stroke-linecap="round" stroke-linejoin="round"/>
      <path d="M18.1282 12.1357H10.1411" stroke="#FFFAE5" stroke-linecap="round" stroke-linejoin="round"/>
      <path d="M16.1858 10.2021L18.128 12.1357L16.1858 14.07" stroke="#FFFAE5" stroke-linecap="round" stroke-linejoin="round"/>
  </symbol>
  <symbol fill="none" xmlns="http://www.w3.org/2000/svg" viewBox="0 0 23 22" id="read">
    <path d="M6.59766 10.9L11.1349 15.396L20.8576 5.76172" stroke="#5CC89A" stroke-width="1.5" stroke-linecap="round" stroke-linejoin="round"/>
    <path d="M2.06055 10.9456L6.59782 15.4416M11.4592 10.6245L16.3205 5.80737" stroke="#5CC89A" stroke-width="1.5" stroke-linecap="round" stroke-linejoin="round"/>
  </symbol>
  <symbol fill="none" xmlns="http://www.w3.org/2000/svg" viewBox="0 0 22 22" id="unread">
    <path d="M4 10.7273L8.13636 14.8636L17 6" stroke="#D9D5D5" stroke-linecap="round" stroke-linejoin="round"/>
  </symbol>
  <symbol fill="none" xmlns="http://www.w3.org/2000/svg" viewBox="0 0 12 12" id="arrow-top">
    <path fill-rule="evenodd" clip-rule="evenodd" d="M5.99904 0.654541L10.668 4.85661L9.33008 6.3432L6.99904 4.24527V9.9999H4.99904V4.24527L2.66801 6.3432L1.33008 4.85661L5.99904 0.654541Z" fill="#EFF3F5"/>
  </symbol>
  <symbol fill="none" xmlns="http://www.w3.org/2000/svg" viewBox="0 0 33 33" id="papka">
    <path d="M26.9517 26.9515L26.9517 25.9515H26.9517L26.9517 26.9515ZM5.39054 26.9515L5.39054 27.9515H5.39054L5.39054 26.9515ZM4.04297 25.6039L5.04297 25.6039L5.04297 25.6039L4.04297 25.6039ZM4.04297 8.08545L4.04297 7.08545C3.77775 7.08545 3.5234 7.19081 3.33586 7.37834C3.14833 7.56588 3.04297 7.82023 3.04297 8.08545L4.04297 8.08545ZM26.9517 8.08545L26.9517 7.08545L26.9517 7.08545L26.9517 8.08545ZM28.2993 9.43302L29.2993 9.43302L29.2993 9.43302L28.2993 9.43302ZM28.2993 25.6039L27.2993 25.6039L27.2993 25.6039L28.2993 25.6039ZM26.9517 25.9515L5.39054 25.9515L5.39054 27.9515L26.9517 27.9515L26.9517 25.9515ZM5.04297 25.6039L5.04297 8.08545L3.04297 8.08545L3.04297 25.6039L5.04297 25.6039ZM4.04297 9.08545L26.9517 9.08545L26.9517 7.08545L4.04297 7.08545L4.04297 9.08545ZM26.9517 9.08545C27.1437 9.08545 27.2993 9.24106 27.2993 9.43302L29.2993 9.43302C29.2993 8.1365 28.2483 7.08545 26.9517 7.08545L26.9517 9.08545ZM5.39054 25.9515C5.19858 25.9515 5.04297 25.7959 5.04297 25.6039L3.04297 25.6039C3.04297 26.9004 4.09402 27.9515 5.39054 27.9515L5.39054 25.9515ZM26.9517 27.9515C28.2483 27.9515 29.2993 26.9004 29.2993 25.6039L27.2993 25.6039C27.2993 25.7959 27.1437 25.9515 26.9517 25.9515L26.9517 27.9515ZM27.2993 9.43302L27.2993 25.6039L29.2993 25.6039L29.2993 9.43302L27.2993 9.43302Z" fill="#B3B3B3"/>
    <path d="M16.1711 8.08553L13.8707 5.78508C13.618 5.53236 13.2752 5.39038 12.9178 5.39038H5.39054C4.6463 5.39038 4.04297 5.99371 4.04297 6.73795V8.08553" stroke="#B3B3B3" stroke-width="2" stroke-linecap="round" stroke-linejoin="round"/>
  </symbol>
  <symbol fill="none" xmlns="http://www.w3.org/2000/svg" viewBox="0 0 30 30" id="play">
    <path d="M9.375 7.5L9.61754 6.52986C9.08174 6.39591 8.53881 6.72167 8.40486 7.25746L9.375 7.5ZM9.375 22.5L8.40486 22.7425C8.53881 23.2783 9.08174 23.6041 9.61754 23.4701L9.375 22.5ZM21.875 15L22.7071 15.5547C22.931 15.2188 22.931 14.7812 22.7071 14.4453L21.875 15ZM9.375 22.5C10.3451 22.2575 10.3452 22.2577 10.3452 22.2579C10.3453 22.2579 10.3453 22.2581 10.3453 22.2582C10.3454 22.2585 10.3454 22.2586 10.3455 22.2588C10.3455 22.2591 10.3456 22.2592 10.3456 22.2592C10.3456 22.2592 10.3454 22.2585 10.3451 22.2573C10.3445 22.2548 10.3433 22.2499 10.3416 22.2425C10.3381 22.2278 10.3325 22.2033 10.325 22.1691C10.3101 22.1007 10.2877 21.9933 10.2602 21.847C10.2053 21.5543 10.1304 21.1056 10.0548 20.501C9.90363 19.2918 9.75 17.4582 9.75 15H7.75C7.75 17.5418 7.90887 19.4582 8.07022 20.749C8.15089 21.3944 8.23217 21.8832 8.29447 22.2155C8.32562 22.3817 8.35203 22.5087 8.37124 22.5965C8.38085 22.6404 8.38866 22.6746 8.39436 22.6989C8.39722 22.7111 8.39954 22.7208 8.4013 22.7281C8.40219 22.7317 8.40292 22.7347 8.40352 22.7371C8.40382 22.7383 8.40408 22.7394 8.4043 22.7403C8.40441 22.7407 8.40451 22.7412 8.40461 22.7415C8.40465 22.7417 8.40472 22.742 8.40474 22.7421C8.4048 22.7423 8.40486 22.7425 9.375 22.5ZM9.75 15C9.75 12.5418 9.90363 10.7082 10.0548 9.49903C10.1304 8.8944 10.2053 8.44575 10.2602 8.15304C10.2877 8.00668 10.3101 7.8993 10.325 7.83088C10.3325 7.79668 10.3381 7.77221 10.3416 7.75749C10.3433 7.75013 10.3445 7.7452 10.3451 7.74271C10.3454 7.74146 10.3456 7.74082 10.3456 7.7408C10.3456 7.74078 10.3455 7.74092 10.3455 7.74121C10.3454 7.74135 10.3454 7.74154 10.3453 7.74176C10.3453 7.74187 10.3453 7.74206 10.3452 7.74212C10.3452 7.74232 10.3451 7.74254 9.375 7.5C8.40486 7.25746 8.4048 7.2577 8.40474 7.25794C8.40472 7.25803 8.40465 7.25828 8.40461 7.25847C8.40451 7.25884 8.40441 7.25926 8.4043 7.25971C8.40408 7.26061 8.40382 7.26166 8.40352 7.26287C8.40292 7.26528 8.40219 7.2683 8.4013 7.27194C8.39954 7.27922 8.39722 7.28894 8.39436 7.30111C8.38866 7.32544 8.38085 7.35957 8.37124 7.40349C8.35203 7.49133 8.32562 7.61832 8.29447 7.78446C8.23217 8.11675 8.15089 8.6056 8.07022 9.25097C7.90887 10.5418 7.75 12.4582 7.75 15H9.75ZM9.375 7.5C9.13246 8.47014 9.13222 8.47008 9.13199 8.47002C9.13193 8.47001 9.1317 8.46995 9.13158 8.46992C9.13132 8.46985 9.1311 8.4698 9.13092 8.46975C9.13055 8.46966 9.13034 8.46961 9.13028 8.46959C9.13016 8.46956 9.13065 8.46969 9.13174 8.46997C9.13392 8.47053 9.13853 8.47174 9.14553 8.47361C9.15955 8.47736 9.18317 8.48381 9.21625 8.49326C9.2824 8.51216 9.38638 8.54307 9.52698 8.58843C9.80817 8.67913 10.2359 8.82765 10.8005 9.05348C11.9295 9.50509 13.6066 10.2662 15.7539 11.4932L16.7461 9.75676C14.5184 8.48378 12.758 7.68241 11.5433 7.19652C10.936 6.9536 10.4653 6.78962 10.141 6.68501C9.97885 6.63271 9.85335 6.59526 9.76569 6.57021C9.72186 6.55769 9.6875 6.54827 9.66275 6.54165C9.65038 6.53834 9.64041 6.53572 9.63287 6.53377C9.6291 6.53279 9.62594 6.53198 9.62338 6.53133C9.6221 6.53101 9.62097 6.53072 9.62 6.53048C9.61951 6.53035 9.61906 6.53024 9.61865 6.53014C9.61845 6.53009 9.61817 6.53002 9.61807 6.52999C9.6178 6.52992 9.61754 6.52986 9.375 7.5ZM15.7539 11.4932C17.8833 12.7101 19.2294 13.7617 20.0305 14.4899C20.4311 14.8541 20.6958 15.1379 20.8545 15.3216C20.9339 15.4135 20.9868 15.4804 21.0169 15.5201C21.032 15.5399 21.0414 15.5529 21.0456 15.5588C21.0477 15.5617 21.0485 15.5628 21.048 15.5622C21.0478 15.5618 21.0472 15.5611 21.0464 15.5598C21.046 15.5592 21.0455 15.5585 21.0449 15.5576C21.0446 15.5572 21.0443 15.5567 21.044 15.5562C21.0438 15.556 21.0436 15.5556 21.0435 15.5555C21.0432 15.5551 21.0429 15.5547 21.875 15C22.7071 14.4453 22.7068 14.4449 22.7065 14.4445C22.7064 14.4443 22.7061 14.4439 22.7059 14.4436C22.7055 14.443 22.7051 14.4424 22.7046 14.4417C22.7038 14.4404 22.7028 14.439 22.7018 14.4374C22.6997 14.4344 22.6973 14.4309 22.6946 14.4269C22.6891 14.419 22.6823 14.4093 22.6742 14.3979C22.6579 14.3751 22.6362 14.3454 22.6086 14.309C22.5533 14.2363 22.4743 14.1373 22.3682 14.0143C22.1557 13.7684 21.8346 13.4271 21.3758 13.0101C20.4581 12.1758 18.9917 11.0399 16.7461 9.75676L15.7539 11.4932ZM21.875 15C21.0429 14.4453 21.0432 14.4449 21.0435 14.4445C21.0436 14.4444 21.0438 14.444 21.044 14.4438C21.0443 14.4433 21.0446 14.4428 21.0449 14.4424C21.0455 14.4415 21.046 14.4408 21.0464 14.4402C21.0472 14.4389 21.0478 14.4382 21.048 14.4378C21.0485 14.4372 21.0477 14.4383 21.0456 14.4412C21.0414 14.4471 21.032 14.4601 21.0169 14.4799C20.9868 14.5196 20.9339 14.5865 20.8545 14.6784C20.6958 14.8621 20.4311 15.1459 20.0305 15.5101C19.2294 16.2383 17.8833 17.2899 15.7539 18.5068L16.7461 20.2432C18.9917 18.9601 20.4581 17.8242 21.3758 16.9899C21.8346 16.5729 22.1557 16.2316 22.3682 15.9857C22.4743 15.8627 22.5533 15.7637 22.6086 15.691C22.6362 15.6546 22.6579 15.6249 22.6742 15.6021C22.6823 15.5907 22.6891 15.581 22.6946 15.5731C22.6973 15.5691 22.6997 15.5656 22.7018 15.5626C22.7028 15.561 22.7038 15.5596 22.7046 15.5583C22.7051 15.5576 22.7055 15.557 22.7059 15.5564C22.7061 15.5561 22.7064 15.5557 22.7065 15.5555C22.7068 15.5551 22.7071 15.5547 21.875 15ZM15.7539 18.5068C13.6066 19.7338 11.9295 20.4949 10.8005 20.9465C10.2359 21.1724 9.80817 21.3209 9.52698 21.4116C9.38638 21.4569 9.2824 21.4878 9.21625 21.5067C9.18317 21.5162 9.15955 21.5226 9.14553 21.5264C9.13853 21.5283 9.13392 21.5295 9.13174 21.53C9.13065 21.5303 9.13016 21.5304 9.13028 21.5304C9.13034 21.5304 9.13055 21.5303 9.13092 21.5302C9.1311 21.5302 9.13132 21.5301 9.13158 21.5301C9.1317 21.53 9.13193 21.53 9.13199 21.53C9.13222 21.5299 9.13246 21.5299 9.375 22.5C9.61754 23.4701 9.6178 23.4701 9.61807 23.47C9.61817 23.47 9.61845 23.4699 9.61865 23.4699C9.61906 23.4698 9.61951 23.4696 9.62 23.4695C9.62097 23.4693 9.6221 23.469 9.62338 23.4687C9.62594 23.468 9.6291 23.4672 9.63287 23.4662C9.64041 23.4643 9.65038 23.4617 9.66275 23.4584C9.6875 23.4517 9.72186 23.4423 9.76569 23.4298C9.85335 23.4047 9.97885 23.3673 10.141 23.315C10.4653 23.2104 10.936 23.0464 11.5433 22.8035C12.758 22.3176 14.5184 21.5162 16.7461 20.2432L15.7539 18.5068Z" fill="#B3B3B3"/>
  </symbol>
  <symbol xmlns="http://www.w3.org/2000/svg" viewBox="0 0 12 14" id="download">
    <path fill-rule="evenodd" clip-rule="evenodd" d="M10.3605 4.36049L7 7.72098V0H5V7.72098L1.63951 4.36049L0.225295 5.77471L6 11.5494L11.7747 5.77471L10.3605 4.36049ZM0 12V14H12V12H0Z"/>
  </symbol>
</svg>